<?xml version="1.0" encoding="UTF-8"?>
<!--Generator: Apple Native CoreSVG 149-->
<!DOCTYPE svg
PUBLIC "-//W3C//DTD SVG 1.1//EN"
       "http://www.w3.org/Graphics/SVG/1.1/DTD/svg11.dtd">
<svg version="1.1" xmlns="http://www.w3.org/2000/svg" xmlns:xlink="http://www.w3.org/1999/xlink" width="3300" height="2200">
 <!--glyph: "ruby", point size: 100.0, font version: "17.0d4e2", template writer version: "0"-->
 <g id="Notes">
  <rect height="2200" id="artboard" style="fill:white;opacity:1" width="3300" x="0" y="0"/>
  <line style="fill:none;stroke:black;opacity:1;stroke-width:0.5;" x1="263" x2="3036" y1="292" y2="292"/>
  <text style="stroke:none;fill:black;font-family:SF Pro,SF Pro Display,SF Pro Text,sans-serif;font-weight:bold;" transform="matrix(1 0 0 1 263 322)">Weight/Scale Variations</text>
  <text style="stroke:none;fill:black;font-family:SF Pro,SF Pro Display,SF Pro Text,sans-serif;text-anchor:middle;" transform="matrix(1 0 0 1 559.711 322)">Ultralight</text>
  <text style="stroke:none;fill:black;font-family:SF Pro,SF Pro Display,SF Pro Text,sans-serif;text-anchor:middle;" transform="matrix(1 0 0 1 856.422 322)">Thin</text>
  <text style="stroke:none;fill:black;font-family:SF Pro,SF Pro Display,SF Pro Text,sans-serif;text-anchor:middle;" transform="matrix(1 0 0 1 1153.13 322)">Light</text>
  <text style="stroke:none;fill:black;font-family:SF Pro,SF Pro Display,SF Pro Text,sans-serif;text-anchor:middle;" transform="matrix(1 0 0 1 1449.84 322)">Regular</text>
  <text style="stroke:none;fill:black;font-family:SF Pro,SF Pro Display,SF Pro Text,sans-serif;text-anchor:middle;" transform="matrix(1 0 0 1 1746.56 322)">Medium</text>
  <text style="stroke:none;fill:black;font-family:SF Pro,SF Pro Display,SF Pro Text,sans-serif;text-anchor:middle;" transform="matrix(1 0 0 1 2043.27 322)">Semibold</text>
  <text style="stroke:none;fill:black;font-family:SF Pro,SF Pro Display,SF Pro Text,sans-serif;text-anchor:middle;" transform="matrix(1 0 0 1 2339.98 322)">Bold</text>
  <text style="stroke:none;fill:black;font-family:SF Pro,SF Pro Display,SF Pro Text,sans-serif;text-anchor:middle;" transform="matrix(1 0 0 1 2636.69 322)">Heavy</text>
  <text style="stroke:none;fill:black;font-family:SF Pro,SF Pro Display,SF Pro Text,sans-serif;text-anchor:middle;" transform="matrix(1 0 0 1 2933.4 322)">Black</text>
  <line style="fill:none;stroke:black;opacity:1;stroke-width:0.5;" x1="263" x2="3036" y1="1903" y2="1903"/>
  <g transform="matrix(1 0 0 1 263 1933)">
   <path d="M9.24805 0.830078C13.5547 0.830078 17.1387-2.74414 17.1387-7.05078C17.1387-11.3574 13.5449-14.9316 9.23828-14.9316C4.94141-14.9316 1.36719-11.3574 1.36719-7.05078C1.36719-2.74414 4.95117 0.830078 9.24805 0.830078ZM9.24805-0.654297C5.70312-0.654297 2.87109-3.49609 2.87109-7.05078C2.87109-10.6055 5.69336-13.4473 9.23828-13.4473C12.793-13.4473 15.6348-10.6055 15.6445-7.05078C15.6543-3.49609 12.8027-0.654297 9.24805-0.654297ZM5.83984-7.04102C5.83984-6.61133 6.14258-6.31836 6.5918-6.31836L8.50586-6.31836L8.50586-4.39453C8.50586-3.95508 8.79883-3.65234 9.22852-3.65234C9.67773-3.65234 9.9707-3.95508 9.9707-4.39453L9.9707-6.31836L11.9043-6.31836C12.3438-6.31836 12.6465-6.61133 12.6465-7.04102C12.6465-7.48047 12.3438-7.7832 11.9043-7.7832L9.9707-7.7832L9.9707-9.69727C9.9707-10.1465 9.67773-10.4492 9.22852-10.4492C8.79883-10.4492 8.50586-10.1465 8.50586-9.69727L8.50586-7.7832L6.5918-7.7832C6.14258-7.7832 5.83984-7.48047 5.83984-7.04102Z"/>
  </g>
  <g transform="matrix(1 0 0 1 281.867 1933)">
   <path d="M11.709 2.91016C17.1582 2.91016 21.6699-1.61133 21.6699-7.05078C21.6699-12.5 17.1484-17.0117 11.6992-17.0117C6.25977-17.0117 1.74805-12.5 1.74805-7.05078C1.74805-1.61133 6.26953 2.91016 11.709 2.91016ZM11.709 1.25C7.09961 1.25 3.41797-2.44141 3.41797-7.05078C3.41797-11.6602 7.08984-15.3516 11.6992-15.3516C16.3086-15.3516 20-11.6602 20.0098-7.05078C20.0195-2.44141 16.3184 1.25 11.709 1.25ZM7.39258-7.04102C7.39258-6.5625 7.73438-6.24023 8.23242-6.24023L10.8789-6.24023L10.8789-3.57422C10.8789-3.08594 11.2109-2.75391 11.6895-2.75391C12.1777-2.75391 12.5195-3.08594 12.5195-3.57422L12.5195-6.24023L15.1758-6.24023C15.6641-6.24023 16.0059-6.5625 16.0059-7.04102C16.0059-7.5293 15.6641-7.87109 15.1758-7.87109L12.5195-7.87109L12.5195-10.5176C12.5195-11.0254 12.1777-11.3574 11.6895-11.3574C11.2109-11.3574 10.8789-11.0156 10.8789-10.5176L10.8789-7.87109L8.23242-7.87109C7.73438-7.87109 7.39258-7.5293 7.39258-7.04102Z"/>
  </g>
  <g transform="matrix(1 0 0 1 305.646 1933)">
   <path d="M14.9707 5.66406C21.9336 5.66406 27.6953-0.0976562 27.6953-7.05078C27.6953-14.0137 21.9238-19.7754 14.9609-19.7754C8.00781-19.7754 2.25586-14.0137 2.25586-7.05078C2.25586-0.0976562 8.01758 5.66406 14.9707 5.66406ZM14.9707 3.84766C8.93555 3.84766 4.08203-1.01562 4.08203-7.05078C4.08203-13.0957 8.92578-17.9492 14.9609-17.9492C21.0059-17.9492 25.8594-13.0957 25.8691-7.05078C25.8789-1.01562 21.0156 3.84766 14.9707 3.84766ZM9.45312-7.04102C9.45312-6.52344 9.83398-6.16211 10.3711-6.16211L14.0625-6.16211L14.0625-2.46094C14.0625-1.93359 14.4336-1.55273 14.9512-1.55273C15.4883-1.55273 15.8594-1.92383 15.8594-2.46094L15.8594-6.16211L19.5605-6.16211C20.0879-6.16211 20.4688-6.52344 20.4688-7.04102C20.4688-7.57812 20.0977-7.95898 19.5605-7.95898L15.8594-7.95898L15.8594-11.6504C15.8594-12.1973 15.4883-12.5684 14.9512-12.5684C14.4336-12.5684 14.0625-12.1875 14.0625-11.6504L14.0625-7.95898L10.3711-7.95898C9.82422-7.95898 9.45312-7.57812 9.45312-7.04102Z"/>
  </g>
  <text style="stroke:none;fill:black;font-family:SF Pro,SF Pro Display,SF Pro Text,sans-serif;font-weight:bold;" transform="matrix(1 0 0 1 263 1953)">Design Variations</text>
  <text style="stroke:none;fill:black;font-family:SF Pro,SF Pro Display,SF Pro Text,sans-serif;" transform="matrix(1 0 0 1 263 1971)">Symbols are supported in up to nine weights and three scales.</text>
  <text style="stroke:none;fill:black;font-family:SF Pro,SF Pro Display,SF Pro Text,sans-serif;" transform="matrix(1 0 0 1 263 1989)">For optimal layout with text and other symbols, vertically align</text>
  <text style="stroke:none;fill:black;font-family:SF Pro,SF Pro Display,SF Pro Text,sans-serif;" transform="matrix(1 0 0 1 263 2007)">symbols with the adjacent text.</text>
  <line style="fill:none;stroke:#00AEEF;stroke-width:0.5;opacity:1.0;" x1="776" x2="776" y1="1919" y2="1933"/>
  <g transform="matrix(1 0 0 1 776 1933)">
   <path d="M3.31055 0.15625C3.82812 0.15625 4.08203-0.0390625 4.26758-0.585938L5.52734-4.0332L11.2891-4.0332L12.5488-0.585938C12.7344-0.0390625 12.9883 0.15625 13.4961 0.15625C14.0137 0.15625 14.3457-0.15625 14.3457-0.644531C14.3457-0.810547 14.3164-0.966797 14.2383-1.17188L9.6582-13.3691C9.43359-13.9648 9.0332-14.2676 8.4082-14.2676C7.80273-14.2676 7.39258-13.9746 7.17773-13.3789L2.59766-1.16211C2.51953-0.957031 2.49023-0.800781 2.49023-0.634766C2.49023-0.146484 2.80273 0.15625 3.31055 0.15625ZM6.00586-5.51758L8.37891-12.0898L8.42773-12.0898L10.8008-5.51758Z"/>
  </g>
  <line style="fill:none;stroke:#00AEEF;stroke-width:0.5;opacity:1.0;" x1="793.197" x2="793.197" y1="1919" y2="1933"/>
  <text style="stroke:none;fill:black;font-family:SF Pro,SF Pro Display,SF Pro Text,sans-serif;font-weight:bold;" transform="matrix(1 0 0 1 776 1953)">Margins</text>
  <text style="stroke:none;fill:black;font-family:SF Pro,SF Pro Display,SF Pro Text,sans-serif;" transform="matrix(1 0 0 1 776 1971)">Leading and trailing margins on the left and right side of each symbol</text>
  <text style="stroke:none;fill:black;font-family:SF Pro,SF Pro Display,SF Pro Text,sans-serif;" transform="matrix(1 0 0 1 776 1989)">can be adjusted by modifying the x-location of the margin guidelines.</text>
  <text style="stroke:none;fill:black;font-family:SF Pro,SF Pro Display,SF Pro Text,sans-serif;" transform="matrix(1 0 0 1 776 2007)">Modifications are automatically applied proportionally to all</text>
  <text style="stroke:none;fill:black;font-family:SF Pro,SF Pro Display,SF Pro Text,sans-serif;" transform="matrix(1 0 0 1 776 2025)">scales and weights.</text>
  <g transform="matrix(1 0 0 1 1289 1933)">
   <path d="M2.8418 1.86523L4.54102 3.57422C5.40039 4.44336 6.38672 4.38477 7.31445 3.35938L18.0078-8.42773L17.041-9.4043L6.42578 2.27539C6.07422 2.67578 5.74219 2.77344 5.27344 2.30469L4.10156 1.14258C3.63281 0.683594 3.74023 0.341797 4.14062-0.0195312L15.6152-10.8203L14.6387-11.7871L3.04688-0.898438C2.06055 0.0195312 1.98242 0.996094 2.8418 1.86523ZM9.25781-16.3281C8.83789-15.918 8.80859-15.3418 9.04297-14.9512C9.27734-14.5898 9.73633-14.3555 10.3809-14.5215C11.8457-14.8633 13.3691-14.9219 14.7949-13.9844L14.209-12.5293C13.8672-11.6992 14.043-11.1133 14.5801-10.5664L16.875-8.25195C17.3633-7.76367 17.7734-7.74414 18.3398-7.8418L19.4043-8.03711L20.0684-7.36328L20.0293-6.80664C19.9902-6.30859 20.1172-5.92773 20.6055-5.44922L21.3672-4.70703C21.8457-4.22852 22.4609-4.19922 22.9297-4.66797L25.8398-7.58789C26.3086-8.05664 26.2891-8.65234 25.8105-9.13086L25.0391-9.89258C24.5605-10.3711 24.1895-10.5273 23.7109-10.4883L23.1348-10.4395L22.4902-11.0742L22.7344-12.1973C22.8613-12.7637 22.7051-13.2031 22.1191-13.7891L19.9219-15.9766C16.582-19.2969 12.1484-19.2188 9.25781-16.3281ZM10.752-15.957C13.1836-17.7344 16.4746-17.4316 18.7012-15.2051L21.1328-12.793C21.3672-12.5586 21.4062-12.373 21.3379-12.0312L21.0156-10.5469L22.5195-9.0625L23.5059-9.12109C23.7598-9.13086 23.8379-9.11133 24.0332-8.91602L24.6094-8.33984L22.168-5.89844L21.5918-6.47461C21.3965-6.66992 21.3672-6.74805 21.377-7.01172L21.4453-7.98828L19.9512-9.47266L18.4277-9.21875C18.1055-9.15039 17.959-9.17969 17.7148-9.41406L15.7129-11.416C15.459-11.6504 15.4297-11.8164 15.5859-12.1875L16.4648-14.2773C14.9023-15.7324 12.8711-16.3574 10.8398-15.7617C10.6836-15.7227 10.625-15.8496 10.752-15.957Z"/>
  </g>
  <text style="stroke:none;fill:black;font-family:SF Pro,SF Pro Display,SF Pro Text,sans-serif;font-weight:bold;" transform="matrix(1 0 0 1 1289 1953)">Exporting</text>
  <text style="stroke:none;fill:black;font-family:SF Pro,SF Pro Display,SF Pro Text,sans-serif;" transform="matrix(1 0 0 1 1289 1971)">Symbols should be outlined when exporting to ensure the</text>
  <text style="stroke:none;fill:black;font-family:SF Pro,SF Pro Display,SF Pro Text,sans-serif;" transform="matrix(1 0 0 1 1289 1989)">design is preserved when submitting to Xcode.</text>
  <text id="template-version" style="stroke:none;fill:black;font-family:SF Pro,SF Pro Display,SF Pro Text,sans-serif;text-anchor:end;" transform="matrix(1 0 0 1 3036 1933)">Template v.2.0</text>
  <text style="stroke:none;fill:black;font-family:SF Pro,SF Pro Display,SF Pro Text,sans-serif;text-anchor:end;" transform="matrix(1 0 0 1 3036 1951)">Requires Xcode 13 or greater</text>
  <text id="descriptive-name" style="stroke:none;fill:black;font-family:SF Pro,SF Pro Display,SF Pro Text,sans-serif;text-anchor:end;" transform="matrix(1 0 0 1 3036 1969)">Generated from ruby</text>
  <text style="stroke:none;fill:black;font-family:SF Pro,SF Pro Display,SF Pro Text,sans-serif;text-anchor:end;" transform="matrix(1 0 0 1 3036 1987)">Typeset at 100 points</text>
  <text style="stroke:none;fill:black;font-family:SF Pro,SF Pro Display,SF Pro Text,sans-serif;" transform="matrix(1 0 0 1 263 726)">Small</text>
  <text style="stroke:none;fill:black;font-family:SF Pro,SF Pro Display,SF Pro Text,sans-serif;" transform="matrix(1 0 0 1 263 1156)">Medium</text>
  <text style="stroke:none;fill:black;font-family:SF Pro,SF Pro Display,SF Pro Text,sans-serif;" transform="matrix(1 0 0 1 263 1586)">Large</text>
 </g>
 <g id="Guides">
  <g id="H-reference" style="fill:#27AAE1;stroke:none;" transform="matrix(1 0 0 1 339 696)">
   <path d="M0.993654 0L3.63775 0L29.3281-67.1323L30.0303-67.1323L30.0303-70.459L28.1226-70.459ZM11.6885-24.4799L46.9815-24.4799L46.2315-26.7285L12.4385-26.7285ZM55.1196 0L57.7637 0L30.6382-70.459L29.4326-70.459L29.4326-67.1323Z"/>
  </g>
  <line id="Baseline-S" style="fill:none;stroke:#27AAE1;opacity:1;stroke-width:0.5;" x1="263" x2="3036" y1="696" y2="696"/>
  <line id="Capline-S" style="fill:none;stroke:#27AAE1;opacity:1;stroke-width:0.5;" x1="263" x2="3036" y1="625.541" y2="625.541"/>
  <g id="H-reference" style="fill:#27AAE1;stroke:none;" transform="matrix(1 0 0 1 339 1126)">
   <path d="M0.993654 0L3.63775 0L29.3281-67.1323L30.0303-67.1323L30.0303-70.459L28.1226-70.459ZM11.6885-24.4799L46.9815-24.4799L46.2315-26.7285L12.4385-26.7285ZM55.1196 0L57.7637 0L30.6382-70.459L29.4326-70.459L29.4326-67.1323Z"/>
  </g>
  <line id="Baseline-M" style="fill:none;stroke:#27AAE1;opacity:1;stroke-width:0.5;" x1="263" x2="3036" y1="1126" y2="1126"/>
  <line id="Capline-M" style="fill:none;stroke:#27AAE1;opacity:1;stroke-width:0.5;" x1="263" x2="3036" y1="1055.54" y2="1055.54"/>
  <g id="H-reference" style="fill:#27AAE1;stroke:none;" transform="matrix(1 0 0 1 339 1556)">
   <path d="M0.993654 0L3.63775 0L29.3281-67.1323L30.0303-67.1323L30.0303-70.459L28.1226-70.459ZM11.6885-24.4799L46.9815-24.4799L46.2315-26.7285L12.4385-26.7285ZM55.1196 0L57.7637 0L30.6382-70.459L29.4326-70.459L29.4326-67.1323Z"/>
  </g>
  <line id="Baseline-L" style="fill:none;stroke:#27AAE1;opacity:1;stroke-width:0.5;" x1="263" x2="3036" y1="1556" y2="1556"/>
  <line id="Capline-L" style="fill:none;stroke:#27AAE1;opacity:1;stroke-width:0.5;" x1="263" x2="3036" y1="1485.54" y2="1485.54"/>
  <line id="left-margin" style="fill:none;stroke:#00AEEF;stroke-width:0.5;opacity:1.0;" x1="1387.46" x2="1387.46" y1="1030.79" y2="1150.12"/>
  <line id="right-margin" style="fill:none;stroke:#00AEEF;stroke-width:0.5;opacity:1.0;" x1="1512.23" x2="1512.23" y1="1030.79" y2="1150.12"/>
 </g>
 <g id="Symbols">
  <g id="Black-L" transform="matrix(1 0 0 1 2848.97 1556)">
   <path d="M15.9587-49.5507Q13.2253-52.5838 12.9366-56.5374Q12.6479-60.491 14.8624-63.8017L32.8765-89.134Q34.4112-91.4069 36.8813-92.6822Q39.3514-93.9574 42.0628-93.9574L127.228-93.9574Q129.961-93.9574 132.391-92.7224Q134.821-91.4873 136.333-89.2144L153.726-65.4685Q156.079-62.2382 155.97-58.3248Q155.86-54.4114 153.229-51.4588L86.2718 25.7408L15.9587-49.5507ZM136.079-59.1688L123.859-75.9006L45.5699-75.9006L32.8092-57.9185L85.7528-1.22385ZM26.1752-63.4108L143.035-63.4108L143.035-53.4505L26.1752-53.4505ZM45.0298-59.8198L64.7776-86.9739L73.2599-80.8314L57.1903-58.8107L89.724 5.23318L80.3131 10.0009ZM79.2447 5.23318L111.698-58.8107L95.6283-80.8314L104.111-86.9739L123.939-59.8198L88.6556 10.0009Z"/>
  </g>
  <g id="Heavy-L" transform="matrix(1 0 0 1 2553.35 1556)">
   <path d="M15.6989-50.304Q13.1831-53.0911 12.926-56.6113Q12.669-60.1314 14.7009-63.1613L32.715-88.4936Q34.1166-90.5701 36.3079-91.7041Q38.4991-92.8381 40.9792-92.8381L126.144-92.8381Q128.66-92.8381 130.811-91.7443Q132.962-90.6505 134.32-88.574L151.742-64.7997Q153.891-61.8502 153.792-58.3739Q153.693-54.8977 151.301-52.1909L85.1597 24.0654L15.6989-50.304ZM136.418-59.1055L123.339-77.0199L43.9018-77.0199L30.2961-57.813L84.6903 0.45152ZM24.6708-63.2563L142.306-63.2563L142.306-53.6049L24.6708-53.6049ZM44.2079-59.797L63.9666-86.9511L72.073-81.0639L55.845-58.8335L88.5819 5.72579L79.5851 10.2929ZM78.4318 5.82827L110.876-58.8335L94.6333-81.0786L102.74-86.9658L122.593-59.797L87.4286 10.3954Z"/>
  </g>
  <g id="Bold-L" transform="matrix(1 0 0 1 2257.86 1556)">
   <path d="M15.4084-51.1466Q13.1358-53.6587 12.9142-56.6939Q12.6927-59.7291 14.5202-62.4449L32.5343-87.7772Q33.7871-89.6339 35.6664-90.6099Q37.5457-91.5859 39.767-91.5859L124.932-91.5859Q127.204-91.5859 129.043-90.6501Q130.882-89.7144 132.069-87.8576L149.521-64.0515Q151.443-61.4161 151.356-58.4289Q151.269-55.4416 149.143-53.01L83.9158 22.1913L15.4084-51.1466ZM136.796-59.0347L122.757-78.2721L42.0359-78.2721L27.4849-57.6949L83.5018 2.32567ZM22.988-63.0835L141.491-63.0835L141.491-53.7777L22.988-53.7777ZM43.2885-59.7715L63.0593-86.9257L70.7454-81.324L54.34-58.8591L87.3043 6.27685L78.7707 10.6196ZM77.5225 6.49396L109.957-58.8591L93.5203-81.3551L101.206-86.9567L121.089-59.7715L86.0561 10.8367Z"/>
  </g>
  <g id="Semibold-L" transform="matrix(1 0 0 1 1961.98 1556)">
   <path d="M15.2081-51.7275Q13.1033-54.0499 12.9061-56.7509Q12.7089-59.4518 14.3957-61.951L32.4097-87.2833Q33.5599-88.9886 35.2241-89.8556Q36.8884-90.7227 38.9314-90.7227L124.096-90.7227Q126.201-90.7227 127.825-89.8958Q129.449-89.069 130.516-87.3637L147.991-63.5357Q149.756-61.1169 149.676-58.4667Q149.597-55.8166 147.656-53.5746L83.0582 20.8993L15.2081-51.7275ZM137.057-58.9858L122.356-79.1353L40.7495-79.1353L25.5469-57.6135L82.6824 3.61769ZM21.8278-62.9644L140.929-62.9644L140.929-53.8969L21.8278-53.8969ZM42.6547-59.7539L62.4338-86.9082L69.8301-81.5034L53.3025-58.8767L86.4236 6.65675L78.2093 10.8448ZM76.8956 6.95289L109.323-58.8767L92.7529-81.5457L100.149-86.9505L120.051-59.7539L85.1099 11.1409Z"/>
  </g>
  <g id="Medium-L" transform="matrix(1 0 0 1 1665.91 1556)">
   <path d="M15.0563-52.168Q13.0786-54.3466 12.8999-56.794Q12.7213-59.2415 14.3012-61.5765L32.3153-86.9088Q33.3876-88.4993 34.8888-89.2837Q36.39-90.0681 38.2977-90.0681L123.462-90.0681Q125.44-90.0681 126.901-89.3239Q128.362-88.5797 129.339-86.9892L146.83-63.1445Q148.476-60.89 148.403-58.4954Q148.33-56.1009 146.528-54.0028L82.4079 19.9196L15.0563-52.168ZM137.255-58.9488L122.052-79.7899L39.7741-79.7899L24.0774-57.5518L82.0611 4.59736ZM20.9482-62.8741L140.503-62.8741L140.503-53.9872L20.9482-53.9872ZM42.1741-59.7405L61.9595-86.8949L69.1361-81.6393L52.5159-58.89L85.7557 6.9448L77.7836 11.0155ZM76.4203 7.30087L108.842-58.89L92.1711-81.6902L99.3477-86.9458L119.264-59.7405L84.3924 11.3716Z"/>
  </g>
  <g id="Regular-L" transform="matrix(1 0 0 1 1370.03 1556)">
   <path d="M14.8582-52.7425Q13.0464-54.7335 12.8919-56.8504Q12.7374-58.9672 14.1781-61.088L32.1921-86.4203Q33.1629-87.861 34.4514-88.5377Q35.7399-89.2144 37.4712-89.2144L122.636-89.2144Q124.448-89.2144 125.696-88.5779Q126.944-87.9414 127.804-86.5007L145.317-62.6344Q146.807-60.594 146.742-58.5329Q146.677-56.4718 145.057-54.5612L81.5597 18.6418L14.8582-52.7425ZM137.513-58.9005L121.655-80.6436L38.5019-80.6436L22.1606-57.4714L81.2507 5.87518ZM19.8008-62.7562L139.947-62.7562L139.947-54.105L19.8008-54.105ZM41.5472-59.7231L61.3409-86.8776L68.2309-81.8167L51.4898-58.9074L84.8846 7.32052L77.2284 11.2383ZM75.8003 7.75475L108.215-58.9074L91.4122-81.8787L98.3021-86.9396L118.238-59.7231L83.4566 11.6725Z"/>
  </g>
  <g id="Light-L" transform="matrix(1 0 0 1 1074.28 1556)">
   <path d="M14.6549-53.4264Q13.0094-55.2141 12.8826-56.9151Q12.7558-58.616 14.0487-60.5151L32.0627-85.8473Q32.9411-87.1402 33.9431-87.669Q34.9451-88.1979 36.5101-88.1979L121.675-88.1979Q123.32-88.1979 124.282-87.7092Q125.244-87.2206 125.992-85.9278L143.542-62.0245Q144.866-60.2059 144.811-58.5698Q144.755-56.9338 143.32-55.2266L80.5617 17.1262L14.6549-53.4264ZM137.846-58.8451L121.211-81.6602L37.0048-81.6602L19.8873-57.3789L80.3081 7.39077ZM18.2298-61.7397L139.429-61.7397L139.429-55.1216L18.2298-55.1216ZM41.769-59.6307L61.1376-86.1937L66.3826-82.3342L49.3458-58.9998L83.1842 8.35555L77.3393 11.3492ZM76.1145 9.04854L108.437-58.9998L91.3013-82.4332L96.5463-86.2927L116.094-59.6307L81.9595 12.0422Z"/>
  </g>
  <g id="Thin-L" transform="matrix(1 0 0 1 778.842 1556)">
   <path d="M14.386-54.3309Q12.9606-55.8497 12.8704-57.0006Q12.7803-58.1516 13.8776-59.7573L31.8916-85.0896Q32.6478-86.1868 33.2709-86.5201Q33.894-86.8534 35.239-86.8534L120.404-86.8534Q121.829-86.8534 122.412-86.5603Q122.995-86.2672 123.597-85.17L141.196-61.2178Q142.299-59.6925 142.256-58.6187Q142.213-57.545 141.022-56.1066L79.2417 15.1217L14.386-54.3309ZM138.286-58.7717L120.624-83.0046L35.0247-83.0046L16.8806-57.2567L79.0614 9.39525ZM16.1519-60.3952L138.745-60.3952L138.745-56.4661L16.1519-56.4661ZM42.0623-59.5085L60.8687-85.2893L63.9381-83.0186L46.5102-59.122L80.9353 9.72447L77.4859 11.4958ZM76.5301 10.7597L108.73-59.122L91.1546-83.1665L94.224-85.4371L113.259-59.5085L79.9795 12.531Z"/>
  </g>
  <g id="Ultralight-L" transform="matrix(1 0 0 1 482.782 1556)">
   <path d="M14.2483-54.7941Q12.9355-56.1752 12.8642-57.0444Q12.7928-57.9137 13.7899-59.3691L31.804-84.7014Q32.4975-85.6985 32.9266-85.9316Q33.3556-86.1647 34.5879-86.1647L119.753-86.1647Q121.065-86.1647 121.454-85.9718Q121.843-85.7789 122.37-84.7818L139.994-60.8046Q140.985-59.4296 140.948-58.6438Q140.91-57.858 139.845-56.5573L78.5655 14.095L14.2483-54.7941ZM138.511-58.7342L120.324-83.6933L34.0105-83.6933L15.3405-57.1941L78.4228 10.4219ZM15.0877-59.7066L138.394-59.7066L138.394-57.1547L15.0877-57.1547ZM42.2126-59.4459L60.731-84.826L62.686-83.3692L45.0578-59.1846L79.7834 10.4256L77.5611 11.571ZM76.7429 11.6361L108.881-59.1846L91.0795-83.5421L93.0346-84.9989L111.806-59.4459L78.9653 12.7815Z"/>
  </g>
  <g id="Black-M" transform="matrix(1 0 0 1 2867.38 1126)">
   <path d="M12.5178-45.9101Q10.2699-48.4021 10.0285-51.6962Q9.78704-54.9902 11.6093-57.721L25.5656-77.347Q26.8375-79.2263 28.8934-80.2854Q30.9492-81.3445 33.192-81.3445L99.1727-81.3445Q101.421-81.3445 103.445-80.3166Q105.47-79.2886 106.737-77.4093L120.2-59.0242Q122.141-56.3557 122.051-53.0928Q121.96-49.8299 119.779-47.4002L67.4544 12.9308L12.5178-45.9101ZM105.248-53.8118L96.2551-66.1231L36.2289-66.1231L26.8047-52.8668L67.0286-9.80791ZM21.0372-56.8495L111.265-56.8495L111.265-49.5593L21.0372-49.5593ZM35.6684-54.2688L50.8138-75.1048L57.1484-70.5355L44.7342-53.5107L69.9157-3.95244L62.8853-0.400879ZM62.1997-3.95244L87.3189-53.5107L74.9047-70.5355L81.2393-75.1048L96.4471-54.2688L69.2301-0.400879Z"/>
  </g>
  <g id="Heavy-M" transform="matrix(1 0 0 1 2571.52 1126)">
   <path d="M12.3076-46.4996Q10.2365-48.7949 10.0201-51.7545Q9.8037-54.7141 11.4792-57.218L25.4355-76.844Q26.5972-78.5631 28.4419-79.5159Q30.2867-80.4686 32.3391-80.4686L98.3198-80.4686Q100.391-80.4686 102.205-79.547Q104.018-78.6254 105.158-76.9063L118.641-58.5014Q120.419-56.0597 120.337-53.1329Q120.254-50.206 118.267-47.973L66.5817 11.6185L12.3076-46.4996ZM105.508-53.7618L95.8418-66.999L34.9199-66.999L24.8363-52.7835L66.1925-8.49568ZM19.904-56.9169L110.664-56.9169L110.664-49.4919L19.904-49.4919ZM34.8173-54.2663L50.0646-75.2295L56.3852-70.6517L43.8796-53.5132L69.1645-3.69322L62.1498-0.139222ZM61.3376-3.64862L86.4678-53.5132L73.9558-70.658L80.2765-75.2358L95.5925-54.2663L68.3523-0.0946272Z"/>
  </g>
  <g id="Bold-M" transform="matrix(1 0 0 1 2275.77 1126)">
   <path d="M12.0725-47.159Q10.1993-49.2342 10.0108-51.8197Q9.82234-54.4052 11.3337-56.6553L25.2899-76.2813Q26.3283-77.8212 27.937-78.655Q29.5457-79.4888 31.3851-79.4888L97.3658-79.4888Q99.239-79.4888 100.817-78.6862Q102.394-77.8835 103.392-76.3436L116.897-57.9165Q118.492-55.7287 118.419-53.1777Q118.346-50.6267 116.576-48.6138L65.6054 10.1506L12.0725-47.159ZM105.798-53.7059L95.3795-67.9788L33.4555-67.9788L22.6345-52.6903L65.2571-7.02777ZM18.6365-56.9922L109.991-56.9922L109.991-49.4166L18.6365-49.4166ZM33.8652-54.2636L49.2265-75.369L55.5315-70.7816L42.9236-53.5159L68.3242-3.40323L61.3271 0.15348ZM60.3732-3.30875L85.5157-53.5159L72.8944-70.7951L79.1993-75.3825L94.6365-54.2636L67.3703 0.247959Z"/>
  </g>
  <g id="Semibold-M" transform="matrix(1 0 0 1 1979.73 1126)">
   <path d="M11.9104-47.6136Q10.1736-49.5371 10.0044-51.8647Q9.83519-54.1923 11.2334-56.2674L25.1896-75.8934Q26.1429-77.3097 27.5888-78.0616Q29.0348-78.8134 30.7274-78.8134L96.7081-78.8134Q98.4449-78.8134 99.8596-78.0927Q101.274-77.3721 102.174-75.9557L115.695-57.5133Q117.164-55.5004 117.097-53.2086Q117.031-50.9167 115.409-49.0556L64.9324 9.13865L11.9104-47.6136ZM105.998-53.6674L95.0607-68.6542L32.446-68.6542L21.1165-52.6261L64.6122-6.0158ZM17.7626-57.0441L109.528-57.0441L109.528-49.3646L17.7626-49.3646ZM33.2088-54.2617L48.6487-75.4651L54.9429-70.8711L42.2646-53.5178L67.7449-3.20332L60.7599 0.355266ZM59.7083-3.07445L84.8594-53.5178L72.1626-70.8895L78.4568-75.4835L93.9775-54.2617L66.6933 0.484137Z"/>
  </g>
  <g id="Medium-M" transform="matrix(1 0 0 1 1683.52 1126)">
   <path d="M11.7874-47.9583Q10.1541-49.7667 9.99951-51.8988Q9.84493-54.0308 11.1573-55.9733L25.1135-75.5993Q26.0024-76.9219 27.3249-77.6116Q28.6474-78.3012 30.2287-78.3012L96.2094-78.3012Q97.8427-78.3012 99.1341-77.6427Q100.425-76.9842 101.251-75.6616L114.783-57.2076Q116.157-55.3274 116.095-53.232Q116.033-51.1366 114.525-49.3905L64.4221 8.37133L11.7874-47.9583ZM106.15-53.6382L94.819-69.1664L31.6805-69.1664L19.9655-52.5774L64.1232-5.24848ZM17.1-57.0835L109.176-57.0835L109.176-49.3253L17.1-49.3253ZM32.7111-54.2603L48.2107-75.538L54.4966-70.939L41.7648-53.5192L67.3056-3.05174L60.3298 0.508269ZM59.2042-2.89679L84.3617-53.5192L71.6078-70.9612L77.8938-75.5602L93.4777-54.2603L66.18 0.663216Z"/>
  </g>
  <g id="Regular-M" transform="matrix(1 0 0 1 1387.46 1126)">
   <path d="M11.6271-48.4079Q10.1287-50.0663 9.99315-51.9432Q9.85764-53.8202 11.0581-55.5897L25.0143-75.2157Q25.8191-76.4161 26.9806-77.0246Q28.1421-77.6331 29.5782-77.6331L95.5589-77.6331Q97.0573-77.6331 98.1877-77.0558Q99.318-76.4784 100.047-75.278L113.594-56.8088Q114.843-55.1016 114.788-53.2625Q114.732-51.4235 113.372-49.8274L63.7565 7.37048L11.6271-48.4079ZM106.348-53.6L94.5038-69.8344L30.6821-69.8344L18.4643-52.5139L63.4855-4.24763ZM16.2358-57.1349L108.718-57.1349L108.718-49.2739L16.2358-49.2739ZM32.062-54.2584L47.6392-75.6331L53.9145-71.0276L41.113-53.5211L66.7327-2.85402L59.7689 0.707838ZM58.5466-2.66506L83.7126-53.5211L70.8841-71.0546L77.1594-75.6601L92.8259-54.2584L65.5104 0.896798Z"/>
  </g>
  <g id="Light-M" transform="matrix(1 0 0 1 1091.61 1126)">
   <path d="M11.4448-49.021Q10.0955-50.4971 9.98487-52.0012Q9.87421-53.5054 10.9421-55.076L24.8983-74.702Q25.6202-75.7698 26.5249-76.2458Q27.4295-76.7218 28.7166-76.7218L94.6972-76.7218Q96.0465-76.7218 96.92-76.2769Q97.7935-75.8321 98.4231-74.7643L112.003-56.262Q113.103-54.7536 113.056-53.2957Q113.009-51.8377 111.814-50.4239L62.8617 6.01168L11.4448-49.021ZM106.646-53.5503L94.1061-70.7458L29.3399-70.7458L16.4261-52.431L62.6404-2.88883ZM14.8272-56.2235L108.254-56.2235L108.254-50.1853L14.8272-50.1853ZM32.2608-54.1755L47.4569-75.02L52.2575-71.4916L39.1908-53.604L65.2082-1.92606L59.8683 0.807263ZM58.8283-1.50511L83.9114-53.604L70.7846-71.5517L75.5852-75.0801L90.9037-54.1755L64.1682 1.22821Z"/>
  </g>
  <g id="Thin-M" transform="matrix(1 0 0 1 796.042 1126)">
   <path d="M11.2038-49.8319Q10.0517-51.0669 9.97391-52.0779Q9.89612-53.089 10.7887-54.3966L24.7449-74.0226Q25.3572-74.9151 25.9222-75.2157Q26.4872-75.5164 27.5769-75.5164L93.5576-75.5164Q94.7096-75.5164 95.2434-75.2469Q95.7772-74.9774 96.2753-74.0849L109.899-55.5387Q110.802-54.2934 110.766-53.3395Q110.73-52.3856 109.754-51.2129L61.6782 4.21456L11.2038-49.8319ZM107.041-53.4846L93.5801-71.9512L27.5647-71.9512L13.7304-52.3214L61.5226-1.09171ZM12.9644-55.0181L107.64-55.0181L107.64-51.3907L12.9644-51.3907ZM32.5238-54.066L47.2159-74.2091L50.0659-72.1053L36.6486-53.7135L63.1919-0.698761L59.9998 0.938759ZM59.2009 0.0290142L84.1744-53.7135L70.6531-72.2092L73.5031-74.3131L88.3615-54.066L62.393 1.66653Z"/>
  </g>
  <g id="Ultralight-M" transform="matrix(1 0 0 1 499.914 1126)">
   <path d="M11.0803-50.2472Q10.0292-51.3588 9.9683-52.1172Q9.90735-52.8757 10.7101-54.0486L24.6663-73.6746Q25.2225-74.4773 25.6135-74.6881Q26.0045-74.899 26.9932-74.899L92.9739-74.899Q94.0249-74.899 94.3847-74.7193Q94.7445-74.5396 95.1752-73.7369L108.822-55.1683Q109.624-54.0577 109.593-53.362Q109.562-52.6663 108.699-51.617L61.072 3.29408L11.0803-50.2472ZM107.243-53.4509L93.3107-72.5686L26.6554-72.5686L12.3497-52.2653L60.9502-0.171233ZM12.0102-54.4007L107.326-54.4007L107.326-52.0081L12.0102-52.0081ZM32.6585-54.0098L47.0924-73.7938L48.9433-72.4196L35.3464-53.7697L62.1592-0.0701429L60.0671 1.00611ZM59.3917 0.814787L84.3091-53.7697L70.5858-72.546L72.4367-73.9202L87.0593-54.0098L61.4838 1.89104Z"/>
  </g>
  <g id="Black-S" transform="matrix(1 0 0 1 2881.45 696)">
   <path d="M9.86328-43.457Q8.05664-45.459 7.86133-48.1201Q7.66602-50.7812 9.13086-52.9785L20.0684-68.3594Q21.0938-69.873 22.7539-70.7275Q24.4141-71.582 26.2207-71.582L77.9297-71.582Q79.7363-71.582 81.3721-70.752Q83.0078-69.9219 84.0332-68.4082L94.5801-54.0039Q96.1426-51.8555 96.0693-49.2188Q95.9961-46.582 94.2383-44.6289L53.0762 2.83203L9.86328-43.457ZM82.4219-49.8047L75.5371-59.2285L28.7109-59.2285L21.4844-49.0723L52.7344-15.625ZM16.748-52.0996L87.3535-52.0996L87.3535-46.5332L16.748-46.5332ZM28.2227-50.1465L40.0391-66.4062L44.9219-62.8906L35.2051-49.5605L54.9316-10.7422L49.5117-8.00781ZM49.0234-10.7422L68.7012-49.5605L58.9844-62.8906L63.8672-66.4062L75.7324-50.1465L54.4434-8.00781Z"/>
  </g>
  <g id="Heavy-S" transform="matrix(1 0 0 1 2585.36 696)">
   <path d="M9.70681-43.8828Q8.03238-45.7398 7.85526-48.1626Q7.67815-50.5854 9.03443-52.614L19.9719-67.9949Q20.9136-69.3885 22.4261-70.169Q23.9386-70.9495 25.6015-70.9495L77.3105-70.9495Q78.9849-70.9495 80.4729-70.1934Q81.961-69.4373 82.8906-68.0437L93.4502-53.6267Q94.892-51.6468 94.8248-49.2488Q94.7576-46.8507 93.1442-45.0425L52.4442 1.88347L9.70681-43.8828ZM82.6056-49.7683L75.2345-59.8611L27.763-59.8611L20.0615-49.0116L52.1273-14.6764ZM15.959-52.2737L86.8986-52.2737L86.8986-46.3591L15.959-46.3591ZM27.4694-50.155L39.4216-66.5912L44.481-62.9307L34.7199-49.5521L54.484-10.6391L48.87-7.79675ZM48.2502-10.6306L67.9479-49.5521L58.1856-62.9319L63.2449-66.5924L75.2472-50.155L53.8642-7.78826Z"/>
  </g>
  <g id="Bold-S" transform="matrix(1 0 0 1 2289.35 696)">
   <path d="M9.53176-44.3591Q8.00524-46.0539 7.84848-48.2101Q7.69171-50.3662 8.92655-52.2063L19.8641-67.5871Q20.7121-68.8464 22.0594-69.5441Q23.4067-70.2418 24.9088-70.2418L76.6178-70.2418Q78.1443-70.2418 79.4671-69.5685Q80.79-68.8952 81.6124-67.6359L92.1862-53.2047Q93.493-51.4134 93.4326-49.2824Q93.3722-47.1513 91.9202-45.5052L51.7373 0.822368L9.53176-44.3591ZM82.8112-49.7276L74.8959-60.5687L26.7026-60.5687L18.4699-48.9438L51.4481-13.6153ZM15.0763-52.4684L86.3898-52.4684L86.3898-46.1644L15.0763-46.1644ZM26.6267-50.1645L38.731-66.7982L43.9877-62.9754L34.1771-49.5426L53.9833-10.5237L48.1522-7.56065ZM47.3851-10.5058L67.1053-49.5426L57.2921-62.978L62.5488-66.8007L74.7045-50.1645L53.2162-7.54266Z"/>
  </g>
  <g id="Semibold-S" transform="matrix(1 0 0 1 1993.12 696)">
   <path d="M9.41109-44.6874Q7.98653-46.2705 7.8438-48.2428Q7.70107-50.2151 8.85218-51.9252L19.7897-67.306Q20.5732-68.4727 21.8066-69.1133Q23.04-69.754 24.4312-69.754L76.1402-69.754Q77.5648-69.754 78.7737-69.1377Q79.9827-68.5215 80.7312-67.3548L91.3148-52.9137Q92.5286-51.2525 92.4729-49.3055Q92.4171-47.3585 91.0765-45.8242L51.2499 0.0908512L9.41109-44.6874ZM82.9529-49.6995L74.6625-61.0566L25.9715-61.0566L17.3726-48.897L50.9799-12.8838ZM14.4678-52.6026L86.039-52.6026L86.039-46.0302L14.4678-46.0302ZM26.0458-50.171L38.2548-66.9408L43.6477-63.0063L33.8029-49.536L53.6382-10.4442L47.6574-7.39788ZM46.7888-10.4197L66.5244-49.536L56.6761-63.0098L62.0689-66.9443L74.3303-50.171L52.7696-7.37334Z"/>
  </g>
  <g id="Medium-S" transform="matrix(1 0 0 1 1696.77 696)">
   <path d="M9.31959-44.9364Q7.97235-46.4347 7.84025-48.2676Q7.70816-50.1006 8.7958-51.712L19.7333-67.0929Q20.4679-68.1893 21.6149-68.7867Q22.7619-69.3841 24.0691-69.3841L75.7781-69.3841Q77.1254-69.3841 78.248-68.8111Q79.3706-68.2381 80.063-67.1417L90.6541-52.6932Q91.7973-51.1306 91.7451-49.3231Q91.6929-47.5156 90.4367-46.0661L50.8803-0.463816L9.31959-44.9364ZM83.0604-49.6782L74.4856-61.4264L25.4172-61.4264L16.5406-48.8615L50.6249-12.3292ZM14.0064-52.7044L85.773-52.7044L85.773-45.9284L14.0064-45.9284ZM25.6054-50.176L37.8938-67.049L43.3899-63.0297L33.5192-49.531L53.3764-10.3839L47.2822-7.27447ZM46.3366-10.3544L66.0839-49.531L56.209-63.0339L61.7051-67.0532L74.0466-50.176L52.4309-7.24496Z"/>
  </g>
  <g id="Regular-S" transform="matrix(1 0 0 1 1400.54 696)">
   <path d="M9.20025-45.2611Q7.95384-46.6488 7.83563-48.3Q7.71741-49.9512 8.72225-51.434L19.6597-66.8149Q20.3305-67.8197 21.3649-68.3607Q22.3993-68.9016 23.5968-68.9016L75.3058-68.9016Q76.5522-68.9016 77.5622-68.3851Q78.5722-67.8685 79.1915-66.8637L89.7924-52.4054Q90.8434-50.9714 90.7959-49.346Q90.7484-47.7205 89.6022-46.3816L50.3983-1.18729L9.20025-45.2611ZM83.2006-49.6505L74.2547-61.9089L24.6942-61.9089L15.4554-48.8153L50.1619-11.6057ZM13.4046-52.8372L85.4261-52.8372L85.4261-45.7956L13.4046-45.7956ZM25.0308-50.1825L37.4229-67.1901L43.0536-63.0602L33.1492-49.5246L53.0351-10.3053L46.7928-7.11349ZM45.7468-10.2693L65.5094-49.5246L55.5998-63.0654L61.2305-67.1952L73.6765-50.1825L51.9891-7.07751Z"/>
  </g>
  <g id="Light-S" transform="matrix(1 0 0 1 1104.59 696)">
   <path d="M9.039-45.8035Q7.92453-47.03 7.8283-48.3513Q7.73207-49.6727 8.61963-50.9796L19.5571-66.3604Q20.1546-67.248 20.9618-67.6717Q21.7689-68.0954 22.8346-68.0954L74.5436-68.0954Q75.658-68.0954 76.4408-67.6961Q77.2236-67.2968 77.755-66.4093L88.3851-51.9217Q89.3043-50.6636 89.2641-49.3753Q89.2238-48.087 88.2243-46.9093L49.6068-2.38931L9.039-45.8035ZM83.4644-49.6065L73.9029-62.7152L23.5068-62.7152L13.6524-48.742L49.4143-10.4037ZM12.1586-52.0309L85.0156-52.0309L85.0156-46.6019L12.1586-46.6019ZM25.2067-50.1092L37.2617-66.6477L41.5877-63.4707L31.4487-49.5979L51.6865-9.48442L46.8807-7.02553ZM45.996-9.24322L65.6853-49.5979L55.5119-63.5051L59.8379-66.6822L71.9761-50.1092L50.8017-6.78433Z"/>
  </g>
  <g id="Thin-S" transform="matrix(1 0 0 1 808.888 696)">
   <path d="M8.82574-46.5208Q7.88575-47.534 7.81861-48.4192Q7.75146-49.3043 8.48392-50.3786L19.4214-65.7594Q19.9219-66.4919 20.4286-66.7605Q20.9353-67.0291 21.8264-67.0291L73.5354-67.0291Q74.4754-67.0291 74.9577-66.7849Q75.4399-66.5407 75.855-65.8083L86.5239-51.2819Q87.2686-50.2565 87.2381-49.4141Q87.2076-48.5716 86.4019-47.6072L48.5598-3.97907L8.82574-46.5208ZM83.8134-49.5484L73.4376-63.7815L21.9365-63.7815L11.2677-48.645L48.4256-8.8139ZM10.5107-50.9646L84.4728-50.9646L84.4728-47.6682L10.5107-47.6682ZM25.4394-50.0122L37.0484-65.9304L39.649-64.0135L29.1998-49.6948L49.9028-8.39873L46.997-6.90921ZM46.3256-7.8861L65.9179-49.6948L55.3955-64.0868L57.9961-66.0036L69.7272-50.0122L49.2314-6.39659Z"/>
  </g>
  <g id="Ultralight-S" transform="matrix(1 0 0 1 512.693 696)">
   <path d="M8.71651-46.8882Q7.86589-47.7922 7.81364-48.4539Q7.76139-49.1156 8.41441-50.0707L19.3519-65.4516Q19.8028-66.1046 20.1555-66.2938Q20.5083-66.4829 21.3101-66.4829L73.0191-66.4829Q73.8697-66.4829 74.198-66.3182Q74.5264-66.1535 74.8818-65.5004L85.5706-50.9542Q86.2259-50.0479 86.2004-49.4339Q86.1748-48.8199 85.4684-47.9647L48.0236-4.79334L8.71651-46.8882ZM83.9921-49.5186L73.1993-64.3276L21.1321-64.3276L10.0463-48.5954L47.9191-7.99963ZM9.66663-50.4185L84.1948-50.4185L84.1948-48.2143L9.66663-48.2143ZM25.5586-49.9626L36.9392-65.563L38.6559-64.2916L28.0479-49.7444L48.9892-7.84264L47.0566-6.84963ZM46.4944-7.191L66.0371-49.7444L55.336-64.3847L57.0527-65.656L68.5753-49.9626L48.427-6.19799Z"/>
  </g>
 </g>
</svg>
