<?xml version="1.0" encoding="UTF-8"?>
<!--Generator: Apple Native CoreSVG 149-->
<!DOCTYPE svg
PUBLIC "-//W3C//DTD SVG 1.1//EN"
       "http://www.w3.org/Graphics/SVG/1.1/DTD/svg11.dtd">
<svg version="1.1" xmlns="http://www.w3.org/2000/svg" xmlns:xlink="http://www.w3.org/1999/xlink" width="3300" height="2200">
 <!--glyph: "uni100F60.medium", point size: 100.000000, font version: "Version 17.0d3e2", template writer version: "8"-->
 <g id="Notes">
  <rect height="2200" id="artboard" style="fill:white;opacity:1" width="3300" x="0" y="0"/>
  <line id="" style="fill:none;stroke:black;opacity:1;stroke-width:0.5;" x1="263" x2="3036" y1="292" y2="292"/>
  <text style="stroke:none;fill:black;font-family:-apple-system,&quot;SF Pro Display&quot;,&quot;SF Pro Text&quot;,Helvetica,sans-serif;font-weight:bold;" transform="matrix(1 0 0 1 263 322)">Weight/Scale Variations</text>
  <text style="stroke:none;fill:black;font-family:-apple-system,&quot;SF Pro Display&quot;,&quot;SF Pro Text&quot;,Helvetica,sans-serif;text-anchor:middle;" transform="matrix(1 0 0 1 559.711 322)">Ultralight</text>
  <text style="stroke:none;fill:black;font-family:-apple-system,&quot;SF Pro Display&quot;,&quot;SF Pro Text&quot;,Helvetica,sans-serif;text-anchor:middle;" transform="matrix(1 0 0 1 856.422 322)">Thin</text>
  <text style="stroke:none;fill:black;font-family:-apple-system,&quot;SF Pro Display&quot;,&quot;SF Pro Text&quot;,Helvetica,sans-serif;text-anchor:middle;" transform="matrix(1 0 0 1 1153.13 322)">Light</text>
  <text style="stroke:none;fill:black;font-family:-apple-system,&quot;SF Pro Display&quot;,&quot;SF Pro Text&quot;,Helvetica,sans-serif;text-anchor:middle;" transform="matrix(1 0 0 1 1449.84 322)">Regular</text>
  <text style="stroke:none;fill:black;font-family:-apple-system,&quot;SF Pro Display&quot;,&quot;SF Pro Text&quot;,Helvetica,sans-serif;text-anchor:middle;" transform="matrix(1 0 0 1 1746.56 322)">Medium</text>
  <text style="stroke:none;fill:black;font-family:-apple-system,&quot;SF Pro Display&quot;,&quot;SF Pro Text&quot;,Helvetica,sans-serif;text-anchor:middle;" transform="matrix(1 0 0 1 2043.27 322)">Semibold</text>
  <text style="stroke:none;fill:black;font-family:-apple-system,&quot;SF Pro Display&quot;,&quot;SF Pro Text&quot;,Helvetica,sans-serif;text-anchor:middle;" transform="matrix(1 0 0 1 2339.98 322)">Bold</text>
  <text style="stroke:none;fill:black;font-family:-apple-system,&quot;SF Pro Display&quot;,&quot;SF Pro Text&quot;,Helvetica,sans-serif;text-anchor:middle;" transform="matrix(1 0 0 1 2636.69 322)">Heavy</text>
  <text style="stroke:none;fill:black;font-family:-apple-system,&quot;SF Pro Display&quot;,&quot;SF Pro Text&quot;,Helvetica,sans-serif;text-anchor:middle;" transform="matrix(1 0 0 1 2933.4 322)">Black</text>
  <line id="" style="fill:none;stroke:black;opacity:1;stroke-width:0.5;" x1="263" x2="3036" y1="1903" y2="1903"/>
  <g id="" transform="matrix(1 0 0 1 263 1933)">
   <path d="M9.24805 0.830078C13.5547 0.830078 17.1387-2.74414 17.1387-7.05078C17.1387-11.3574 13.5449-14.9316 9.23828-14.9316C4.94141-14.9316 1.36719-11.3574 1.36719-7.05078C1.36719-2.74414 4.95117 0.830078 9.24805 0.830078ZM9.24805-0.654297C5.70312-0.654297 2.87109-3.49609 2.87109-7.05078C2.87109-10.6055 5.69336-13.4473 9.23828-13.4473C12.793-13.4473 15.6348-10.6055 15.6445-7.05078C15.6543-3.49609 12.8027-0.654297 9.24805-0.654297ZM5.83984-7.04102C5.83984-6.61133 6.14258-6.31836 6.5918-6.31836L8.50586-6.31836L8.50586-4.39453C8.50586-3.95508 8.79883-3.65234 9.22852-3.65234C9.67773-3.65234 9.9707-3.95508 9.9707-4.39453L9.9707-6.31836L11.9043-6.31836C12.3438-6.31836 12.6465-6.61133 12.6465-7.04102C12.6465-7.48047 12.3438-7.7832 11.9043-7.7832L9.9707-7.7832L9.9707-9.69727C9.9707-10.1465 9.67773-10.4492 9.22852-10.4492C8.79883-10.4492 8.50586-10.1465 8.50586-9.69727L8.50586-7.7832L6.5918-7.7832C6.14258-7.7832 5.83984-7.48047 5.83984-7.04102Z"/>
  </g>
  <g id="" transform="matrix(1 0 0 1 281.506 1933)">
   <path d="M11.709 2.91016C17.1582 2.91016 21.6699-1.61133 21.6699-7.05078C21.6699-12.5 17.1484-17.0117 11.6992-17.0117C6.25977-17.0117 1.74805-12.5 1.74805-7.05078C1.74805-1.61133 6.26953 2.91016 11.709 2.91016ZM11.709 1.25C7.09961 1.25 3.41797-2.44141 3.41797-7.05078C3.41797-11.6602 7.08984-15.3516 11.6992-15.3516C16.3086-15.3516 20-11.6602 20.0098-7.05078C20.0195-2.44141 16.3184 1.25 11.709 1.25ZM7.39258-7.04102C7.39258-6.5625 7.73438-6.23047 8.23242-6.23047L10.8789-6.23047L10.8789-3.57422C10.8789-3.08594 11.2109-2.74414 11.6895-2.74414C12.1777-2.74414 12.5195-3.08594 12.5195-3.57422L12.5195-6.23047L15.1758-6.23047C15.6641-6.23047 16.0059-6.5625 16.0059-7.04102C16.0059-7.5293 15.6641-7.87109 15.1758-7.87109L12.5195-7.87109L12.5195-10.5176C12.5195-11.0156 12.1777-11.3574 11.6895-11.3574C11.2109-11.3574 10.8789-11.0156 10.8789-10.5176L10.8789-7.87109L8.23242-7.87109C7.73438-7.87109 7.39258-7.5293 7.39258-7.04102Z"/>
  </g>
  <g id="" transform="matrix(1 0 0 1 304.924 1933)">
   <path d="M14.9707 5.66406C21.9336 5.66406 27.6953-0.0976562 27.6953-7.05078C27.6953-14.0137 21.9238-19.7754 14.9609-19.7754C8.00781-19.7754 2.25586-14.0137 2.25586-7.05078C2.25586-0.0976562 8.01758 5.66406 14.9707 5.66406ZM14.9707 3.84766C8.93555 3.84766 4.08203-1.01562 4.08203-7.05078C4.08203-13.0957 8.92578-17.9492 14.9609-17.9492C21.0059-17.9492 25.8594-13.0957 25.8691-7.05078C25.8789-1.01562 21.0156 3.84766 14.9707 3.84766ZM9.45312-7.03125C9.45312-6.51367 9.83398-6.14258 10.3711-6.14258L14.0625-6.14258L14.0625-2.45117C14.0625-1.91406 14.4336-1.54297 14.9512-1.54297C15.4883-1.54297 15.8594-1.91406 15.8594-2.45117L15.8594-6.14258L19.5605-6.14258C20.0879-6.14258 20.4688-6.51367 20.4688-7.03125C20.4688-7.56836 20.0977-7.94922 19.5605-7.94922L15.8594-7.94922L15.8594-11.6309C15.8594-12.1875 15.4883-12.5586 14.9512-12.5586C14.4336-12.5586 14.0625-12.1777 14.0625-11.6309L14.0625-7.94922L10.3711-7.94922C9.82422-7.94922 9.45312-7.56836 9.45312-7.03125Z"/>
  </g>
  <text style="stroke:none;fill:black;font-family:-apple-system,&quot;SF Pro Display&quot;,&quot;SF Pro Text&quot;,Helvetica,sans-serif;font-weight:bold;" transform="matrix(1 0 0 1 263 1953)">Design Variations</text>
  <text style="stroke:none;fill:black;font-family:-apple-system,&quot;SF Pro Display&quot;,&quot;SF Pro Text&quot;,Helvetica,sans-serif;" transform="matrix(1 0 0 1 263 1971)">Symbols are supported in up to nine weights and three scales.</text>
  <text style="stroke:none;fill:black;font-family:-apple-system,&quot;SF Pro Display&quot;,&quot;SF Pro Text&quot;,Helvetica,sans-serif;" transform="matrix(1 0 0 1 263 1989)">For optimal layout with text and other symbols, vertically align</text>
  <text style="stroke:none;fill:black;font-family:-apple-system,&quot;SF Pro Display&quot;,&quot;SF Pro Text&quot;,Helvetica,sans-serif;" transform="matrix(1 0 0 1 263 2007)">symbols with the adjacent text.</text>
  <line id="" style="fill:none;stroke:#00AEEF;stroke-width:0.5;opacity:1.0;" x1="776" x2="776" y1="1919" y2="1933"/>
  <g id="" transform="matrix(1 0 0 1 776 1933)">
   <path d="M3.31055 0.15625C3.82812 0.15625 4.08203-0.0390625 4.26758-0.585938L5.52734-4.0332L11.2891-4.0332L12.5488-0.585938C12.7344-0.0390625 12.9883 0.15625 13.4961 0.15625C14.0137 0.15625 14.3457-0.15625 14.3457-0.644531C14.3457-0.810547 14.3164-0.966797 14.2383-1.17188L9.6582-13.3691C9.43359-13.9648 9.0332-14.2676 8.4082-14.2676C7.80273-14.2676 7.39258-13.9746 7.17773-13.3789L2.59766-1.16211C2.51953-0.957031 2.49023-0.800781 2.49023-0.634766C2.49023-0.146484 2.80273 0.15625 3.31055 0.15625ZM6.00586-5.51758L8.37891-12.0898L8.42773-12.0898L10.8008-5.51758Z"/>
  </g>
  <line id="" style="fill:none;stroke:#00AEEF;stroke-width:0.5;opacity:1.0;" x1="792.836" x2="792.836" y1="1919" y2="1933"/>
  <text style="stroke:none;fill:black;font-family:-apple-system,&quot;SF Pro Display&quot;,&quot;SF Pro Text&quot;,Helvetica,sans-serif;font-weight:bold;" transform="matrix(1 0 0 1 776 1953)">Margins</text>
  <text style="stroke:none;fill:black;font-family:-apple-system,&quot;SF Pro Display&quot;,&quot;SF Pro Text&quot;,Helvetica,sans-serif;" transform="matrix(1 0 0 1 776 1971)">Leading and trailing margins on the left and right side of each symbol</text>
  <text style="stroke:none;fill:black;font-family:-apple-system,&quot;SF Pro Display&quot;,&quot;SF Pro Text&quot;,Helvetica,sans-serif;" transform="matrix(1 0 0 1 776 1989)">can be adjusted by modifying the x-location of the margin guidelines.</text>
  <text style="stroke:none;fill:black;font-family:-apple-system,&quot;SF Pro Display&quot;,&quot;SF Pro Text&quot;,Helvetica,sans-serif;" transform="matrix(1 0 0 1 776 2007)">Modifications are automatically applied proportionally to all</text>
  <text style="stroke:none;fill:black;font-family:-apple-system,&quot;SF Pro Display&quot;,&quot;SF Pro Text&quot;,Helvetica,sans-serif;" transform="matrix(1 0 0 1 776 2025)">scales and weights.</text>
  <g id="" transform="matrix(1 0 0 1 1289 1933)">
   <path d="M2.8418 1.86523L4.54102 3.57422C5.40039 4.44336 6.38672 4.38477 7.31445 3.35938L17.4902-7.85156C17.7539-7.76367 18.0273-7.7832 18.3398-7.8418L19.4043-8.03711L20.0684-7.36328L20.0293-6.80664C19.9902-6.30859 20.1172-5.92773 20.6055-5.44922L21.3672-4.70703C21.8457-4.22852 22.4609-4.19922 22.9297-4.66797L25.8398-7.58789C26.3086-8.05664 26.2891-8.65234 25.8105-9.13086L25.0391-9.89258C24.5605-10.3711 24.1895-10.5273 23.7109-10.4883L23.1348-10.4395L22.4902-11.0742L22.7344-12.1973C22.8613-12.7637 22.7051-13.2031 22.1191-13.7891L19.9219-15.9766C16.582-19.2969 12.1484-19.2188 9.25781-16.3281C8.83789-15.918 8.80859-15.3418 9.04297-14.9512C9.27734-14.5898 9.73633-14.3555 10.3809-14.5215C11.8457-14.8633 13.3691-14.9219 14.7949-13.9844L14.209-12.5293C14.0137-12.0508 13.9844-11.6504 14.1113-11.2891L3.04688-0.898438C2.06055 0.0195312 1.98242 0.996094 2.8418 1.86523ZM10.752-15.957C13.1836-17.7344 16.4746-17.4316 18.7012-15.2051L21.1328-12.793C21.3672-12.5586 21.4062-12.373 21.3379-12.0312L21.0156-10.5469L22.5195-9.0625L23.5059-9.12109C23.7598-9.13086 23.8379-9.11133 24.0332-8.91602L24.6094-8.33984L22.168-5.89844L21.5918-6.47461C21.3965-6.66992 21.3672-6.74805 21.377-7.01172L21.4453-7.98828L19.9512-9.47266L18.4277-9.21875C18.1055-9.15039 17.959-9.17969 17.7148-9.41406L15.7129-11.416C15.459-11.6504 15.4297-11.8164 15.5859-12.1875L16.4648-14.2773C14.9023-15.7324 12.8711-16.3574 10.8398-15.7617C10.6836-15.7227 10.625-15.8496 10.752-15.957ZM5.27344 2.30469L4.10156 1.14258C3.63281 0.683594 3.74023 0.341797 4.14062-0.0195312L14.9512-10.1953L16.416-8.71094L6.42578 2.27539C6.07422 2.67578 5.74219 2.77344 5.27344 2.30469Z"/>
  </g>
  <text style="stroke:none;fill:black;font-family:-apple-system,&quot;SF Pro Display&quot;,&quot;SF Pro Text&quot;,Helvetica,sans-serif;font-weight:bold;" transform="matrix(1 0 0 1 1289 1953)">Exporting</text>
  <text style="stroke:none;fill:black;font-family:-apple-system,&quot;SF Pro Display&quot;,&quot;SF Pro Text&quot;,Helvetica,sans-serif;" transform="matrix(1 0 0 1 1289 1971)">Symbols should be outlined when exporting to ensure the</text>
  <text style="stroke:none;fill:black;font-family:-apple-system,&quot;SF Pro Display&quot;,&quot;SF Pro Text&quot;,Helvetica,sans-serif;" transform="matrix(1 0 0 1 1289 1989)">design is preserved when submitting to Xcode.</text>
  <text id="template-version" style="stroke:none;fill:black;font-family:-apple-system,&quot;SF Pro Display&quot;,&quot;SF Pro Text&quot;,Helvetica,sans-serif;text-anchor:end;" transform="matrix(1 0 0 1 3036 1933)">Template v.2.0</text>
  <text style="stroke:none;fill:black;font-family:-apple-system,&quot;SF Pro Display&quot;,&quot;SF Pro Text&quot;,Helvetica,sans-serif;text-anchor:end;" transform="matrix(1 0 0 1 3036 1951)">Requires Xcode 12 or greater</text>
  <text style="stroke:none;fill:black;font-family:-apple-system,&quot;SF Pro Display&quot;,&quot;SF Pro Text&quot;,Helvetica,sans-serif;text-anchor:end;" transform="matrix(1 0 0 1 3036 1969)">Generated from xcode.json</text>
  <text style="stroke:none;fill:black;font-family:-apple-system,&quot;SF Pro Display&quot;,&quot;SF Pro Text&quot;,Helvetica,sans-serif;text-anchor:end;" transform="matrix(1 0 0 1 3036 1987)">Typeset at 100 points</text>
  <text style="stroke:none;fill:black;font-family:-apple-system,&quot;SF Pro Display&quot;,&quot;SF Pro Text&quot;,Helvetica,sans-serif;" transform="matrix(1 0 0 1 263 726)">Small</text>
  <text style="stroke:none;fill:black;font-family:-apple-system,&quot;SF Pro Display&quot;,&quot;SF Pro Text&quot;,Helvetica,sans-serif;" transform="matrix(1 0 0 1 263 1156)">Medium</text>
  <text style="stroke:none;fill:black;font-family:-apple-system,&quot;SF Pro Display&quot;,&quot;SF Pro Text&quot;,Helvetica,sans-serif;" transform="matrix(1 0 0 1 263 1586)">Large</text>
 </g>
 <g id="Guides">
  <g id="H-reference" style="fill:#27AAE1;stroke:none;" transform="matrix(1 0 0 1 339 696)">
   <path d="M4.05273 0L6.68945 0L16.0645-24.4629L48.7793-24.4629L58.1543 0L60.791 0L33.6914-70.459L31.1523-70.459ZM32.3242-66.9434L32.5195-66.9434L47.9004-26.709L16.9434-26.709Z"/>
  </g>
  <line id="Baseline-S" style="fill:none;stroke:#27AAE1;opacity:1;stroke-width:0.5;" x1="263" x2="3036" y1="696" y2="696"/>
  <line id="Capline-S" style="fill:none;stroke:#27AAE1;opacity:1;stroke-width:0.5;" x1="263" x2="3036" y1="625.541" y2="625.541"/>
  <g id="H-reference" style="fill:#27AAE1;stroke:none;" transform="matrix(1 0 0 1 339 1126)">
   <path d="M4.05273 0L6.68945 0L16.0645-24.4629L48.7793-24.4629L58.1543 0L60.791 0L33.6914-70.459L31.1523-70.459ZM32.3242-66.9434L32.5195-66.9434L47.9004-26.709L16.9434-26.709Z"/>
  </g>
  <line id="Baseline-M" style="fill:none;stroke:#27AAE1;opacity:1;stroke-width:0.5;" x1="263" x2="3036" y1="1126" y2="1126"/>
  <line id="Capline-M" style="fill:none;stroke:#27AAE1;opacity:1;stroke-width:0.5;" x1="263" x2="3036" y1="1055.54" y2="1055.54"/>
  <g id="H-reference" style="fill:#27AAE1;stroke:none;" transform="matrix(1 0 0 1 339 1556)">
   <path d="M4.05273 0L6.68945 0L16.0645-24.4629L48.7793-24.4629L58.1543 0L60.791 0L33.6914-70.459L31.1523-70.459ZM32.3242-66.9434L32.5195-66.9434L47.9004-26.709L16.9434-26.709Z"/>
  </g>
  <line id="Baseline-L" style="fill:none;stroke:#27AAE1;opacity:1;stroke-width:0.5;" x1="263" x2="3036" y1="1556" y2="1556"/>
  <line id="Capline-L" style="fill:none;stroke:#27AAE1;opacity:1;stroke-width:0.5;" x1="263" x2="3036" y1="1485.54" y2="1485.54"/>
  <line id="left-margin" style="fill:none;stroke:#00AEEF;stroke-width:0.5;opacity:1.0;" x1="1377.77" x2="1377.77" y1="1030.79" y2="1150.12"/>
  <line id="right-margin" style="fill:none;stroke:#00AEEF;stroke-width:0.5;opacity:1.0;" x1="1521.91" x2="1521.91" y1="1030.79" y2="1150.12"/>
 </g>
 <g id="Symbols">
  <g id="Black-L" transform="matrix(1 0 0 1 2824.71 1556)">
   <path d="M154.883 24.6094C173.438 24.6094 181.689 17.4316 181.689-0.927734L181.689-10.1074C181.689-18.7988 184.912-22.9492 193.359-25C198.438-26.2695 201.318-29.6387 201.318-35.2051C201.318-40.6738 198.389-43.9941 193.359-45.3125C185.107-47.4609 181.689-51.3184 181.689-60.1562L181.689-69.2383C181.689-92.5781 164.404-96.9727 149.951-94.1895C145.215-93.1152 143.018-90.918 143.018-87.1582C143.018-82.2754 145.801-81.0059 150.146-80.4688C158.398-79.541 161.475-75.5371 161.475-66.6016L161.475-53.8574C161.475-44.5312 167.627-37.4023 177.979-36.4746C181.152-36.377 181.055-34.082 178.027-33.7402C167.627-32.959 161.475-25.7324 161.475-16.3574L161.475-3.71094C161.475 8.30078 158.643 7.27539 147.9 10.7422C144.336 11.8164 143.018 13.3789 143.018 16.9434C143.018 22.998 149.023 24.6094 154.883 24.6094ZM62.5 24.6094C68.4082 24.6094 74.3652 22.998 74.3652 16.9434C74.3652 13.3789 73.0469 11.8164 69.4824 10.7422C58.7891 7.27539 55.957 8.30078 55.957-3.71094L55.957-16.3574C55.957-25.7324 49.8047-32.959 39.3555-33.7402C36.3281-34.082 36.2305-36.377 39.4531-36.4746C49.8047-37.4023 55.957-44.5312 55.957-53.8574L55.957-66.6016C55.957-75.5371 58.9844-79.541 67.2363-80.4688C71.582-81.0059 74.3652-82.2754 74.3652-87.1582C74.3652-90.918 72.168-93.1152 67.4316-94.1895C52.9785-96.9727 35.6934-92.5781 35.6934-69.2383L35.6934-60.1562C35.6934-51.3184 32.2754-47.4609 24.0234-45.3125C18.9941-43.9941 16.0645-40.6738 16.0645-35.2051C16.0645-29.6387 18.9453-26.2695 24.0234-25C32.4707-22.9492 35.6934-18.7988 35.6934-10.1074L35.6934-0.927734C35.6934 17.4316 43.9941 24.6094 62.5 24.6094ZM128.711-9.96094C138.037-9.96094 145.459-16.6992 145.459-25.8789C145.459-34.7656 139.355-41.0156 131.543-41.0156C128.076-41.0156 124.854-40.0879 122.314-37.5977C124.365-44.3359 130.322-48.877 138.721-49.5117C141.504-49.707 143.75-52.1484 143.75-54.8828C143.75-58.1055 140.918-60.4492 137.109-60.4492C122.754-60.4492 109.863-48.584 109.863-31.5918C109.863-18.5547 117.48-9.96094 128.711-9.96094ZM86.5723-9.96094C95.9473-9.96094 103.369-16.6992 103.369-25.8789C103.369-34.7656 97.2656-41.0156 89.4043-41.0156C85.9375-41.0156 82.7148-40.0879 80.2246-37.5977C82.2754-44.3359 88.2324-48.877 96.6797-49.5117C99.4629-49.707 101.66-52.1484 101.66-54.8828C101.66-58.1055 98.7305-60.4492 94.9707-60.4492C80.6641-60.4492 67.7734-48.584 67.7734-31.5918C67.7734-18.5547 75.3418-9.96094 86.5723-9.96094Z"/>
  </g>
  <g id="Heavy-L" transform="matrix(1 0 0 1 2532.03 1556)">
   <path d="M148.926 23.877C166.748 23.877 174.561 16.748 174.561-0.878906L174.561-11.5723C174.561-20.3613 177.734-24.2188 185.742-26.0742C190.625-27.1484 193.262-30.2734 193.262-35.2539C193.262-40.1367 190.527-43.1641 185.742-44.2871C177.881-46.2402 174.561-49.8535 174.561-58.7402L174.561-69.3359C174.561-90.6738 159.863-95.8008 145.264-93.6523C140.967-92.8711 138.77-90.918 138.77-87.3535C138.77-82.9102 141.309-81.7871 145.215-81.3477C153.76-80.5176 157.031-76.416 157.031-67.1387L157.031-53.0762C157.031-43.7012 162.988-36.8652 172.998-36.1816C175.439-36.1816 175.391-34.3262 173.047-34.082C162.988-33.5938 157.031-26.6113 157.031-17.0898L157.031-3.22266C157.031 8.59375 153.955 8.39844 143.213 11.4258C139.99 12.3535 138.77 13.7695 138.77 17.041C138.77 22.4121 143.896 23.877 148.926 23.877ZM60.4004 23.877C65.4297 23.877 70.5078 22.4121 70.5078 17.041C70.5078 13.7695 69.3359 12.3535 66.1133 11.4258C55.3711 8.39844 52.2949 8.59375 52.2949-3.22266L52.2949-17.0898C52.2949-26.6113 46.3379-33.5938 36.2793-34.082C33.9355-34.3262 33.8379-36.1816 36.3281-36.1816C46.3379-36.8652 52.2949-43.7012 52.2949-53.0762L52.2949-67.1387C52.2949-76.416 55.5664-80.5176 64.1113-81.3477C67.9688-81.7871 70.5078-82.9102 70.5078-87.3535C70.5078-90.918 68.3105-92.8711 64.0625-93.6523C49.4629-95.8008 34.7168-90.6738 34.7168-69.3359L34.7168-58.7402C34.7168-49.8535 31.4453-46.2402 23.5352-44.2871C18.75-43.1641 16.0645-40.1367 16.0645-35.2539C16.0645-30.2734 18.7012-27.1484 23.5352-26.0742C31.5918-24.2188 34.7168-20.3613 34.7168-11.5723L34.7168-0.878906C34.7168 16.748 42.5781 23.877 60.4004 23.877ZM124.219-10.5469C133.154-10.5469 140.332-16.9922 140.332-25.9277C140.332-34.5703 134.424-40.5762 126.709-40.5762C123.096-40.5762 119.873-39.4531 117.529-36.8164C119.482-44.2383 125.781-49.2188 134.375-49.7559C137.012-49.9023 139.062-52.1484 139.062-54.7363C139.062-57.7637 136.426-59.8633 132.861-59.8633C118.652-59.8633 105.957-47.998 105.957-31.3965C105.957-18.7988 113.477-10.5469 124.219-10.5469ZM83.2031-10.5469C92.1875-10.5469 99.3652-16.9922 99.3652-25.9277C99.3652-34.5703 93.457-40.5762 85.6445-40.5762C82.0801-40.5762 78.8574-39.4531 76.5137-36.8164C78.5156-44.2383 84.7656-49.2188 93.4082-49.7559C96.0449-49.9512 98.0957-52.1484 98.0957-54.7363C98.0957-57.7637 95.3613-59.8633 91.8945-59.8633C77.6367-59.8633 64.9414-47.998 64.9414-31.3965C64.9414-18.7988 72.4609-10.5469 83.2031-10.5469Z"/>
  </g>
  <g id="Bold-L" transform="matrix(1 0 0 1 2239.83 1556)">
   <path d="M58.0078 23.0469C62.1094 23.0469 66.2109 21.8262 66.2109 17.1875C66.2109 14.2578 65.1855 12.9395 62.3535 12.207C51.5625 9.7168 48.2422 8.88672 48.2422-2.68555L48.2422-17.8711C48.2422-27.5879 42.4805-34.3262 32.7637-34.4727C31.25-34.668 31.2012-35.9375 32.8125-35.8398C42.4805-36.2793 48.2422-42.8223 48.2422-52.1973L48.2422-67.7734C48.2422-77.4414 51.7578-81.6406 60.5469-82.2754C63.9648-82.6172 66.2109-83.5938 66.2109-87.5977C66.2109-90.918 64.0137-92.5781 60.2539-93.1152C45.5078-94.4824 33.6914-88.5254 33.6914-69.4824L33.6914-57.1777C33.6914-48.2422 30.4688-44.873 22.998-43.1641C18.5547-42.2852 16.0645-39.502 16.0645-35.3027C16.0645-30.957 18.457-28.125 22.998-27.2949C30.5664-25.6348 33.6914-22.0703 33.6914-13.1836L33.6914-0.830078C33.6914 15.9668 41.0156 23.0469 58.0078 23.0469ZM142.285 23.0469C159.229 23.0469 166.602 15.9668 166.602-0.830078L166.602-13.1836C166.602-22.0703 169.678-25.6348 177.295-27.2949C181.836-28.125 184.229-30.957 184.229-35.3027C184.229-39.502 181.738-42.2852 177.295-43.1641C169.775-44.873 166.602-48.2422 166.602-57.1777L166.602-69.4824C166.602-88.5254 154.785-94.4824 140.039-93.1152C136.279-92.5781 134.033-90.918 134.033-87.5977C134.033-83.5938 136.328-82.6172 139.697-82.2754C148.535-81.6406 152.051-77.4414 152.051-67.7734L152.051-52.1973C152.051-42.8223 157.812-36.2793 167.48-35.8398C169.092-35.9375 168.994-34.668 167.48-34.4727C157.812-34.3262 152.051-27.5879 152.051-17.8711L152.051-2.68555C152.051 8.88672 148.73 9.7168 137.939 12.207C135.107 12.9395 134.033 14.2578 134.033 17.1875C134.033 21.8262 138.184 23.0469 142.285 23.0469ZM119.238-11.2305C127.734-11.2305 134.668-17.334 134.668-25.9766C134.668-34.3262 128.906-40.0879 121.289-40.0879C117.529-40.0879 114.307-38.7207 112.158-35.9375C114.062-44.1406 120.703-49.6094 129.492-50C131.934-50.1465 133.838-52.1484 133.838-54.541C133.838-57.4219 131.445-59.2285 128.174-59.2285C114.062-59.2285 101.562-47.3633 101.562-31.2012C101.562-19.1406 108.936-11.2305 119.238-11.2305ZM79.4434-11.2305C87.9883-11.2305 94.873-17.334 94.873-25.9766C94.873-34.3262 89.1602-40.0879 81.4941-40.0879C77.7344-40.0879 74.5605-38.7207 72.3633-35.9375C74.2676-44.1406 80.9082-49.5605 89.7949-50C92.2363-50.1953 94.0918-52.1484 94.0918-54.541C94.0918-57.4219 91.6016-59.2285 88.3789-59.2285C74.2676-59.2285 61.8164-47.3633 61.8164-31.2012C61.8164-19.1406 69.1895-11.2305 79.4434-11.2305Z"/>
  </g>
  <g id="Semibold-L" transform="matrix(1 0 0 1 1946.25 1556)">
   <path d="M56.3477 22.5098C59.8145 22.5098 63.2812 21.3867 63.2812 17.2363C63.2812 14.5996 62.3047 13.3301 59.7168 12.7441C48.9258 10.5957 45.4102 9.13086 45.4102-2.34375L45.4102-18.4082C45.4102-28.2227 39.7949-34.8145 30.3711-34.7656C29.4434-34.8633 29.3945-35.791 30.4199-35.5957C39.7949-35.8887 45.4102-42.1875 45.4102-51.6113L45.4102-68.2129C45.4102-78.125 49.1211-82.4219 58.1543-82.9102C61.2305-83.1543 63.2812-84.082 63.2812-87.7441C63.2812-90.8691 61.0352-92.3828 57.6172-92.7246C42.7734-93.6035 32.959-87.0117 32.959-69.5801L32.959-56.1035C32.959-47.1191 29.834-43.9453 22.6074-42.3828C18.3594-41.6504 16.0645-39.0625 16.0645-35.3027C16.0645-31.4453 18.3105-28.8086 22.6074-28.125C29.8828-26.6113 32.959-23.291 32.959-14.3066L32.959-0.830078C32.959 15.4297 39.9902 22.5098 56.3477 22.5098ZM137.695 22.5098C154.102 22.5098 161.084 15.4297 161.084-0.830078L161.084-14.3066C161.084-23.291 164.16-26.6113 171.436-28.125C175.781-28.8086 177.979-31.4453 177.979-35.3027C177.979-39.0625 175.684-41.6504 171.436-42.3828C164.209-43.9453 161.084-47.1191 161.084-56.1035L161.084-69.5801C161.084-87.0117 151.27-93.6035 136.426-92.7246C133.008-92.3828 130.811-90.8691 130.811-87.7441C130.811-84.082 132.861-83.1543 135.889-82.9102C144.922-82.4219 148.633-78.125 148.633-68.2129L148.633-51.6113C148.633-42.1875 154.248-35.8887 163.623-35.5957C164.648-35.791 164.648-34.8633 163.672-34.7656C154.248-34.8145 148.633-28.2227 148.633-18.4082L148.633-2.34375C148.633 9.13086 145.117 10.5957 134.326 12.7441C131.738 13.3301 130.811 14.5996 130.811 17.2363C130.811 21.3867 134.229 22.5098 137.695 22.5098ZM115.82-11.6699C123.975-11.6699 130.713-17.5781 130.713-26.0254C130.713-34.1309 125.098-39.7461 117.529-39.7461C113.721-39.7461 110.498-38.2324 108.447-35.3516C110.303-44.0918 117.188-49.8535 126.074-50.1953C128.467-50.293 130.225-52.1484 130.225-54.3945C130.225-57.1289 127.979-58.7891 124.902-58.7891C110.889-58.7891 98.5352-46.9238 98.5352-31.0547C98.5352-19.3359 105.859-11.6699 115.82-11.6699ZM76.8066-11.6699C85.0586-11.6699 91.7969-17.5781 91.7969-26.0254C91.7969-34.1309 86.2305-39.7461 78.6133-39.7461C74.7559-39.7461 71.582-38.2324 69.4824-35.3516C71.3379-44.0918 78.2227-49.8535 87.2559-50.1953C89.5996-50.3418 91.3086-52.1484 91.3086-54.3945C91.3086-57.1289 89.0137-58.7891 85.9863-58.7891C71.9238-58.7891 59.668-46.9238 59.668-31.0547C59.668-19.3359 66.9434-11.6699 76.8066-11.6699Z"/>
  </g>
  <g id="Medium-L" transform="matrix(1 0 0 1 1651.9 1556)">
   <path d="M55.127 22.0703C58.1055 22.0703 61.0352 21.0449 61.0352 17.334C61.0352 14.8438 60.1562 13.6719 57.7637 13.1348C46.9238 11.2793 43.2617 9.27734 43.2617-2.05078L43.2617-18.8477C43.2617-28.7109 37.793-35.2051 28.5645-34.9609C28.0273-35.0098 28.0273-35.6934 28.5645-35.4004C37.793-35.5469 43.2617-41.748 43.2617-51.123L43.2617-68.5547C43.2617-78.6621 47.1191-82.959 56.2988-83.3984C59.1309-83.5938 61.0352-84.4238 61.0352-87.8418C61.0352-90.8691 58.7891-92.2363 55.6641-92.3828C40.7227-92.9199 32.373-85.8887 32.373-69.6289L32.373-55.3223C32.373-46.2891 29.3457-43.2129 22.3145-41.748C18.2617-41.1621 16.0645-38.7695 16.0645-35.3516C16.0645-31.7871 18.1641-29.2969 22.3145-28.7109C29.3945-27.3438 32.373-24.1699 32.373-15.1367L32.373-0.830078C32.373 15.0391 39.1602 22.0703 55.127 22.0703ZM134.18 22.0703C150.195 22.0703 156.934 15.0391 156.934-0.830078L156.934-15.1367C156.934-24.1699 159.961-27.3438 166.992-28.7109C171.191-29.2969 173.242-31.7871 173.242-35.3516C173.242-38.7695 171.094-41.1621 166.992-41.748C160.01-43.2129 156.934-46.2891 156.934-55.3223L156.934-69.6289C156.934-85.8887 148.633-92.9199 133.691-92.3828C130.518-92.2363 128.32-90.8691 128.32-87.8418C128.32-84.4238 130.225-83.5938 133.008-83.3984C142.188-82.959 146.045-78.6621 146.045-68.5547L146.045-51.123C146.045-41.748 151.562-35.5469 160.742-35.4004C161.328-35.6934 161.328-35.0098 160.742-34.9609C151.562-35.2051 146.045-28.7109 146.045-18.8477L146.045-2.05078C146.045 9.27734 142.383 11.2793 131.543 13.1348C129.199 13.6719 128.32 14.8438 128.32 17.334C128.32 21.0449 131.25 22.0703 134.18 22.0703ZM113.184-12.0117C121.143-12.0117 127.734-17.7734 127.734-26.0254C127.734-34.0332 122.217-39.4531 114.697-39.4531C110.84-39.4531 107.568-37.8418 105.664-34.9121C107.471-44.043 114.551-50.0977 123.535-50.3418C125.83-50.4395 127.49-52.1484 127.49-54.2969C127.49-56.9336 125.391-58.4473 122.412-58.4473C108.447-58.4473 96.2891-46.582 96.2891-30.957C96.2891-19.4824 103.467-12.0117 113.184-12.0117ZM74.8535-12.0117C82.8613-12.0117 89.502-17.7734 89.502-26.0254C89.502-34.0332 83.9844-39.4531 76.416-39.4531C72.4609-39.4531 69.3359-37.8418 67.334-34.8633C69.1406-44.043 76.2207-50.0488 85.3516-50.3418C87.5977-50.4883 89.2578-52.1484 89.2578-54.2969C89.2578-56.9336 87.0605-58.4473 84.1797-58.4473C70.166-58.4473 58.0078-46.582 58.0078-30.957C58.0078-19.4824 65.2344-12.0117 74.8535-12.0117Z"/>
  </g>
  <g id="Regular-L" transform="matrix(1 0 0 1 1358.27 1556)">
   <path d="M129.639 21.5332C145.068 21.5332 151.514 14.502 151.514-0.78125L151.514-16.2598C151.514-25.3418 154.492-28.3203 161.23-29.541C165.186-29.9805 167.09-32.2754 167.09-35.3516C167.09-38.3301 165.088-40.5273 161.23-41.0156C154.492-42.2852 151.514-45.166 151.514-54.248L151.514-69.6777C151.514-84.4238 145.166-92.041 130.127-92.041C127.295-92.041 125.098-90.8691 125.098-87.9883C125.098-84.9121 126.807-84.1797 129.248-84.0332C138.623-83.7402 142.676-79.3457 142.676-68.9453L142.676-50.5371C142.676-41.6992 147.363-35.9375 155.322-35.2051C147.363-34.8633 142.676-28.7598 142.676-19.3848L142.676-1.66016C142.676 9.52148 138.818 12.1582 127.979 13.6719C125.879 14.0625 125.098 15.1367 125.098 17.3828C125.098 20.6055 127.344 21.5332 129.639 21.5332ZM53.5156 21.5332C55.8594 21.5332 58.1055 20.6055 58.1055 17.3828C58.1055 15.1367 57.3242 14.0625 55.1758 13.6719C44.3359 12.1582 40.5273 9.52148 40.5273-1.66016L40.5273-19.3848C40.5273-28.7598 35.791-34.8633 27.832-35.2051C35.791-35.9375 40.5273-41.6992 40.5273-50.5371L40.5273-68.9453C40.5273-79.3457 44.5312-83.7402 53.9062-84.0332C56.3965-84.1797 58.1055-84.9121 58.1055-87.9883C58.1055-90.8691 55.8594-92.041 53.0762-92.041C38.0371-92.041 31.6895-84.4238 31.6895-69.6777L31.6895-54.248C31.6895-45.166 28.7109-42.2852 21.9727-41.0156C18.0664-40.5273 16.0645-38.3301 16.0645-35.3516C16.0645-32.2754 17.9688-29.9805 21.9727-29.541C28.7109-28.3203 31.6895-25.3418 31.6895-16.2598L31.6895-0.78125C31.6895 14.502 38.0859 21.5332 53.5156 21.5332ZM109.766-12.5C117.432-12.5 123.877-17.9688 123.877-26.0742C123.877-33.8379 118.457-39.1113 111.035-39.1113C107.031-39.1113 103.809-37.3535 102.002-34.3262C103.76-43.9453 111.084-50.3418 120.215-50.5371C122.363-50.5859 123.926-52.1973 123.926-54.1992C123.926-56.6895 121.973-58.0078 119.189-58.0078C105.322-58.0078 93.2617-46.1426 93.2617-30.8594C93.2617-19.7266 100.391-12.5 109.766-12.5ZM72.3145-12.5C79.9805-12.5 86.4258-17.9688 86.4258-26.0742C86.4258-33.8379 81.0547-39.1113 73.584-39.1113C69.5312-39.1113 66.4062-37.3535 64.502-34.2773C66.2598-43.9453 73.584-50.293 82.8613-50.5371C85.0098-50.6348 86.5234-52.1973 86.5234-54.1992C86.5234-56.6895 84.4727-58.0078 81.8359-58.0078C67.8711-58.0078 55.8594-46.1426 55.8594-30.8594C55.8594-19.7266 62.9883-12.5 72.3145-12.5Z"/>
  </g>
  <g id="Light-L" transform="matrix(1 0 0 1 1063.46 1556)">
   <path d="M126.66 20.6543C141.797 20.6543 147.51 14.0625 147.51-0.976562L147.51-16.7969C147.51-26.3184 150.977-29.1992 157.91-30.5664C161.523-30.8105 163.281-32.8125 163.281-35.3516C163.281-37.7441 161.426-39.6973 157.91-39.9902C150.977-41.3574 147.51-44.2383 147.51-53.7109L147.51-69.5312C147.51-83.6426 141.895-91.1621 126.953-91.1621C124.756-91.1621 123.193-90.1855 123.193-88.0859C123.193-85.5469 124.316-85.0586 126.416-84.9609C136.084-84.7656 140.771-79.8828 140.771-69.043L140.771-50.293C140.771-41.6992 145.605-35.9375 153.516-35.2051C145.605-34.7168 140.771-28.7598 140.771-19.2871L140.771-1.5625C140.771 9.76562 136.23 13.5742 125.635 14.5508C123.73 14.7949 123.193 15.4785 123.193 17.4805C123.193 20.0684 124.561 20.6543 126.66 20.6543ZM52.6855 20.6543C54.7852 20.6543 56.1523 20.0684 56.1523 17.4805C56.1523 15.4785 55.6152 14.7949 53.7109 14.5508C43.1152 13.5742 38.5742 9.76562 38.5742-1.5625L38.5742-19.2871C38.5742-28.7598 33.7402-34.7168 25.8301-35.2051C33.7402-35.9375 38.5742-41.6992 38.5742-50.293L38.5742-69.043C38.5742-79.8828 43.2617-84.7656 52.9297-84.9609C55.0293-85.0586 56.1523-85.5469 56.1523-88.0859C56.1523-90.1855 54.5898-91.1621 52.3926-91.1621C37.4512-91.1621 31.8359-83.6426 31.8359-69.5312L31.8359-53.7109C31.8359-44.2383 28.3691-41.3574 21.4355-39.9902C17.9199-39.6973 16.0645-37.7441 16.0645-35.3516C16.0645-32.8125 17.8223-30.8105 21.4355-30.5664C28.3691-29.1992 31.8359-26.3184 31.8359-16.7969L31.8359-0.976562C31.8359 14.0625 37.5488 20.6543 52.6855 20.6543ZM107.08-13.0371C114.404-13.0371 120.557-18.7012 120.557-26.3672C120.557-33.7891 115.332-39.1113 107.812-39.1113C103.613-39.1113 100.098-37.0117 98.291-33.7402C99.9023-44.2871 107.764-51.1719 117.139-51.2695C118.994-51.3184 120.264-52.6367 120.264-54.2969C120.264-56.2988 118.652-57.4219 116.406-57.4219C102.734-57.4219 91.3086-45.7031 91.3086-31.1523C91.3086-20.166 97.9492-13.0371 107.08-13.0371ZM70.7031-13.0371C78.125-13.0371 84.3262-18.7012 84.3262-26.3672C84.3262-33.7891 79.0527-39.1113 71.5332-39.1113C67.2363-39.1113 63.8184-37.0117 61.9629-33.6914C63.5742-44.2871 71.4355-51.123 80.957-51.2695C82.7637-51.3672 83.9844-52.6367 83.9844-54.2969C83.9844-56.2988 82.3242-57.4219 80.1758-57.4219C66.4551-57.4219 55.0781-45.7031 55.0781-31.1523C55.0781-20.166 61.6699-13.0371 70.7031-13.0371Z"/>
  </g>
  <g id="Thin-L" transform="matrix(1 0 0 1 769.288 1556)">
   <path d="M122.705 19.5312C137.5 19.5312 142.285 13.4766 142.285-1.26953L142.285-17.5293C142.285-27.5391 146.387-30.4199 153.516-31.8848C156.641-31.9336 158.203-33.5449 158.203-35.3027C158.203-37.0117 156.641-38.623 153.516-38.6719C146.387-40.1855 142.285-43.0176 142.285-52.9785L142.285-69.2871C142.285-82.666 137.598-90.0879 122.754-90.0879C121.436-90.0879 120.703-89.2578 120.703-88.1836C120.703-86.377 120.996-86.1816 122.656-86.1816C132.764-86.1328 138.232-80.6152 138.232-69.1895L138.232-50C138.232-41.6992 143.311-35.9863 151.074-35.2051C143.311-34.5703 138.232-28.7109 138.232-19.1895L138.232-1.36719C138.232 10.1562 132.764 15.4785 122.461 15.6738C120.898 15.7227 120.703 15.918 120.703 17.627C120.703 19.2871 120.947 19.5312 122.705 19.5312ZM51.5625 19.5312C53.3691 19.5312 53.5645 19.2871 53.5645 17.627C53.5645 15.918 53.418 15.7227 51.8066 15.6738C41.5039 15.4785 36.0352 10.1562 36.0352-1.36719L36.0352-19.1895C36.0352-28.7109 31.0059-34.5703 23.1934-35.2051C31.0059-35.9863 36.0352-41.6992 36.0352-50L36.0352-69.1895C36.0352-80.6152 41.5527-86.1328 51.6113-86.1816C53.2715-86.1816 53.5645-86.377 53.5645-88.1836C53.5645-89.2578 52.8809-90.0879 51.5137-90.0879C36.6699-90.0879 32.0312-82.666 32.0312-69.2871L32.0312-52.9785C32.0312-43.0176 27.9297-40.1855 20.752-38.6719C17.6758-38.623 16.0645-37.0117 16.0645-35.3027C16.0645-33.5449 17.627-31.9336 20.752-31.8848C27.9297-30.4199 32.0312-27.5391 32.0312-17.5293L32.0312-1.26953C32.0312 13.4766 36.7676 19.5312 51.5625 19.5312ZM103.467-13.7695C110.4-13.7695 116.211-19.6777 116.211-26.8066C116.211-33.7402 111.182-39.1113 103.613-39.1113C99.0723-39.1113 95.2148-36.5723 93.3594-32.959C94.7754-44.6777 103.418-52.2461 113.086-52.2949C114.502-52.2949 115.381-53.2227 115.381-54.4434C115.381-55.8105 114.307-56.6406 112.646-56.6406C99.3164-56.6406 88.7207-45.166 88.7207-31.5918C88.7207-20.8008 94.6777-13.7695 103.467-13.7695ZM68.6523-13.7695C75.6836-13.7695 81.543-19.6777 81.543-26.8066C81.543-33.7402 76.416-39.1113 68.8965-39.1113C64.209-39.1113 60.4492-36.5723 58.5449-32.9102C59.9609-44.6777 68.6035-52.2461 78.418-52.2949C79.834-52.2949 80.6641-53.2227 80.6641-54.4434C80.6641-55.8105 79.541-56.6406 77.9785-56.6406C64.5508-56.6406 54.0039-45.166 54.0039-31.5918C54.0039-20.8008 59.9609-13.7695 68.6523-13.7695Z"/>
  </g>
  <g id="Ultralight-L" transform="matrix(1 0 0 1 473.871 1556)">
   <path d="M120.654 18.9941C135.303 18.9941 139.6 13.1348 139.6-1.41602L139.6-17.9199C139.6-28.1738 143.994-31.0547 151.318-32.5195C154.15-32.4707 155.615-33.9355 155.615-35.2539C155.615-36.6211 154.15-38.0371 151.318-37.9883C143.994-39.5508 139.6-42.3828 139.6-52.6367L139.6-69.1406C139.6-82.1289 135.4-89.502 120.605-89.502C119.678-89.502 119.434-88.7695 119.434-88.2324C119.434-86.7676 119.336-86.7676 120.703-86.8164C131.055-86.8164 136.963-80.957 136.963-69.2383L136.963-49.8047C136.963-41.6992 142.09-36.0352 149.854-35.2051C142.09-34.4727 136.963-28.7109 136.963-19.1406L136.963-1.26953C136.963 10.3516 131.006 16.4062 120.898 16.2598C119.434 16.2109 119.434 16.1621 119.434 17.6758C119.434 18.8965 119.043 18.9941 120.654 18.9941ZM51.0254 18.9941C52.6367 18.9941 52.2461 18.8965 52.2461 17.6758C52.2461 16.1621 52.2461 16.2109 50.8301 16.2598C40.6738 16.4062 34.7168 10.3516 34.7168-1.26953L34.7168-19.1406C34.7168-28.7109 29.5898-34.4727 21.8262-35.2051C29.5898-36.0352 34.7168-41.6992 34.7168-49.8047L34.7168-69.2383C34.7168-80.957 40.6738-86.8164 50.9766-86.8164C52.3926-86.7676 52.2461-86.7676 52.2461-88.2324C52.2461-88.7695 52.002-89.502 51.0742-89.502C36.3281-89.502 32.1289-82.1289 32.1289-69.1406L32.1289-52.6367C32.1289-42.3828 27.6855-39.5508 20.4102-37.9883C17.5293-38.0371 16.0645-36.6211 16.0645-35.2539C16.0645-33.9355 17.5293-32.4707 20.4102-32.5195C27.6855-31.0547 32.1289-28.1738 32.1289-17.9199L32.1289-1.41602C32.1289 13.1348 36.377 18.9941 51.0254 18.9941ZM101.611-14.1602C108.35-14.1602 113.965-20.166 113.965-27.002C113.965-33.7402 109.033-39.1113 101.465-39.1113C96.7285-39.1113 92.7246-36.377 90.8691-32.5684C92.1875-44.873 101.221-52.832 110.986-52.832C112.158-52.7832 112.891-53.5156 112.891-54.541C112.891-55.5664 112.061-56.25 110.742-56.25C97.5586-56.25 87.4023-44.873 87.4023-31.8359C87.4023-21.0938 93.0176-14.1602 101.611-14.1602ZM67.5781-14.1602C74.4141-14.1602 80.127-20.166 80.127-27.002C80.127-33.7402 75.0977-39.1113 67.5293-39.1113C62.6953-39.1113 58.7402-36.377 56.7871-32.5195C58.1055-44.873 67.1387-52.832 77.0996-52.832C78.3203-52.7832 78.9062-53.5156 78.9062-54.541C78.9062-55.5664 78.0762-56.25 76.9043-56.25C63.623-56.25 53.418-44.873 53.418-31.8359C53.418-21.0938 59.082-14.1602 67.5781-14.1602Z"/>
  </g>
  <g id="Black-M" transform="matrix(1 0 0 1 2844.73 1126)">
   <path d="M50.8301 11.6699C56.4453 11.6699 61.7676 10.3516 61.7676 5.12695C61.7676 2.05078 60.6934 0.878906 57.6172-0.0976562C49.4629-3.125 47.2168-1.75781 47.2168-11.377L47.2168-19.5801C47.2168-26.7578 42.0898-32.5684 33.5938-33.5938C30.2734-33.9844 30.127-36.3281 33.6426-36.6211C42.0898-37.6465 47.2168-43.5059 47.2168-50.5859L47.2168-58.8379C47.2168-65.5273 49.6094-68.7988 55.8105-69.6777C59.6191-70.166 61.7676-71.1914 61.7676-75.2441C61.7676-78.0273 60.4492-79.9805 56.4941-81.1523C45.5566-84.2285 29.0039-81.8848 29.0039-61.377L29.0039-56.1523C29.0039-49.1699 25.9766-45.8984 19.043-43.8477C14.8926-42.6758 12.4512-39.8926 12.4512-35.1074C12.4512-30.3711 14.8926-27.5391 19.043-26.416C26.1719-24.5117 29.0039-20.8984 29.0039-14.1113L29.0039-8.78906C29.0039 6.29883 35.6445 11.6699 50.8301 11.6699ZM126.465 11.6699C141.699 11.6699 148.291 6.29883 148.291-8.78906L148.291-14.1113C148.291-20.8984 151.123-24.5117 158.301-26.416C162.402-27.5391 164.893-30.3711 164.893-35.1074C164.893-39.8926 162.451-42.6758 158.301-43.8477C151.318-45.8984 148.291-49.1699 148.291-56.1523L148.291-61.377C148.291-81.8848 131.787-84.2285 120.85-81.1523C116.895-79.9805 115.527-78.0273 115.527-75.2441C115.527-71.1914 117.725-70.166 121.484-69.6777C127.734-68.7988 130.078-65.5273 130.078-58.8379L130.078-50.5859C130.078-43.5059 135.254-37.6465 143.701-36.6211C147.168-36.3281 147.07-33.9844 143.75-33.5938C135.254-32.5684 130.078-26.7578 130.078-19.5801L130.078-11.377C130.078-1.75781 127.832-3.125 119.678-0.0976562C116.602 0.878906 115.527 2.05078 115.527 5.12695C115.527 10.3516 120.898 11.6699 126.465 11.6699ZM104.297-15.1367C111.865-15.1367 117.822-20.8496 117.822-28.125C117.822-35.1562 112.939-40.2832 106.787-40.2832C104.102-40.2832 101.465-39.6973 99.2676-37.793C100.879-42.5781 105.371-45.8008 111.768-46.3379C113.965-46.5332 115.771-48.5352 115.771-50.7324C115.771-53.2227 113.477-55.2246 110.449-55.2246C99.3164-55.2246 89.4043-46.1426 89.4043-32.8125C89.4043-22.168 95.166-15.1367 104.297-15.1367ZM70.8008-15.1367C78.418-15.1367 84.3262-20.8496 84.3262-28.125C84.3262-35.1562 79.4922-40.2832 73.2422-40.2832C70.6055-40.2832 67.9199-39.6973 65.7715-37.793C67.4316-42.5781 71.875-45.8008 78.2715-46.3379C80.4688-46.5332 82.2266-48.5352 82.2266-50.7324C82.2266-53.2227 79.9316-55.2246 76.9043-55.2246C65.8203-55.2246 55.8594-46.1426 55.8594-32.8125C55.8594-22.168 61.6211-15.1367 70.8008-15.1367Z"/>
  </g>
  <g id="Heavy-M" transform="matrix(1 0 0 1 2551.95 1126)">
   <path d="M120.752 11.084C135.205 11.084 141.553 5.66406 141.553-8.69141L141.553-15.5762C141.553-22.3633 144.189-25.6348 150.879-27.2949C154.785-28.2715 157.031-30.9082 157.031-35.2051C157.031-39.4531 154.785-41.9922 150.879-43.0176C144.336-44.7754 141.553-47.8027 141.553-54.7363L141.553-61.5234C141.553-79.9805 127.686-83.1543 116.553-80.8105C112.939-79.9316 111.426-78.2227 111.426-75.4395C111.426-71.6797 113.477-70.752 116.846-70.3613C123.291-69.5801 125.732-66.4062 125.732-59.4238L125.732-49.8047C125.732-42.627 130.615-37.0605 138.721-36.2793C141.406-36.1328 141.309-34.2773 138.77-33.9844C130.615-33.3008 125.732-27.6855 125.732-20.4102L125.732-10.8887C125.732-1.51367 123.438-2.19727 115.186 0.439453C112.402 1.26953 111.426 2.39258 111.426 5.22461C111.426 9.86328 116.016 11.084 120.752 11.084ZM48.7305 11.084C53.4668 11.084 58.1055 9.86328 58.1055 5.22461C58.1055 2.39258 57.0801 1.26953 54.3457 0.439453C46.0938-2.19727 43.75-1.51367 43.75-10.8887L43.75-20.4102C43.75-27.6855 38.8672-33.3008 30.7129-33.9844C28.1738-34.2773 28.0762-36.1328 30.7617-36.2793C38.8672-37.0605 43.75-42.627 43.75-49.8047L43.75-59.4238C43.75-66.4062 46.2402-69.5801 52.6367-70.3613C56.0059-70.752 58.1055-71.6797 58.1055-75.4395C58.1055-78.2227 56.543-79.9316 52.9297-80.8105C41.8457-83.1543 27.9297-79.9805 27.9297-61.5234L27.9297-54.7363C27.9297-47.8027 25.1465-44.7754 18.6035-43.0176C14.6973-41.9922 12.4512-39.4531 12.4512-35.2051C12.4512-30.9082 14.6973-28.2715 18.6035-27.2949C25.293-25.6348 27.9297-22.3633 27.9297-15.5762L27.9297-8.69141C27.9297 5.66406 34.2773 11.084 48.7305 11.084ZM100.146-15.6738C107.373-15.6738 113.135-20.9961 113.135-28.0762C113.135-34.9121 108.398-39.7949 102.295-39.7949C99.5605-39.7949 97.0215-39.0625 94.9707-37.1094C96.582-42.3828 101.27-45.9473 107.812-46.4355C109.912-46.582 111.621-48.4375 111.621-50.5371C111.621-52.9785 109.424-54.7852 106.543-54.7852C95.459-54.7852 85.6445-45.6055 85.6445-32.5195C85.6445-22.3633 91.4062-15.6738 100.146-15.6738ZM67.5293-15.6738C74.8047-15.6738 80.5176-20.9961 80.5176-28.0762C80.5176-34.9121 75.8301-39.7949 69.6777-39.7949C66.9922-39.7949 64.3555-39.0625 62.4023-37.1094C63.9648-42.3828 68.6523-45.9473 75.2441-46.4355C77.3438-46.582 79.0039-48.4375 79.0039-50.5371C79.0039-52.9785 76.8066-54.7852 73.9746-54.7852C62.8906-54.7852 52.9785-45.6055 52.9785-32.5195C52.9785-22.3633 58.7891-15.6738 67.5293-15.6738Z"/>
  </g>
  <g id="Bold-M" transform="matrix(1 0 0 1 2259.61 1126)">
   <path d="M114.307 10.4492C127.979 10.4492 133.984 4.93164 133.984-8.59375L133.984-17.1875C133.984-23.9746 136.426-26.9043 142.578-28.3203C146.289-29.1016 148.291-31.4941 148.291-35.2539C148.291-38.916 146.24-41.2598 142.578-42.0898C136.523-43.5547 133.984-46.3379 133.984-53.2227L133.984-61.7188C133.984-77.832 123.047-81.9824 111.719-80.4199C108.496-79.834 106.787-78.418 106.787-75.6836C106.787-72.2656 108.691-71.4355 111.67-71.0938C118.311-70.5078 120.85-67.334 120.85-60.0586L120.85-48.9258C120.85-41.6504 125.439-36.4258 133.154-35.8887C134.912-35.9375 134.863-34.6191 133.203-34.4238C125.439-34.082 120.85-28.7109 120.85-21.2891L120.85-10.3516C120.85-1.2207 118.457-1.2207 110.107 1.07422C107.666 1.70898 106.787 2.83203 106.787 5.32227C106.787 9.375 110.596 10.4492 114.307 10.4492ZM46.3867 10.4492C50.1465 10.4492 53.9551 9.375 53.9551 5.32227C53.9551 2.83203 53.0273 1.70898 50.6348 1.07422C42.2852-1.2207 39.8438-1.2207 39.8438-10.3516L39.8438-21.2891C39.8438-28.7109 35.2539-34.082 27.5391-34.4238C25.8789-34.6191 25.8301-35.9375 27.5879-35.8887C35.2539-36.4258 39.8438-41.6504 39.8438-48.9258L39.8438-60.0586C39.8438-67.334 42.4316-70.5078 49.0723-71.0938C52.002-71.4355 53.9551-72.2656 53.9551-75.6836C53.9551-78.418 52.2461-79.834 48.9746-80.4199C37.6465-81.9824 26.7578-77.832 26.7578-61.7188L26.7578-53.2227C26.7578-46.3379 24.2188-43.5547 18.1641-42.0898C14.502-41.2598 12.4512-38.916 12.4512-35.2539C12.4512-31.4941 14.4531-29.1016 18.1641-28.3203C24.3164-26.9043 26.7578-23.9746 26.7578-17.1875L26.7578-8.59375C26.7578 4.93164 32.7637 10.4492 46.3867 10.4492ZM95.459-16.2109C102.344-16.2109 107.861-21.1426 107.861-28.0273C107.861-34.668 103.271-39.2578 97.3145-39.2578C94.4824-39.2578 91.9922-38.3789 90.1855-36.3281C91.748-42.1875 96.6309-46.1426 103.32-46.5332C105.371-46.6309 106.934-48.3398 106.934-50.293C106.934-52.6367 104.932-54.248 102.197-54.248C91.2109-54.248 81.3965-45.0195 81.3965-32.2266C81.3965-22.5586 87.207-16.2109 95.459-16.2109ZM63.8672-16.2109C70.752-16.2109 76.2695-21.1426 76.2695-28.0273C76.2695-34.668 71.7285-39.2578 65.6738-39.2578C62.8906-39.2578 60.4004-38.3789 58.6426-36.3281C60.1562-42.1875 65.0879-46.0938 71.8262-46.5332C73.8281-46.6309 75.3418-48.3398 75.3418-50.293C75.3418-52.6367 73.291-54.248 70.6543-54.248C59.6191-54.248 49.8047-45.0195 49.8047-32.2266C49.8047-22.5586 55.6152-16.2109 63.8672-16.2109Z"/>
  </g>
  <g id="Semibold-M" transform="matrix(1 0 0 1 1965.92 1126)">
   <path d="M109.912 10.0098C122.998 10.0098 128.76 4.44336 128.76-8.54492L128.76-18.2617C128.76-25.0977 131.055-27.7832 136.816-29.0527C140.381-29.6875 142.236-31.8848 142.236-35.3027C142.236-38.5742 140.332-40.7227 136.816-41.4062C131.104-42.6758 128.76-45.2637 128.76-52.1484L128.76-61.8164C128.76-76.3672 119.873-81.1523 108.398-80.1758C105.42-79.7852 103.613-78.5156 103.613-75.8301C103.613-72.6562 105.42-71.875 108.057-71.6309C114.893-71.1426 117.529-67.9688 117.529-60.5469L117.529-48.291C117.529-40.9668 121.875-35.9375 129.346-35.6445C130.42-35.791 130.42-34.8145 129.346-34.7168C121.875-34.668 117.529-29.4434 117.529-21.9238L117.529-9.96094C117.529-1.02539 115.039-0.537109 106.641 1.46484C104.443 2.05078 103.613 3.125 103.613 5.37109C103.613 8.98438 106.836 10.0098 109.912 10.0098ZM44.7754 10.0098C47.8516 10.0098 51.123 8.98438 51.123 5.37109C51.123 3.125 50.2441 2.05078 48.0469 1.46484C39.6484-0.537109 37.1582-1.02539 37.1582-9.96094L37.1582-21.9238C37.1582-29.4434 32.8125-34.668 25.3418-34.7168C24.2676-34.8145 24.2676-35.791 25.3418-35.6445C32.8125-35.9375 37.1582-40.9668 37.1582-48.291L37.1582-60.5469C37.1582-67.9688 39.7949-71.1426 46.6309-71.6309C49.2676-71.875 51.123-72.6562 51.123-75.8301C51.123-78.5156 49.2676-79.7852 46.2891-80.1758C34.8145-81.1523 25.9277-76.3672 25.9277-61.8164L25.9277-52.1484C25.9277-45.2637 23.584-42.6758 17.8711-41.4062C14.3555-40.7227 12.4512-38.5742 12.4512-35.3027C12.4512-31.8848 14.3066-29.6875 17.8711-29.0527C23.6328-27.7832 25.9277-25.0977 25.9277-18.2617L25.9277-8.54492C25.9277 4.44336 31.6895 10.0098 44.7754 10.0098ZM92.2363-16.6016C98.8281-16.6016 104.199-21.2891 104.199-27.9785C104.199-34.4727 99.7559-38.916 93.8477-38.916C91.0156-38.916 88.5742-37.8906 86.9141-35.791C88.4277-42.0898 93.5059-46.2402 100.244-46.582C102.246-46.6797 103.76-48.2422 103.76-50.1465C103.76-52.4414 101.807-53.8574 99.2188-53.8574C88.2324-53.8574 78.4668-44.6289 78.4668-32.0312C78.4668-22.7051 84.2773-16.6016 92.2363-16.6016ZM61.3281-16.6016C67.9688-16.6016 73.3398-21.2891 73.3398-27.9785C73.3398-34.4727 68.8965-38.916 62.9395-38.916C60.0586-38.916 57.666-37.8906 56.0059-35.791C57.5195-42.0898 62.5977-46.2402 69.4336-46.582C71.3867-46.6797 72.8516-48.2422 72.8516-50.1465C72.8516-52.4414 70.8984-53.8574 68.3594-53.8574C57.373-53.8574 47.6074-44.6289 47.6074-32.0312C47.6074-22.7051 53.418-16.6016 61.3281-16.6016Z"/>
  </g>
  <g id="Medium-M" transform="matrix(1 0 0 1 1671.51 1126)">
   <path d="M106.543 9.66797C119.189 9.66797 124.805 4.05273 124.805-8.49609L124.805-19.0918C124.805-25.9277 127.002-28.4668 132.471-29.541C135.938-30.127 137.646-32.2266 137.646-35.3027C137.646-38.3301 135.84-40.332 132.471-40.918C127.051-42.041 124.805-44.4824 124.805-51.3184L124.805-61.9141C124.805-75.2441 117.48-80.5176 105.908-79.9805C103.125-79.7852 101.172-78.6133 101.172-75.9277C101.172-72.9492 102.93-72.2168 105.322-72.0215C112.256-71.6309 114.99-68.457 114.99-60.8887L114.99-47.8516C114.99-40.4785 119.189-35.6445 126.416-35.4492C127.051-35.6445 127.051-35.0098 126.416-34.9121C119.189-35.0586 114.99-29.9805 114.99-22.3633L114.99-9.66797C114.99-0.878906 112.451 0 103.955 1.80664C101.953 2.29492 101.172 3.32031 101.172 5.41992C101.172 8.74023 103.955 9.66797 106.543 9.66797ZM43.5547 9.66797C46.1426 9.66797 48.9258 8.74023 48.9258 5.41992C48.9258 3.32031 48.1445 2.29492 46.1426 1.80664C37.6465 0 35.1562-0.878906 35.1562-9.66797L35.1562-22.3633C35.1562-29.9805 30.9082-35.0586 23.6816-34.9121C23.0957-35.0098 23.0469-35.6445 23.6816-35.4492C30.9082-35.6445 35.1562-40.4785 35.1562-47.8516L35.1562-60.8887C35.1562-68.457 37.8418-71.6309 44.7754-72.0215C47.168-72.2168 48.9258-72.9492 48.9258-75.9277C48.9258-78.6133 46.9727-79.7852 44.1895-79.9805C32.6172-80.5176 25.293-75.2441 25.293-61.9141L25.293-51.3184C25.293-44.4824 23.0469-42.041 17.627-40.918C14.2578-40.332 12.4512-38.3301 12.4512-35.3027C12.4512-32.2266 14.1602-30.127 17.627-29.541C23.0957-28.4668 25.293-25.9277 25.293-19.0918L25.293-8.49609C25.293 4.05273 30.9082 9.66797 43.5547 9.66797ZM89.7949-16.8945C96.1914-16.8945 101.465-21.3379 101.465-27.9785C101.465-34.375 97.0703-38.623 91.2598-38.623C88.3789-38.623 85.9375-37.5488 84.4238-35.4004C85.8887-41.9434 91.0645-46.3379 97.9492-46.582C99.8535-46.6797 101.318-48.1934 101.318-50C101.318-52.2949 99.4629-53.5645 96.9238-53.5645C86.0352-53.5645 76.2695-44.3359 76.2695-31.8359C76.2695-22.8027 82.0801-16.8945 89.7949-16.8945ZM59.4238-16.8945C65.8203-16.8945 71.0938-21.3379 71.0938-27.9785C71.0938-34.375 66.748-38.623 60.8887-38.623C57.959-38.623 55.6152-37.5488 54.0527-35.3516C55.5176-41.9434 60.6934-46.2891 67.6758-46.582C69.5312-46.7285 70.9473-48.1934 70.9473-50C70.9473-52.2949 69.043-53.5645 66.6016-53.5645C55.6641-53.5645 45.9473-44.3359 45.9473-31.8359C45.9473-22.8027 51.7578-16.8945 59.4238-16.8945Z"/>
  </g>
  <g id="Regular-M" transform="matrix(1 0 0 1 1377.77 1126)">
   <path d="M102.197 9.22852C114.258 9.22852 119.678 3.56445 119.678-8.44727L119.678-20.2148C119.678-27.0508 121.729-29.3457 126.807-30.2734C130.127-30.7129 131.689-32.6172 131.689-35.3516C131.689-37.9395 130.029-39.8438 126.807-40.2832C121.729-41.2109 119.678-43.5059 119.678-50.2441L119.678-62.0605C119.678-73.7793 114.355-79.7363 102.637-79.7363C100.098-79.7363 97.998-78.7598 97.998-76.0742C97.998-73.3887 99.707-72.6562 101.807-72.5098C108.887-72.2168 111.67-69.1406 111.67-61.3281L111.67-47.2168C111.67-40.2344 115.234-35.7422 121.436-35.2539C115.234-35.0586 111.67-30.2246 111.67-22.998L111.67-9.27734C111.67-0.732422 109.082 0.683594 100.537 2.19727C98.7793 2.58789 97.998 3.61328 97.998 5.51758C97.998 8.39844 100.244 9.22852 102.197 9.22852ZM41.9434 9.22852C43.8965 9.22852 46.1426 8.39844 46.1426 5.51758C46.1426 3.61328 45.3613 2.58789 43.6035 2.19727C35.0586 0.683594 32.4707-0.732422 32.4707-9.27734L32.4707-22.998C32.4707-30.2246 28.9062-35.0586 22.6562-35.2539C28.9062-35.7422 32.4707-40.2344 32.4707-47.2168L32.4707-61.3281C32.4707-69.1406 35.2539-72.2168 42.334-72.5098C44.4336-72.6562 46.1426-73.3887 46.1426-76.0742C46.1426-78.7598 44.043-79.7363 41.5039-79.7363C29.7852-79.7363 24.4629-73.7793 24.4629-62.0605L24.4629-50.2441C24.4629-43.5059 22.4121-41.2109 17.2852-40.2832C14.1113-39.8438 12.4512-37.9395 12.4512-35.3516C12.4512-32.6172 14.0137-30.7129 17.2852-30.2734C22.4121-29.3457 24.4629-27.0508 24.4629-20.2148L24.4629-8.44727C24.4629 3.56445 29.834 9.22852 41.9434 9.22852ZM86.6211-17.2852C92.7734-17.2852 97.8516-21.4355 97.8516-27.9297C97.8516-34.1797 93.6035-38.2324 87.8418-38.2324C84.9121-38.2324 82.5195-37.0605 81.1523-34.8633C82.6172-41.8457 87.9395-46.4844 94.9219-46.6797C96.7773-46.7285 98.1445-48.0957 98.1445-49.8535C98.1445-52.0508 96.4355-53.2227 93.9941-53.2227C83.1055-53.2227 73.3887-43.9453 73.3887-31.6406C73.3887-22.9492 79.1992-17.2852 86.6211-17.2852ZM56.9336-17.2852C63.0859-17.2852 68.1641-21.4355 68.1641-27.9297C68.1641-34.1797 63.9648-38.2324 58.1543-38.2324C55.1758-38.2324 52.8809-37.0605 51.4648-34.8145C52.9297-41.8457 58.252-46.4355 65.332-46.6797C67.1387-46.7773 68.5059-48.0957 68.5059-49.8535C68.5059-52.0508 66.6992-53.2227 64.3555-53.2227C53.418-53.2227 43.75-43.9453 43.75-31.6406C43.75-22.9492 49.5605-17.2852 56.9336-17.2852Z"/>
  </g>
  <g id="Light-M" transform="matrix(1 0 0 1 1082.77 1126)">
   <path d="M99.5117 8.49609C111.377 8.49609 116.113 3.17383 116.113-8.59375L116.113-20.7031C116.113-27.8809 118.555-30.1758 123.877-31.1523C126.807-31.4453 128.271-33.1055 128.271-35.3027C128.271-37.4512 126.758-39.0625 123.877-39.3555C118.555-40.3809 116.113-42.627 116.113-49.8047L116.113-61.8652C116.113-73.0957 111.426-78.9551 99.8047-78.9551C97.8027-78.9551 96.3379-78.125 96.3379-76.123C96.3379-73.9258 97.4609-73.4375 99.2676-73.3398C106.592-73.1445 109.961-69.5801 109.961-61.377L109.961-47.0215C109.961-40.2344 113.623-35.791 119.775-35.2051C113.623-34.9121 109.961-30.2246 109.961-22.9004L109.961-9.17969C109.961-0.488281 106.738 1.95312 98.3887 2.97852C96.8262 3.22266 96.3379 3.90625 96.3379 5.56641C96.3379 7.86133 97.7539 8.49609 99.5117 8.49609ZM41.2109 8.49609C42.9199 8.49609 44.3848 7.86133 44.3848 5.56641C44.3848 3.90625 43.8477 3.22266 42.2852 2.97852C33.9844 1.95312 30.7617-0.488281 30.7617-9.17969L30.7617-22.9004C30.7617-30.2246 27.0508-34.9121 20.8984-35.2051C27.0508-35.791 30.7617-40.2344 30.7617-47.0215L30.7617-61.377C30.7617-69.5801 34.082-73.1445 41.4551-73.3398C43.2617-73.4375 44.3848-73.9258 44.3848-76.123C44.3848-78.125 42.8711-78.9551 40.918-78.9551C29.2969-78.9551 24.6094-73.0957 24.6094-61.8652L24.6094-49.8047C24.6094-42.627 22.1191-40.3809 16.8457-39.3555C13.9648-39.0625 12.4512-37.4512 12.4512-35.3027C12.4512-33.1055 13.916-31.4453 16.8457-31.1523C22.1191-30.1758 24.6094-27.8809 24.6094-20.7031L24.6094-8.59375C24.6094 3.17383 29.3457 8.49609 41.2109 8.49609ZM84.1797-17.7734C90.0391-17.7734 94.9219-22.1191 94.9219-28.2227C94.9219-34.1309 90.7715-38.2324 85.0098-38.2324C81.8359-38.2324 79.248-36.7676 77.832-34.3262C79.1504-42.0898 85.0098-47.2168 92.1387-47.3633C93.75-47.3633 94.8242-48.4863 94.8242-49.9512C94.8242-51.7578 93.457-52.6855 91.4551-52.6855C80.7617-52.6855 71.6309-43.5547 71.6309-31.9336C71.6309-23.3398 77.002-17.7734 84.1797-17.7734ZM55.5176-17.7734C61.377-17.7734 66.3086-22.1191 66.3086-28.2227C66.3086-34.1309 62.1582-38.2324 56.3477-38.2324C53.125-38.2324 50.6348-36.7676 49.1699-34.2773C50.4883-42.0898 56.3477-47.168 63.623-47.3633C65.1367-47.4121 66.2109-48.4863 66.2109-49.9512C66.2109-51.7578 64.7461-52.6855 62.8906-52.6855C52.1484-52.6855 43.0176-43.5547 43.0176-31.9336C43.0176-23.3398 48.3887-17.7734 55.5176-17.7734Z"/>
  </g>
  <g id="Thin-M" transform="matrix(1 0 0 1 788.331 1126)">
   <path d="M95.9473 7.4707C107.52 7.4707 111.377 2.63672 111.377-8.83789L111.377-21.3867C111.377-29.0039 114.453-31.25 119.922-32.3242C122.461-32.4219 123.73-33.7891 123.73-35.3027C123.73-36.7676 122.412-38.0859 119.922-38.1836C114.453-39.3066 111.377-41.5039 111.377-49.1699L111.377-61.6699C111.377-72.2168 107.568-77.9785 96.0449-77.9785C94.8242-77.9785 94.0918-77.2949 94.0918-76.2207C94.0918-74.6582 94.4824-74.4629 95.8496-74.4629C103.613-74.3652 107.666-70.2148 107.666-61.5234L107.666-46.7285C107.666-40.2344 111.572-35.791 117.627-35.2051C111.572-34.7656 107.666-30.1758 107.666-22.8516L107.666-9.0332C107.666-0.146484 103.662 3.66211 95.6055 3.95508C94.2871 4.05273 94.0918 4.29688 94.0918 5.71289C94.0918 7.17773 94.5312 7.4707 95.9473 7.4707ZM40.2344 7.4707C41.6504 7.4707 42.0898 7.17773 42.0898 5.71289C42.0898 4.29688 41.8945 4.05273 40.5762 3.95508C32.5195 3.66211 28.4668-0.146484 28.4668-9.0332L28.4668-22.8516C28.4668-30.1758 24.6094-34.7656 18.5547-35.2051C24.6094-35.8398 28.4668-40.2344 28.4668-46.7285L28.4668-61.5234C28.4668-70.2148 32.5684-74.3652 40.2832-74.4629C41.6992-74.4629 42.0898-74.6582 42.0898-76.2207C42.0898-77.2949 41.3574-77.9785 40.1367-77.9785C28.6133-77.9785 24.7559-72.2168 24.7559-61.6699L24.7559-49.1699C24.7559-41.5039 21.7285-39.3066 16.2109-38.1836C13.7207-38.0859 12.4512-36.7676 12.4512-35.3027C12.4512-33.7891 13.7207-32.4219 16.2109-32.3242C21.7285-31.25 24.7559-29.0039 24.7559-21.3867L24.7559-8.83789C24.7559 2.63672 28.6621 7.4707 40.2344 7.4707ZM80.957-18.457C86.4258-18.457 91.0156-22.9492 91.0156-28.6133C91.0156-34.082 87.0605-38.2324 81.2012-38.2324C77.7344-38.2324 74.8535-36.377 73.4375-33.6426C74.5605-42.4316 81.1035-48.1934 88.5254-48.2422C89.6973-48.2422 90.4785-49.0234 90.4785-50.0977C90.4785-51.3184 89.502-52.002 88.1348-52.002C77.7344-52.002 69.3359-43.0176 69.3359-32.3242C69.3359-23.9258 74.0723-18.457 80.957-18.457ZM53.6621-18.457C59.1797-18.457 63.8184-22.9492 63.8184-28.6133C63.8184-34.082 59.8145-38.2324 53.9551-38.2324C50.4395-38.2324 47.6074-36.377 46.0938-33.5938C47.2656-42.4316 53.8086-48.1934 61.3281-48.2422C62.5-48.2422 63.2324-49.0234 63.2324-50.0977C63.2324-51.3184 62.2559-52.002 60.9375-52.002C50.4395-52.002 42.0898-43.0176 42.0898-32.3242C42.0898-23.9258 46.8262-18.457 53.6621-18.457Z"/>
  </g>
  <g id="Ultralight-M" transform="matrix(1 0 0 1 492.792 1126)">
   <path d="M94.1406 6.93359C105.518 6.93359 108.984 2.34375 108.984-8.98438L108.984-21.6797C108.984-29.5898 112.305-31.8359 117.92-32.959C120.215-32.9102 121.387-34.082 121.387-35.2539C121.387-36.4258 120.215-37.5977 117.92-37.5977C112.305-38.7695 108.984-40.9668 108.984-48.8281L108.984-61.5723C108.984-71.7285 105.566-77.4902 94.1406-77.4902C93.2617-77.4902 92.9199-76.8555 92.9199-76.2695C92.9199-75.0488 92.9688-75 94.1406-75C102.051-75 106.543-70.5566 106.543-61.5723L106.543-46.582C106.543-40.2344 110.498-35.8398 116.504-35.2051C110.498-34.668 106.543-30.1758 106.543-22.8027L106.543-8.93555C106.543 0.0488281 102.051 4.49219 94.1895 4.49219C92.9688 4.49219 92.9199 4.54102 92.9199 5.76172C92.9199 6.83594 92.8223 6.93359 94.1406 6.93359ZM39.6973 6.93359C41.0156 6.93359 40.918 6.83594 40.918 5.76172C40.918 4.54102 40.8691 4.49219 39.6973 4.49219C31.7871 4.49219 27.2949 0.0488281 27.2949-8.93555L27.2949-22.8027C27.2949-30.1758 23.3398-34.668 17.334-35.2051C23.3398-35.8398 27.2949-40.2344 27.2949-46.582L27.2949-61.5723C27.2949-70.5566 31.7871-75 39.6973-75C40.8691-75 40.918-75.0488 40.918-76.2695C40.918-76.8555 40.5762-77.4902 39.6973-77.4902C28.2715-77.4902 24.8535-71.7285 24.8535-61.5723L24.8535-48.8281C24.8535-40.9668 21.5332-38.7695 15.918-37.5977C13.623-37.5977 12.4512-36.4258 12.4512-35.2539C12.4512-34.082 13.623-32.9102 15.918-32.959C21.5332-31.8359 24.8535-29.5898 24.8535-21.6797L24.8535-8.98438C24.8535 2.34375 28.3203 6.93359 39.6973 6.93359ZM79.2969-18.75C84.6191-18.75 89.0137-23.3887 89.0137-28.8086C89.0137-34.082 85.1562-38.2324 79.2969-38.2324C75.6836-38.2324 72.6074-36.1816 71.1426-33.3008C72.2168-42.627 79.1016-48.6816 86.6699-48.6816C87.6465-48.6816 88.2324-49.3164 88.2324-50.1465C88.2324-51.0742 87.5-51.6113 86.4258-51.6113C76.123-51.6113 68.1152-42.7734 68.1152-32.5195C68.1152-24.1699 72.6074-18.75 79.2969-18.75ZM52.6855-18.75C58.0566-18.75 62.5-23.3887 62.5-28.8086C62.5-34.082 58.5938-38.2324 52.7344-38.2324C49.0723-38.2324 46.0449-36.1816 44.5312-33.252C45.6055-42.627 52.4902-48.6816 60.1562-48.6816C61.1328-48.6816 61.6699-49.3164 61.6699-50.1465C61.6699-51.0742 60.9375-51.6113 59.9121-51.6113C49.6094-51.6113 41.6016-42.7734 41.6016-32.5195C41.6016-24.1699 46.0449-18.75 52.6855-18.75Z"/>
  </g>
  <g id="Black-S" transform="matrix(1 0 0 1 2864.21 696)">
   <path d="M98.6816 1.46484C110.547 1.46484 115.723-2.73438 115.723-14.502L115.723-18.7988C115.723-24.1211 117.92-26.9043 123.486-28.3691C126.709-29.248 128.613-31.4453 128.613-35.1562C128.613-38.8672 126.709-41.0156 123.486-41.9434C118.066-43.5059 115.723-46.0449 115.723-51.5137L115.723-55.7129C115.723-71.6309 102.979-73.5352 94.3848-71.1914C91.3086-70.3125 90.2344-68.7988 90.2344-66.6016C90.2344-63.4277 91.9434-62.6465 94.873-62.2559C99.7559-61.5723 101.611-59.0332 101.611-53.7598L101.611-47.2168C101.611-41.6504 105.615-37.0605 112.207-36.2793C114.893-36.084 114.795-34.2773 112.256-33.9844C105.615-33.2031 101.611-28.6621 101.611-23.0469L101.611-16.5039C101.611-8.98438 99.8535-10.0098 93.457-7.66602C91.0645-6.93359 90.2344-6.00586 90.2344-3.61328C90.2344 0.439453 94.3848 1.46484 98.6816 1.46484ZM39.6973 1.46484C43.9941 1.46484 48.1445 0.439453 48.1445-3.61328C48.1445-6.00586 47.3145-6.93359 44.9219-7.66602C38.5254-10.0098 36.7676-8.98438 36.7676-16.5039L36.7676-23.0469C36.7676-28.6621 32.7637-33.2031 26.123-33.9844C23.584-34.2773 23.4863-36.084 26.1719-36.2793C32.7637-37.0605 36.7676-41.6504 36.7676-47.2168L36.7676-53.7598C36.7676-59.0332 38.623-61.5723 43.5059-62.2559C46.4355-62.6465 48.1445-63.4277 48.1445-66.6016C48.1445-68.7988 47.0703-70.3125 43.9941-71.1914C35.4004-73.5352 22.6562-71.6309 22.6562-55.7129L22.6562-51.5137C22.6562-46.0449 20.3125-43.5059 14.8926-41.9434C11.6699-41.0156 9.76562-38.8672 9.76562-35.1562C9.76562-31.4453 11.6699-29.248 14.8926-28.3691C20.459-26.9043 22.6562-24.1211 22.6562-18.7988L22.6562-14.502C22.6562-2.73438 27.832 1.46484 39.6973 1.46484ZM81.4453-19.5312C87.3535-19.5312 91.9922-23.9746 91.9922-29.6387C91.9922-35.1562 88.1836-39.1602 83.3496-39.1602C81.25-39.1602 79.1992-38.6719 77.4902-37.207C78.7598-40.9668 82.2754-43.5059 87.3047-43.9453C89.0137-44.0918 90.4297-45.6543 90.4297-47.3633C90.4297-49.3164 88.623-50.8789 86.2793-50.8789C77.5391-50.8789 69.7754-43.75 69.7754-33.3008C69.7754-25 74.3164-19.5312 81.4453-19.5312ZM55.2246-19.5312C61.1816-19.5312 65.8203-23.9746 65.8203-29.6387C65.8203-35.1562 62.0117-39.1602 57.1289-39.1602C55.0781-39.1602 52.9785-38.6719 51.3184-37.207C52.5879-40.9668 56.1035-43.5059 61.1328-43.9453C62.8418-44.0918 64.209-45.6543 64.209-47.3633C64.209-49.3164 62.4023-50.8789 60.0586-50.8789C51.3672-50.8789 43.5547-43.75 43.5547-33.3008C43.5547-25 48.0957-19.5312 55.2246-19.5312Z"/>
  </g>
  <g id="Heavy-S" transform="matrix(1 0 0 1 2570.31 696)">
   <path d="M94.5801 1.12305C105.908 1.12305 110.938-3.17383 110.938-14.4043L110.938-19.8242C110.938-25.1465 112.939-27.6855 118.115-28.9551C121.24-29.7363 122.998-31.7871 122.998-35.2051C122.998-38.5742 121.24-40.5762 118.115-41.4062C113.086-42.7734 110.938-45.1172 110.938-50.4883L110.938-55.8594C110.938-70.2637 100.146-72.8027 91.4062-70.9961C88.5254-70.3613 87.2559-68.9941 87.2559-66.748C87.2559-63.7695 88.916-62.9883 91.6016-62.6953C96.6309-62.1094 98.4863-59.6191 98.4863-54.1992L98.4863-46.6309C98.4863-40.9668 102.246-36.6211 108.594-36.0352C110.645-35.9375 110.547-34.4727 108.594-34.2773C102.246-33.7891 98.4863-29.3457 98.4863-23.6816L98.4863-16.1621C98.4863-8.83789 96.7285-9.47266 90.2344-7.32422C88.0371-6.68945 87.2559-5.76172 87.2559-3.56445C87.2559 0.146484 90.918 1.12305 94.5801 1.12305ZM38.1836 1.12305C41.8457 1.12305 45.5078 0.146484 45.5078-3.56445C45.5078-5.76172 44.7266-6.68945 42.5293-7.32422C36.0352-9.47266 34.2773-8.83789 34.2773-16.1621L34.2773-23.6816C34.2773-29.3457 30.5176-33.7891 24.1699-34.2773C22.2168-34.4727 22.1191-35.9375 24.1699-36.0352C30.5176-36.6211 34.2773-40.9668 34.2773-46.6309L34.2773-54.1992C34.2773-59.6191 36.1816-62.1094 41.1621-62.6953C43.8477-62.9883 45.5078-63.7695 45.5078-66.748C45.5078-68.9941 44.2383-70.3613 41.3574-70.9961C32.6172-72.8027 21.8262-70.2637 21.8262-55.8594L21.8262-50.4883C21.8262-45.1172 19.7266-42.7734 14.6484-41.4062C11.5723-40.5762 9.76562-38.5742 9.76562-35.2051C9.76562-31.7871 11.5234-29.7363 14.6484-28.9551C19.8242-27.6855 21.8262-25.1465 21.8262-19.8242L21.8262-14.4043C21.8262-3.17383 26.8555 1.12305 38.1836 1.12305ZM78.5156-19.873C84.1797-19.873 88.7207-24.0234 88.7207-29.5898C88.7207-34.9609 85.0098-38.7695 80.2734-38.7695C78.125-38.7695 76.1719-38.2324 74.6094-36.7188C75.8301-40.8203 79.4434-43.5547 84.5703-43.9453C86.2305-44.043 87.5977-45.5078 87.5977-47.2168C87.5977-49.1211 85.8887-50.5859 83.5938-50.5859C74.8535-50.5859 67.0898-43.4082 67.0898-33.0566C67.0898-25.0977 71.6797-19.873 78.5156-19.873ZM52.8809-19.873C58.5938-19.873 63.1348-24.0234 63.1348-29.5898C63.1348-34.9609 59.4238-38.7695 54.5898-38.7695C52.4902-38.7695 50.5371-38.2324 48.9746-36.7188C50.2441-40.8203 53.8574-43.5547 58.9844-43.9453C60.6445-44.043 61.9629-45.5078 61.9629-47.2168C61.9629-49.1211 60.2051-50.5859 57.959-50.5859C49.2676-50.5859 41.4551-43.4082 41.4551-33.0566C41.4551-25.0977 46.0449-19.873 52.8809-19.873Z"/>
  </g>
  <g id="Bold-S" transform="matrix(1 0 0 1 2276.72 696)">
   <path d="M90.0391 0.732422C100.732 0.732422 105.615-3.71094 105.615-14.3066L105.615-20.9961C105.615-26.2695 107.422-28.5645 112.158-29.6387C115.137-30.2734 116.748-32.1777 116.748-35.2539C116.748-38.2324 115.088-40.0879 112.158-40.7715C107.471-41.8945 105.615-44.0918 105.615-49.3652L105.615-56.0059C105.615-68.7012 96.9727-71.9727 88.0859-70.8008C85.4004-70.3613 83.9355-69.2383 83.9355-66.8945C83.9355-64.1113 85.5469-63.4277 87.9395-63.1348C93.0664-62.6465 94.9707-60.3027 94.9707-54.6875L94.9707-45.9961C94.9707-40.2344 98.4863-36.1328 104.541-35.7422C105.859-35.791 105.811-34.7656 104.541-34.6191C98.4863-34.375 94.9707-30.1758 94.9707-24.3652L94.9707-15.7227C94.9707-8.64258 93.2129-8.83789 86.6211-6.98242C84.668-6.44531 83.9355-5.46875 83.9355-3.4668C83.9355-0.195312 87.0605 0.732422 90.0391 0.732422ZM36.4746 0.732422C39.4043 0.732422 42.5781-0.195312 42.5781-3.4668C42.5781-5.46875 41.7969-6.44531 39.8438-6.98242C33.252-8.83789 31.543-8.64258 31.543-15.7227L31.543-24.3652C31.543-30.1758 27.9785-34.375 21.9727-34.6191C20.7031-34.7656 20.6543-35.791 21.9727-35.7422C27.9785-36.1328 31.543-40.2344 31.543-45.9961L31.543-54.6875C31.543-60.3027 33.3984-62.6465 38.5742-63.1348C40.918-63.4277 42.5781-64.1113 42.5781-66.8945C42.5781-69.2383 41.0645-70.3613 38.4277-70.8008C29.4922-71.9727 20.8984-68.7012 20.8984-56.0059L20.8984-49.3652C20.8984-44.0918 19.043-41.8945 14.3555-40.7715C11.4258-40.0879 9.76562-38.2324 9.76562-35.2539C9.76562-32.1777 11.377-30.2734 14.3555-29.6387C19.0918-28.5645 20.8984-26.2695 20.8984-20.9961L20.8984-14.3066C20.8984-3.71094 25.7324 0.732422 36.4746 0.732422ZM75.2441-20.2148C80.6641-20.2148 85.0586-24.0723 85.0586-29.4922C85.0586-34.7656 81.4453-38.3789 76.7578-38.3789C74.6582-38.3789 72.7539-37.7441 71.3379-36.1816C72.6074-40.625 76.3184-43.6035 81.4941-43.8965C83.1543-43.9941 84.4727-45.4102 84.4727-47.0215C84.4727-48.9258 82.8125-50.2441 80.5664-50.2441C71.875-50.2441 64.0625-42.9688 64.0625-32.7637C64.0625-25.1953 68.75-20.2148 75.2441-20.2148ZM50.2441-20.2148C55.7129-20.2148 60.1074-24.0723 60.1074-29.4922C60.1074-34.7656 56.4941-38.3789 51.8066-38.3789C49.6582-38.3789 47.7539-37.7441 46.3867-36.1816C47.6074-40.625 51.3184-43.5547 56.5918-43.8965C58.2031-44.043 59.4727-45.4102 59.4727-47.0215C59.4727-48.9258 57.7637-50.2441 55.6152-50.2441C46.9238-50.2441 39.1113-42.9688 39.1113-32.7637C39.1113-25.1953 43.75-20.2148 50.2441-20.2148Z"/>
  </g>
  <g id="Semibold-S" transform="matrix(1 0 0 1 1982.18 696)">
   <path d="M35.3027 0.439453C37.7441 0.439453 40.5273-0.390625 40.5273-3.41797C40.5273-5.27344 39.7949-6.25 38.0371-6.73828C31.3477-8.44727 29.6387-8.54492 29.6387-15.4785L29.6387-24.8535C29.6387-30.7129 26.2695-34.8145 20.4102-34.8145C19.6289-34.9121 19.5801-35.6934 20.459-35.5469C26.2695-35.791 29.6387-39.6973 29.6387-45.5078L29.6387-55.0293C29.6387-60.7422 31.4941-63.0859 36.7676-63.4766C38.916-63.6719 40.5273-64.4043 40.5273-66.9922C40.5273-69.3848 38.8672-70.4102 36.377-70.7031C27.3438-71.4355 20.2637-67.627 20.2637-56.1523L20.2637-48.584C20.2637-43.3594 18.5547-41.3086 14.1602-40.332C11.3281-39.7949 9.76562-38.0371 9.76562-35.3027C9.76562-32.4707 11.2793-30.6641 14.1602-30.0781C18.6035-29.1504 20.2637-27.0508 20.2637-21.8262L20.2637-14.2578C20.2637-4.05273 25 0.439453 35.3027 0.439453ZM86.8652 0.439453C97.168 0.439453 101.904-4.05273 101.904-14.2578L101.904-21.8262C101.904-27.0508 103.564-29.1504 108.008-30.0781C110.889-30.6641 112.402-32.4707 112.402-35.3027C112.402-38.0371 110.84-39.7949 108.008-40.332C103.613-41.3086 101.904-43.3594 101.904-48.584L101.904-56.1523C101.904-67.627 94.8242-71.4355 85.791-70.7031C83.252-70.4102 81.6406-69.3848 81.6406-66.9922C81.6406-64.4043 83.252-63.6719 85.4004-63.4766C90.6738-63.0859 92.5293-60.7422 92.5293-55.0293L92.5293-45.5078C92.5293-39.6973 95.8984-35.791 101.709-35.5469C102.588-35.6934 102.539-34.9121 101.758-34.8145C95.8984-34.8145 92.5293-30.7129 92.5293-24.8535L92.5293-15.4785C92.5293-8.54492 90.8203-8.44727 84.1309-6.73828C82.373-6.25 81.6406-5.27344 81.6406-3.41797C81.6406-0.390625 84.4238 0.439453 86.8652 0.439453ZM72.998-20.459C78.2227-20.459 82.5195-24.0723 82.5195-29.4922C82.5195-34.668 79.0039-38.0859 74.4141-38.0859C72.2168-38.0859 70.4102-37.4023 69.0918-35.8398C70.3125-40.4785 74.1211-43.6035 79.3945-43.8965C81.0547-43.9453 82.2754-45.3125 82.2754-46.875C82.2754-48.8281 80.6641-50 78.4668-50C69.8242-50 62.0117-42.7246 62.0117-32.6172C62.0117-25.293 66.6992-20.459 72.998-20.459ZM48.4375-20.459C53.7109-20.459 58.0078-24.0723 58.0078-29.4922C58.0078-34.668 54.4922-38.0859 49.8535-38.0859C47.6562-38.0859 45.8984-37.4023 44.5801-35.8398C45.8008-40.4785 49.6094-43.6035 54.9316-43.8965C56.543-43.9941 57.7637-45.3125 57.7637-46.875C57.7637-48.8281 56.1035-50 53.9551-50C45.3125-50 37.5-42.7246 37.5-32.6172C37.5-25.293 42.1875-20.459 48.4375-20.459Z"/>
  </g>
  <g id="Medium-S" transform="matrix(1 0 0 1 1687.11 696)">
   <path d="M34.375 0.244141C36.5234 0.244141 39.0137-0.585938 39.0137-3.41797C39.0137-5.12695 38.2812-6.10352 36.6211-6.54297C29.8828-8.10547 28.1738-8.44727 28.1738-15.2344L28.1738-25.1953C28.1738-31.1035 24.9512-35.1562 19.2871-35.0098C18.7988-35.0586 18.7988-35.5957 19.2871-35.4004C24.9512-35.5469 28.1738-39.3066 28.1738-45.166L28.1738-55.2734C28.1738-61.084 30.0781-63.3789 35.4004-63.7207C37.4023-63.916 39.0137-64.5996 39.0137-67.0898C39.0137-69.4824 37.2559-70.4102 34.8145-70.5566C25.7324-70.9961 19.7266-66.7969 19.7266-56.2012L19.7266-47.998C19.7266-42.8223 18.2129-40.8691 14.0137-40.0391C11.2305-39.502 9.76562-37.8418 9.76562-35.3027C9.76562-32.666 11.1816-30.957 14.0137-30.4688C18.2129-29.5898 19.7266-27.6367 19.7266-22.4121L19.7266-14.209C19.7266-4.29688 24.4141 0.244141 34.375 0.244141ZM84.4727 0.244141C94.4824 0.244141 99.1211-4.29688 99.1211-14.209L99.1211-22.4121C99.1211-27.6367 100.684-29.5898 104.883-30.4688C107.715-30.957 109.131-32.666 109.131-35.3027C109.131-37.8418 107.617-39.502 104.883-40.0391C100.684-40.8691 99.1211-42.8223 99.1211-47.998L99.1211-56.2012C99.1211-66.7969 93.1641-70.9961 84.0332-70.5566C81.6406-70.4102 79.8828-69.4824 79.8828-67.0898C79.8828-64.5996 81.4941-63.916 83.4961-63.7207C88.8184-63.3789 90.7227-61.084 90.7227-55.2734L90.7227-45.166C90.7227-39.3066 93.9453-35.5469 99.6094-35.4004C100.098-35.5957 100.049-35.0586 99.6094-35.0098C93.9453-35.1562 90.7227-31.1035 90.7227-25.1953L90.7227-15.2344C90.7227-8.44727 88.9648-8.10547 82.2754-6.54297C80.6152-6.10352 79.8828-5.12695 79.8828-3.41797C79.8828-0.585938 82.373 0.244141 84.4727 0.244141ZM71.2891-20.6543C76.416-20.6543 80.6152-24.1211 80.6152-29.4434C80.6152-34.5703 77.1484-37.8906 72.5586-37.8906C70.4102-37.8906 68.6035-37.1582 67.4316-35.5469C68.6523-40.3809 72.5098-43.6523 77.7832-43.8477C79.3945-43.9453 80.6641-45.2148 80.6641-46.7773C80.6641-48.7305 79.0527-49.8047 76.9043-49.8047C68.2617-49.8047 60.4004-42.4805 60.4004-32.4707C60.4004-25.3418 65.1367-20.6543 71.2891-20.6543ZM47.0703-20.6543C52.1973-20.6543 56.3965-24.1211 56.3965-29.4434C56.3965-34.5703 52.9785-37.8906 48.3887-37.8906C46.1914-37.8906 44.4336-37.1582 43.2129-35.5469C44.4336-40.3809 48.291-43.6035 53.6621-43.8477C55.2734-43.9941 56.4941-45.2148 56.4941-46.7773C56.4941-48.7305 54.834-49.8047 52.7344-49.8047C44.0918-49.8047 36.2793-42.4805 36.2793-32.4707C36.2793-25.3418 40.9668-20.6543 47.0703-20.6543Z"/>
  </g>
  <g id="Regular-S" transform="matrix(1 0 0 1 1392.54 696)">
   <path d="M81.3477 0C90.9668 0 95.5078-4.63867 95.5078-14.1602L95.5078-23.2422C95.5078-28.418 96.875-30.2246 100.83-30.9082C103.564-31.2988 104.834-32.959 104.834-35.3516C104.834-37.5977 103.467-39.209 100.83-39.5996C96.875-40.2832 95.5078-42.0898 95.5078-47.2168L95.5078-56.2988C95.5078-65.7715 91.0156-70.459 81.7871-70.459C79.541-70.459 77.6367-69.6289 77.6367-67.1875C77.6367-64.8438 79.1992-64.1602 81.0059-64.0625C86.4258-63.7695 88.3301-61.5723 88.3301-55.6152L88.3301-44.7266C88.3301-39.1113 91.0645-35.5957 95.9961-35.2539C91.0645-35.1562 88.3301-31.3477 88.3301-25.6836L88.3301-14.9902C88.3301-8.30078 86.6211-7.71484 79.7852-6.29883C78.3203-5.9082 77.6367-4.93164 77.6367-3.36914C77.6367-0.830078 79.7363 0 81.3477 0ZM33.252 0C34.8633 0 36.9629-0.830078 36.9629-3.36914C36.9629-4.93164 36.2793-5.9082 34.8145-6.29883C28.0273-7.71484 26.3184-8.30078 26.3184-14.9902L26.3184-25.6836C26.3184-31.3477 23.5352-35.1562 18.6035-35.2539C23.5352-35.5957 26.3184-39.1113 26.3184-44.7266L26.3184-55.6152C26.3184-61.5723 28.1738-63.7695 33.5938-64.0625C35.4004-64.1602 36.9629-64.8438 36.9629-67.1875C36.9629-69.6289 35.0586-70.459 32.8125-70.459C23.584-70.459 19.0918-65.7715 19.0918-56.2988L19.0918-47.2168C19.0918-42.0898 17.7246-40.2832 13.8184-39.5996C11.1328-39.209 9.76562-37.5977 9.76562-35.3516C9.76562-32.959 11.084-31.2988 13.8184-30.9082C17.7246-30.2246 19.0918-28.418 19.0918-23.2422L19.0918-14.1602C19.0918-4.63867 23.6328 0 33.252 0ZM69.043-20.9473C73.9746-20.9473 78.125-24.1211 78.125-29.3945C78.125-34.4238 74.707-37.5977 70.2148-37.5977C68.0176-37.5977 66.2598-36.8164 65.1855-35.1562C66.4062-40.2832 70.3613-43.6523 75.6836-43.8477C77.2949-43.8965 78.5156-45.1172 78.5156-46.6309C78.5156-48.584 77.002-49.5605 74.8535-49.5605C66.2598-49.5605 58.3496-42.2363 58.3496-32.2754C58.3496-25.3906 63.1348-20.9473 69.043-20.9473ZM45.3125-20.9473C50.2441-20.9473 54.3457-24.1211 54.3457-29.3945C54.3457-34.4238 50.9766-37.5977 46.4355-37.5977C44.2383-37.5977 42.5781-36.8164 41.4551-35.1562C42.627-40.2832 46.582-43.6035 52.0508-43.8477C53.6133-43.9453 54.7852-45.1172 54.7852-46.6309C54.7852-48.584 53.1738-49.5605 51.123-49.5605C42.4805-49.5605 34.668-42.2363 34.668-32.2754C34.668-25.3906 39.4043-20.9473 45.3125-20.9473Z"/>
  </g>
  <g id="Light-S" transform="matrix(1 0 0 1 1097.35 696)">
   <path d="M79.0039-0.683594C88.3789-0.683594 92.334-4.98047 92.334-14.3066L92.334-23.6816C92.334-29.1504 94.0918-30.957 98.1934-31.6895C100.635-31.9824 101.807-33.3984 101.807-35.3027C101.807-37.1582 100.537-38.5254 98.1934-38.8184C94.0918-39.5996 92.334-41.3574 92.334-46.8262L92.334-56.1523C92.334-65.1855 88.4277-69.7754 79.2969-69.7754C77.5391-69.7754 76.123-69.0918 76.123-67.2363C76.123-65.332 77.1973-64.8926 78.7598-64.7949C84.4238-64.5996 86.8164-61.9629 86.8164-55.7129L86.8164-44.5312C86.8164-39.1602 89.6484-35.6445 94.4824-35.2051C89.6484-35.0586 86.8164-31.2988 86.8164-25.6348L86.8164-14.8926C86.8164-8.10547 84.5215-6.5918 77.9297-5.61523C76.6113-5.37109 76.123-4.6875 76.123-3.27148C76.123-1.26953 77.5391-0.683594 79.0039-0.683594ZM32.5684-0.683594C34.0332-0.683594 35.4492-1.26953 35.4492-3.27148C35.4492-4.6875 34.9609-5.37109 33.6426-5.61523C27.0508-6.5918 24.7559-8.10547 24.7559-14.8926L24.7559-25.6348C24.7559-31.2988 21.9238-35.0586 17.0898-35.2051C21.9238-35.6445 24.7559-39.1602 24.7559-44.5312L24.7559-55.7129C24.7559-61.9629 27.1484-64.5996 32.8125-64.7949C34.375-64.8926 35.4492-65.332 35.4492-67.2363C35.4492-69.0918 34.0332-69.7754 32.2754-69.7754C23.1445-69.7754 19.2383-65.1855 19.2383-56.1523L19.2383-46.8262C19.2383-41.3574 17.4805-39.5996 13.3789-38.8184C10.9863-38.5254 9.76562-37.1582 9.76562-35.3027C9.76562-33.3984 10.9375-31.9824 13.3789-31.6895C17.4805-30.957 19.2383-29.1504 19.2383-23.6816L19.2383-14.3066C19.2383-4.98047 23.1934-0.683594 32.5684-0.683594ZM66.8945-21.3867C71.582-21.3867 75.4883-24.707 75.4883-29.6387C75.4883-34.375 72.2168-37.5977 67.6758-37.5977C65.2832-37.5977 63.3301-36.5723 62.2559-34.7168C63.3301-40.5273 67.7246-44.3359 73.2422-44.4336C74.6094-44.4824 75.5859-45.459 75.5859-46.7285C75.5859-48.291 74.3652-49.1211 72.6074-49.1211C64.209-49.1211 56.8359-41.8945 56.8359-32.5195C56.8359-25.7812 61.1816-21.3867 66.8945-21.3867ZM44.043-21.3867C48.7305-21.3867 52.6855-24.707 52.6855-29.6387C52.6855-34.375 49.4141-37.5977 44.873-37.5977C42.4316-37.5977 40.5273-36.5723 39.4043-34.7168C40.4785-40.5273 44.873-44.2871 50.4883-44.4336C51.8066-44.5312 52.7832-45.459 52.7832-46.7285C52.7832-48.291 51.4648-49.1211 49.8535-49.1211C41.3574-49.1211 33.9844-41.8945 33.9844-32.5195C33.9844-25.7812 38.3789-21.3867 44.043-21.3867Z"/>
  </g>
  <g id="Thin-S" transform="matrix(1 0 0 1 802.638 696)">
   <path d="M75.8789-1.5625C84.9609-1.5625 88.1836-5.46875 88.1836-14.502L88.1836-24.2188C88.1836-30.127 90.4297-31.8848 94.7266-32.7148C96.7773-32.8613 97.8027-33.9355 97.8027-35.3027C97.8027-36.5723 96.7285-37.6465 94.7266-37.793C90.4297-38.623 88.1836-40.3809 88.1836-46.2402L88.1836-56.0059C88.1836-64.3555 85.0098-68.8965 75.9766-68.8965C74.8535-68.8965 74.1699-68.3594 74.1699-67.334C74.1699-65.9668 74.6094-65.7715 75.7812-65.7227C81.7383-65.6738 84.8145-62.5488 84.8145-55.8105L84.8145-44.2871C84.8145-39.1602 87.793-35.6934 92.5781-35.2051C87.793-34.8633 84.8145-31.2988 84.8145-25.5371L84.8145-14.7461C84.8145-7.8125 81.7871-5.07812 75.4395-4.73633C74.3652-4.63867 74.1699-4.3457 74.1699-3.17383C74.1699-1.85547 74.6582-1.5625 75.8789-1.5625ZM31.6895-1.5625C32.9102-1.5625 33.3984-1.85547 33.3984-3.17383C33.3984-4.3457 33.2031-4.63867 32.1289-4.73633C25.7812-5.07812 22.7539-7.8125 22.7539-14.7461L22.7539-25.5371C22.7539-31.2988 19.7754-34.8633 14.9902-35.2051C19.7754-35.6934 22.7539-39.1602 22.7539-44.2871L22.7539-55.8105C22.7539-62.5488 25.8301-65.6738 31.7871-65.7227C32.959-65.7715 33.3984-65.9668 33.3984-67.334C33.3984-68.3594 32.7148-68.8965 31.5918-68.8965C22.5586-68.8965 19.3848-64.3555 19.3848-56.0059L19.3848-46.2402C19.3848-40.3809 17.1387-38.623 12.8418-37.793C10.8398-37.6465 9.76562-36.5723 9.76562-35.3027C9.76562-33.9355 10.791-32.8613 12.8418-32.7148C17.1387-31.8848 19.3848-30.127 19.3848-24.2188L19.3848-14.502C19.3848-5.46875 22.6074-1.5625 31.6895-1.5625ZM64.0625-21.9238C68.4082-21.9238 72.0703-25.4395 72.0703-29.9805C72.0703-34.375 68.9453-37.5977 64.3555-37.5977C61.7188-37.5977 59.4727-36.2305 58.3496-34.1309C59.2773-40.8203 64.3066-45.2148 70.0684-45.2637C71.0449-45.2637 71.7285-45.9473 71.7285-46.8262C71.7285-47.9004 70.8984-48.4863 69.6777-48.4863C61.4746-48.4863 54.7852-41.4551 54.7852-32.8613C54.7852-26.2695 58.5938-21.9238 64.0625-21.9238ZM42.3828-21.9238C46.7773-21.9238 50.4883-25.4395 50.4883-29.9805C50.4883-34.375 47.3145-37.5977 42.7246-37.5977C40.0391-37.5977 37.8906-36.2305 36.7188-34.082C37.6465-40.8203 42.627-45.166 48.4863-45.2637C49.4629-45.2637 50.0977-45.9473 50.0977-46.8262C50.0977-47.9004 49.2676-48.4863 48.0957-48.4863C39.8438-48.4863 33.1543-41.4551 33.1543-32.8613C33.1543-26.2695 37.0117-21.9238 42.3828-21.9238Z"/>
  </g>
  <g id="Ultralight-S" transform="matrix(1 0 0 1 506.952 696)">
   <path d="M74.2676-2.05078C83.2031-2.05078 86.0352-5.71289 86.0352-14.5996L86.0352-24.5605C86.0352-30.6641 88.5742-32.4219 92.9199-33.252C94.7754-33.3008 95.752-34.2773 95.752-35.2539C95.752-36.2305 94.7754-37.207 92.9199-37.2559C88.5742-38.1348 86.0352-39.8438 86.0352-45.9473L86.0352-55.8594C86.0352-63.9648 83.252-68.457 74.2676-68.457C73.4863-68.457 73.1445-67.9688 73.1445-67.3828C73.1445-66.3086 73.2422-66.2598 74.2188-66.2598C80.3711-66.2109 83.7891-62.8418 83.7891-55.8594L83.7891-44.1895C83.7891-39.1602 86.8652-35.6934 91.6016-35.2051C86.8652-34.8145 83.7891-31.2988 83.7891-25.4883L83.7891-14.6484C83.7891-7.66602 80.4199-4.3457 74.1699-4.24805C73.1934-4.24805 73.1445-4.15039 73.1445-3.125C73.1445-2.19727 73.1934-2.05078 74.2676-2.05078ZM31.25-2.05078C32.3242-2.05078 32.373-2.19727 32.373-3.125C32.373-4.15039 32.2754-4.24805 31.3477-4.24805C25.0977-4.3457 21.7285-7.66602 21.7285-14.6484L21.7285-25.4883C21.7285-31.2988 18.6523-34.8145 13.916-35.2051C18.6523-35.6934 21.7285-39.1602 21.7285-44.1895L21.7285-55.8594C21.7285-62.8418 25.0977-66.2109 31.25-66.2598C32.2266-66.2598 32.373-66.3086 32.373-67.3828C32.373-67.9688 31.9824-68.457 31.25-68.457C22.2168-68.457 19.4824-63.9648 19.4824-55.8594L19.4824-45.9473C19.4824-39.8438 16.9434-38.1348 12.5488-37.2559C10.6934-37.207 9.76562-36.2305 9.76562-35.2539C9.76562-34.2773 10.6934-33.3008 12.5488-33.252C16.9434-32.4219 19.4824-30.6641 19.4824-24.5605L19.4824-14.5996C19.4824-5.71289 22.2656-2.05078 31.25-2.05078ZM62.5977-22.2656C66.7969-22.2656 70.2637-25.8301 70.2637-30.127C70.2637-34.3262 67.2363-37.5977 62.6465-37.5977C59.8633-37.5977 57.4707-36.0352 56.3477-33.7891C57.2266-40.9668 62.5-45.6543 68.4082-45.6543C69.2383-45.6543 69.7266-46.1914 69.7266-46.9238C69.7266-47.7051 69.0918-48.1445 68.1641-48.1445C60.1074-48.1445 53.7109-41.2109 53.7109-33.0566C53.7109-26.5137 57.2754-22.2656 62.5977-22.2656ZM41.5527-22.2656C45.8008-22.2656 49.3164-25.8301 49.3164-30.127C49.3164-34.3262 46.2402-37.5977 41.6504-37.5977C38.8184-37.5977 36.4746-36.0352 35.3027-33.7402C36.1816-40.9668 41.4551-45.6543 47.4609-45.6543C48.291-45.6543 48.7305-46.1914 48.7305-46.9238C48.7305-47.7051 48.0957-48.1445 47.2168-48.1445C39.1113-48.1445 32.7148-41.2109 32.7148-33.0566C32.7148-26.5137 36.2793-22.2656 41.5527-22.2656Z"/>
  </g>
 </g>
</svg>
