<?xml version="1.0" encoding="UTF-8"?>
<!--Generator: Apple Native CoreSVG 149-->
<!DOCTYPE svg
PUBLIC "-//W3C//DTD SVG 1.1//EN"
       "http://www.w3.org/Graphics/SVG/1.1/DTD/svg11.dtd">
<svg version="1.1" xmlns="http://www.w3.org/2000/svg" xmlns:xlink="http://www.w3.org/1999/xlink" width="3300" height="2200">
 <!--glyph: "js", point size: 100.0, font version: "17.0d4e2", template writer version: "0"-->
 <g id="Notes">
  <rect height="2200" id="artboard" style="fill:white;opacity:1" width="3300" x="0" y="0"/>
  <line style="fill:none;stroke:black;opacity:1;stroke-width:0.5;" x1="263" x2="3036" y1="292" y2="292"/>
  <text style="stroke:none;fill:black;font-family:-apple-system,&quot;SF Pro Display&quot;,&quot;SF Pro Text&quot;,Helvetica,sans-serif;font-weight:bold;" transform="matrix(1 0 0 1 263 322)">Weight/Scale Variations</text>
  <text style="stroke:none;fill:black;font-family:-apple-system,&quot;SF Pro Display&quot;,&quot;SF Pro Text&quot;,Helvetica,sans-serif;text-anchor:middle;" transform="matrix(1 0 0 1 559.711 322)">Ultralight</text>
  <text style="stroke:none;fill:black;font-family:-apple-system,&quot;SF Pro Display&quot;,&quot;SF Pro Text&quot;,Helvetica,sans-serif;text-anchor:middle;" transform="matrix(1 0 0 1 856.422 322)">Thin</text>
  <text style="stroke:none;fill:black;font-family:-apple-system,&quot;SF Pro Display&quot;,&quot;SF Pro Text&quot;,Helvetica,sans-serif;text-anchor:middle;" transform="matrix(1 0 0 1 1153.13 322)">Light</text>
  <text style="stroke:none;fill:black;font-family:-apple-system,&quot;SF Pro Display&quot;,&quot;SF Pro Text&quot;,Helvetica,sans-serif;text-anchor:middle;" transform="matrix(1 0 0 1 1449.84 322)">Regular</text>
  <text style="stroke:none;fill:black;font-family:-apple-system,&quot;SF Pro Display&quot;,&quot;SF Pro Text&quot;,Helvetica,sans-serif;text-anchor:middle;" transform="matrix(1 0 0 1 1746.56 322)">Medium</text>
  <text style="stroke:none;fill:black;font-family:-apple-system,&quot;SF Pro Display&quot;,&quot;SF Pro Text&quot;,Helvetica,sans-serif;text-anchor:middle;" transform="matrix(1 0 0 1 2043.27 322)">Semibold</text>
  <text style="stroke:none;fill:black;font-family:-apple-system,&quot;SF Pro Display&quot;,&quot;SF Pro Text&quot;,Helvetica,sans-serif;text-anchor:middle;" transform="matrix(1 0 0 1 2339.98 322)">Bold</text>
  <text style="stroke:none;fill:black;font-family:-apple-system,&quot;SF Pro Display&quot;,&quot;SF Pro Text&quot;,Helvetica,sans-serif;text-anchor:middle;" transform="matrix(1 0 0 1 2636.69 322)">Heavy</text>
  <text style="stroke:none;fill:black;font-family:-apple-system,&quot;SF Pro Display&quot;,&quot;SF Pro Text&quot;,Helvetica,sans-serif;text-anchor:middle;" transform="matrix(1 0 0 1 2933.4 322)">Black</text>
  <line style="fill:none;stroke:black;opacity:1;stroke-width:0.5;" x1="263" x2="3036" y1="1903" y2="1903"/>
  <g transform="matrix(1 0 0 1 263 1933)">
   <path d="M9.24805 0.830078C13.5547 0.830078 17.1387-2.74414 17.1387-7.05078C17.1387-11.3574 13.5449-14.9316 9.23828-14.9316C4.94141-14.9316 1.36719-11.3574 1.36719-7.05078C1.36719-2.74414 4.95117 0.830078 9.24805 0.830078ZM9.24805-0.654297C5.70312-0.654297 2.87109-3.49609 2.87109-7.05078C2.87109-10.6055 5.69336-13.4473 9.23828-13.4473C12.793-13.4473 15.6348-10.6055 15.6445-7.05078C15.6543-3.49609 12.8027-0.654297 9.24805-0.654297ZM5.83984-7.04102C5.83984-6.61133 6.14258-6.31836 6.5918-6.31836L8.50586-6.31836L8.50586-4.39453C8.50586-3.95508 8.79883-3.65234 9.22852-3.65234C9.67773-3.65234 9.9707-3.95508 9.9707-4.39453L9.9707-6.31836L11.9043-6.31836C12.3438-6.31836 12.6465-6.61133 12.6465-7.04102C12.6465-7.48047 12.3438-7.7832 11.9043-7.7832L9.9707-7.7832L9.9707-9.69727C9.9707-10.1465 9.67773-10.4492 9.22852-10.4492C8.79883-10.4492 8.50586-10.1465 8.50586-9.69727L8.50586-7.7832L6.5918-7.7832C6.14258-7.7832 5.83984-7.48047 5.83984-7.04102Z"/>
  </g>
  <g transform="matrix(1 0 0 1 281.867 1933)">
   <path d="M11.709 2.91016C17.1582 2.91016 21.6699-1.61133 21.6699-7.05078C21.6699-12.5 17.1484-17.0117 11.6992-17.0117C6.25977-17.0117 1.74805-12.5 1.74805-7.05078C1.74805-1.61133 6.26953 2.91016 11.709 2.91016ZM11.709 1.25C7.09961 1.25 3.41797-2.44141 3.41797-7.05078C3.41797-11.6602 7.08984-15.3516 11.6992-15.3516C16.3086-15.3516 20-11.6602 20.0098-7.05078C20.0195-2.44141 16.3184 1.25 11.709 1.25ZM7.39258-7.04102C7.39258-6.5625 7.73438-6.24023 8.23242-6.24023L10.8789-6.24023L10.8789-3.57422C10.8789-3.08594 11.2109-2.75391 11.6895-2.75391C12.1777-2.75391 12.5195-3.08594 12.5195-3.57422L12.5195-6.24023L15.1758-6.24023C15.6641-6.24023 16.0059-6.5625 16.0059-7.04102C16.0059-7.5293 15.6641-7.87109 15.1758-7.87109L12.5195-7.87109L12.5195-10.5176C12.5195-11.0254 12.1777-11.3574 11.6895-11.3574C11.2109-11.3574 10.8789-11.0156 10.8789-10.5176L10.8789-7.87109L8.23242-7.87109C7.73438-7.87109 7.39258-7.5293 7.39258-7.04102Z"/>
  </g>
  <g transform="matrix(1 0 0 1 305.646 1933)">
   <path d="M14.9707 5.66406C21.9336 5.66406 27.6953-0.0976562 27.6953-7.05078C27.6953-14.0137 21.9238-19.7754 14.9609-19.7754C8.00781-19.7754 2.25586-14.0137 2.25586-7.05078C2.25586-0.0976562 8.01758 5.66406 14.9707 5.66406ZM14.9707 3.84766C8.93555 3.84766 4.08203-1.01562 4.08203-7.05078C4.08203-13.0957 8.92578-17.9492 14.9609-17.9492C21.0059-17.9492 25.8594-13.0957 25.8691-7.05078C25.8789-1.01562 21.0156 3.84766 14.9707 3.84766ZM9.45312-7.04102C9.45312-6.52344 9.83398-6.16211 10.3711-6.16211L14.0625-6.16211L14.0625-2.46094C14.0625-1.93359 14.4336-1.55273 14.9512-1.55273C15.4883-1.55273 15.8594-1.92383 15.8594-2.46094L15.8594-6.16211L19.5605-6.16211C20.0879-6.16211 20.4688-6.52344 20.4688-7.04102C20.4688-7.57812 20.0977-7.95898 19.5605-7.95898L15.8594-7.95898L15.8594-11.6504C15.8594-12.1973 15.4883-12.5684 14.9512-12.5684C14.4336-12.5684 14.0625-12.1875 14.0625-11.6504L14.0625-7.95898L10.3711-7.95898C9.82422-7.95898 9.45312-7.57812 9.45312-7.04102Z"/>
  </g>
  <text style="stroke:none;fill:black;font-family:-apple-system,&quot;SF Pro Display&quot;,&quot;SF Pro Text&quot;,Helvetica,sans-serif;font-weight:bold;" transform="matrix(1 0 0 1 263 1953)">Design Variations</text>
  <text style="stroke:none;fill:black;font-family:-apple-system,&quot;SF Pro Display&quot;,&quot;SF Pro Text&quot;,Helvetica,sans-serif;" transform="matrix(1 0 0 1 263 1971)">Symbols are supported in up to nine weights and three scales.</text>
  <text style="stroke:none;fill:black;font-family:-apple-system,&quot;SF Pro Display&quot;,&quot;SF Pro Text&quot;,Helvetica,sans-serif;" transform="matrix(1 0 0 1 263 1989)">For optimal layout with text and other symbols, vertically align</text>
  <text style="stroke:none;fill:black;font-family:-apple-system,&quot;SF Pro Display&quot;,&quot;SF Pro Text&quot;,Helvetica,sans-serif;" transform="matrix(1 0 0 1 263 2007)">symbols with the adjacent text.</text>
  <line style="fill:none;stroke:#00AEEF;stroke-width:0.5;opacity:1.0;" x1="776" x2="776" y1="1919" y2="1933"/>
  <g transform="matrix(1 0 0 1 776 1933)">
   <path d="M3.31055 0.15625C3.82812 0.15625 4.08203-0.0390625 4.26758-0.585938L5.52734-4.0332L11.2891-4.0332L12.5488-0.585938C12.7344-0.0390625 12.9883 0.15625 13.4961 0.15625C14.0137 0.15625 14.3457-0.15625 14.3457-0.644531C14.3457-0.810547 14.3164-0.966797 14.2383-1.17188L9.6582-13.3691C9.43359-13.9648 9.0332-14.2676 8.4082-14.2676C7.80273-14.2676 7.39258-13.9746 7.17773-13.3789L2.59766-1.16211C2.51953-0.957031 2.49023-0.800781 2.49023-0.634766C2.49023-0.146484 2.80273 0.15625 3.31055 0.15625ZM6.00586-5.51758L8.37891-12.0898L8.42773-12.0898L10.8008-5.51758Z"/>
  </g>
  <line style="fill:none;stroke:#00AEEF;stroke-width:0.5;opacity:1.0;" x1="793.197" x2="793.197" y1="1919" y2="1933"/>
  <text style="stroke:none;fill:black;font-family:-apple-system,&quot;SF Pro Display&quot;,&quot;SF Pro Text&quot;,Helvetica,sans-serif;font-weight:bold;" transform="matrix(1 0 0 1 776 1953)">Margins</text>
  <text style="stroke:none;fill:black;font-family:-apple-system,&quot;SF Pro Display&quot;,&quot;SF Pro Text&quot;,Helvetica,sans-serif;" transform="matrix(1 0 0 1 776 1971)">Leading and trailing margins on the left and right side of each symbol</text>
  <text style="stroke:none;fill:black;font-family:-apple-system,&quot;SF Pro Display&quot;,&quot;SF Pro Text&quot;,Helvetica,sans-serif;" transform="matrix(1 0 0 1 776 1989)">can be adjusted by modifying the x-location of the margin guidelines.</text>
  <text style="stroke:none;fill:black;font-family:-apple-system,&quot;SF Pro Display&quot;,&quot;SF Pro Text&quot;,Helvetica,sans-serif;" transform="matrix(1 0 0 1 776 2007)">Modifications are automatically applied proportionally to all</text>
  <text style="stroke:none;fill:black;font-family:-apple-system,&quot;SF Pro Display&quot;,&quot;SF Pro Text&quot;,Helvetica,sans-serif;" transform="matrix(1 0 0 1 776 2025)">scales and weights.</text>
  <g transform="matrix(1 0 0 1 1289 1933)">
   <path d="M2.8418 1.86523L4.54102 3.57422C5.40039 4.44336 6.38672 4.38477 7.31445 3.35938L18.0078-8.42773L17.041-9.4043L6.42578 2.27539C6.07422 2.67578 5.74219 2.77344 5.27344 2.30469L4.10156 1.14258C3.63281 0.683594 3.74023 0.341797 4.14062-0.0195312L15.6152-10.8203L14.6387-11.7871L3.04688-0.898438C2.06055 0.0195312 1.98242 0.996094 2.8418 1.86523ZM9.25781-16.3281C8.83789-15.918 8.80859-15.3418 9.04297-14.9512C9.27734-14.5898 9.73633-14.3555 10.3809-14.5215C11.8457-14.8633 13.3691-14.9219 14.7949-13.9844L14.209-12.5293C13.8672-11.6992 14.043-11.1133 14.5801-10.5664L16.875-8.25195C17.3633-7.76367 17.7734-7.74414 18.3398-7.8418L19.4043-8.03711L20.0684-7.36328L20.0293-6.80664C19.9902-6.30859 20.1172-5.92773 20.6055-5.44922L21.3672-4.70703C21.8457-4.22852 22.4609-4.19922 22.9297-4.66797L25.8398-7.58789C26.3086-8.05664 26.2891-8.65234 25.8105-9.13086L25.0391-9.89258C24.5605-10.3711 24.1895-10.5273 23.7109-10.4883L23.1348-10.4395L22.4902-11.0742L22.7344-12.1973C22.8613-12.7637 22.7051-13.2031 22.1191-13.7891L19.9219-15.9766C16.582-19.2969 12.1484-19.2188 9.25781-16.3281ZM10.752-15.957C13.1836-17.7344 16.4746-17.4316 18.7012-15.2051L21.1328-12.793C21.3672-12.5586 21.4062-12.373 21.3379-12.0312L21.0156-10.5469L22.5195-9.0625L23.5059-9.12109C23.7598-9.13086 23.8379-9.11133 24.0332-8.91602L24.6094-8.33984L22.168-5.89844L21.5918-6.47461C21.3965-6.66992 21.3672-6.74805 21.377-7.01172L21.4453-7.98828L19.9512-9.47266L18.4277-9.21875C18.1055-9.15039 17.959-9.17969 17.7148-9.41406L15.7129-11.416C15.459-11.6504 15.4297-11.8164 15.5859-12.1875L16.4648-14.2773C14.9023-15.7324 12.8711-16.3574 10.8398-15.7617C10.6836-15.7227 10.625-15.8496 10.752-15.957Z"/>
  </g>
  <text style="stroke:none;fill:black;font-family:-apple-system,&quot;SF Pro Display&quot;,&quot;SF Pro Text&quot;,Helvetica,sans-serif;font-weight:bold;" transform="matrix(1 0 0 1 1289 1953)">Exporting</text>
  <text style="stroke:none;fill:black;font-family:-apple-system,&quot;SF Pro Display&quot;,&quot;SF Pro Text&quot;,Helvetica,sans-serif;" transform="matrix(1 0 0 1 1289 1971)">Symbols should be outlined when exporting to ensure the</text>
  <text style="stroke:none;fill:black;font-family:-apple-system,&quot;SF Pro Display&quot;,&quot;SF Pro Text&quot;,Helvetica,sans-serif;" transform="matrix(1 0 0 1 1289 1989)">design is preserved when submitting to Xcode.</text>
  <text id="template-version" style="stroke:none;fill:black;font-family:-apple-system,&quot;SF Pro Display&quot;,&quot;SF Pro Text&quot;,Helvetica,sans-serif;text-anchor:end;" transform="matrix(1 0 0 1 3036 1933)">Template v.2.0</text>
  <text style="stroke:none;fill:black;font-family:-apple-system,&quot;SF Pro Display&quot;,&quot;SF Pro Text&quot;,Helvetica,sans-serif;text-anchor:end;" transform="matrix(1 0 0 1 3036 1951)">Requires Xcode 13 or greater</text>
  <text id="descriptive-name" style="stroke:none;fill:black;font-family:-apple-system,&quot;SF Pro Display&quot;,&quot;SF Pro Text&quot;,Helvetica,sans-serif;text-anchor:end;" transform="matrix(1 0 0 1 3036 1969)">Generated from js</text>
  <text style="stroke:none;fill:black;font-family:-apple-system,&quot;SF Pro Display&quot;,&quot;SF Pro Text&quot;,Helvetica,sans-serif;text-anchor:end;" transform="matrix(1 0 0 1 3036 1987)">Typeset at 100 points</text>
  <text style="stroke:none;fill:black;font-family:-apple-system,&quot;SF Pro Display&quot;,&quot;SF Pro Text&quot;,Helvetica,sans-serif;" transform="matrix(1 0 0 1 263 726)">Small</text>
  <text style="stroke:none;fill:black;font-family:-apple-system,&quot;SF Pro Display&quot;,&quot;SF Pro Text&quot;,Helvetica,sans-serif;" transform="matrix(1 0 0 1 263 1156)">Medium</text>
  <text style="stroke:none;fill:black;font-family:-apple-system,&quot;SF Pro Display&quot;,&quot;SF Pro Text&quot;,Helvetica,sans-serif;" transform="matrix(1 0 0 1 263 1586)">Large</text>
 </g>
 <g id="Guides">
  <g id="H-reference" style="fill:#27AAE1;stroke:none;" transform="matrix(1 0 0 1 339 696)">
   <path d="M0.993654 0L3.63775 0L29.3281-67.1323L30.0303-67.1323L30.0303-70.459L28.1226-70.459ZM11.6885-24.4799L46.9815-24.4799L46.2315-26.7285L12.4385-26.7285ZM55.1196 0L57.7637 0L30.6382-70.459L29.4326-70.459L29.4326-67.1323Z"/>
  </g>
  <line id="Baseline-S" style="fill:none;stroke:#27AAE1;opacity:1;stroke-width:0.5;" x1="263" x2="3036" y1="696" y2="696"/>
  <line id="Capline-S" style="fill:none;stroke:#27AAE1;opacity:1;stroke-width:0.5;" x1="263" x2="3036" y1="625.541" y2="625.541"/>
  <g id="H-reference" style="fill:#27AAE1;stroke:none;" transform="matrix(1 0 0 1 339 1126)">
   <path d="M0.993654 0L3.63775 0L29.3281-67.1323L30.0303-67.1323L30.0303-70.459L28.1226-70.459ZM11.6885-24.4799L46.9815-24.4799L46.2315-26.7285L12.4385-26.7285ZM55.1196 0L57.7637 0L30.6382-70.459L29.4326-70.459L29.4326-67.1323Z"/>
  </g>
  <line id="Baseline-M" style="fill:none;stroke:#27AAE1;opacity:1;stroke-width:0.5;" x1="263" x2="3036" y1="1126" y2="1126"/>
  <line id="Capline-M" style="fill:none;stroke:#27AAE1;opacity:1;stroke-width:0.5;" x1="263" x2="3036" y1="1055.54" y2="1055.54"/>
  <g id="H-reference" style="fill:#27AAE1;stroke:none;" transform="matrix(1 0 0 1 339 1556)">
   <path d="M0.993654 0L3.63775 0L29.3281-67.1323L30.0303-67.1323L30.0303-70.459L28.1226-70.459ZM11.6885-24.4799L46.9815-24.4799L46.2315-26.7285L12.4385-26.7285ZM55.1196 0L57.7637 0L30.6382-70.459L29.4326-70.459L29.4326-67.1323Z"/>
  </g>
  <line id="Baseline-L" style="fill:none;stroke:#27AAE1;opacity:1;stroke-width:0.5;" x1="263" x2="3036" y1="1556" y2="1556"/>
  <line id="Capline-L" style="fill:none;stroke:#27AAE1;opacity:1;stroke-width:0.5;" x1="263" x2="3036" y1="1485.54" y2="1485.54"/>
  <line id="left-margin" style="fill:none;stroke:#00AEEF;stroke-width:0.5;opacity:1.0;" x1="1404.37" x2="1404.37" y1="1030.79" y2="1150.12"/>
  <line id="right-margin" style="fill:none;stroke:#00AEEF;stroke-width:0.5;opacity:1.0;" x1="1495.32" x2="1495.32" y1="1030.79" y2="1150.12"/>
 </g>
 <g id="Symbols">
  <g id="Black-L" transform="matrix(1 0 0 1 2863.99 1556)">
   <path d="M24.5751-90.1207Q24.5751-86.9017 26.195-84.2536Q27.8149-81.6055 30.5798-80.0446Q33.3447-78.4838 36.7596-78.4838Q40.1162-78.4838 42.8915-80.0446Q45.6668-81.6055 47.2866-84.2536Q48.9065-86.9017 48.9065-90.1207Q48.9065-93.3604 47.2866-96.0183Q45.6668-98.6761 42.8915-100.227Q40.1162-101.777 36.7596-101.777Q33.3447-101.777 30.5798-100.227Q27.8149-98.6761 26.195-96.0183Q24.5751-93.3604 24.5751-90.1207ZM48.4662-59.8209Q48.4662-65.8585 45.2788-68.9609Q42.0913-72.0633 36.7596-72.0633Q31.3708-72.0633 28.1535-68.9609Q24.9362-65.8585 24.9362-59.8793L24.9362 6.92088Q24.9362 9.93767 23.4405 11.5668Q21.9447 13.196 18.3023 13.8303Q14.702 14.518 12.9804 16.3564Q11.2588 18.1949 11.2588 21.3737Q11.2588 26.0955 15.0055 28.6069Q18.7522 31.1182 25.6528 31.1182Q32.7162 31.1182 37.8585 28.3297Q43.0008 25.5411 45.7335 20.3684Q48.4662 15.1957 48.4662 8.10531L48.4662-59.8209ZM59.0311-8.83782Q60.79-4.47207 65.3083-1.13934Q69.8265 2.1934 76.9337 4.07998Q84.0408 5.96656 93.1675 5.96656Q103.387 5.96656 111.176 2.85714Q118.965-0.252273 123.259-5.95939Q127.554-11.6665 127.554-19.3358Q127.554-24.9705 125.183-28.899Q122.812-32.8274 117.805-35.4853Q112.798-38.1431 104.736-39.7566L91.8365-42.3066Q86.5712-43.4153 84.3674-45.0878Q82.1636-46.7603 82.1636-49.3431Q82.1636-51.4488 83.4518-53.0136Q84.74-54.5785 87.0966-55.4601Q89.4532-56.3418 92.4757-56.3418Q96.4973-56.3418 99.257-54.945Q102.017-53.5483 105.054-50.7678Q106.138-49.781 107.235-48.5363Q108.637-47.1007 110.902-46.3223Q113.168-45.544 115.254-45.544Q119.7-45.544 121.995-47.6933Q124.29-49.8426 124.29-53.3939Q124.29-54.9561 123.64-56.8179Q122.284-61.0669 118.126-64.569Q113.967-68.071 107.366-70.1547Q100.765-72.2385 92.6441-72.2385Q82.5344-72.2385 75.0675-69.2868Q67.6006-66.335 63.5649-60.866Q59.5292-55.397 59.5292-48.0066Q59.5292-39.4853 65.1771-33.8775Q70.825-28.2697 81.8428-26.0883L94.8255-23.5188Q99.996-22.4477 102.095-20.9243Q104.195-19.4009 104.195-16.7469Q104.195-14.6921 102.853-13.1538Q101.511-11.6156 99.0786-10.7729Q96.6462-9.93019 93.4176-9.93019Q88.2435-9.93019 84.4616-11.5814Q80.6796-13.2326 77.6442-16.7984Q75.1488-19.3412 72.6582-20.5419Q70.1676-21.7426 67.3468-21.7426Q63.3258-21.7426 60.7535-19.2513Q58.1812-16.7601 58.1812-12.8766Q58.1812-10.9747 59.0311-8.83782Z"/>
  </g>
  <g id="Heavy-L" transform="matrix(1 0 0 1 2569.94 1556)">
   <path d="M24.479-90.3535Q24.479-87.4904 25.9254-85.1199Q27.3718-82.7493 29.8316-81.3505Q32.2914-79.9517 35.3181-79.9517Q38.3002-79.9517 40.7749-81.3505Q43.2496-82.7493 44.696-85.1199Q46.1424-87.4904 46.1424-90.3535Q46.1424-93.2463 44.696-95.6288Q43.2496-98.0112 40.7749-99.3951Q38.3002-100.779 35.3181-100.779Q32.2914-100.779 29.8316-99.3951Q27.3718-98.0112 25.9254-95.6288Q24.479-93.2463 24.479-90.3535ZM45.4265-61.3764Q45.4265-66.56 42.671-69.2739Q39.9156-71.9878 35.3181-71.9878Q30.6821-71.9878 27.9013-69.2739Q25.1205-66.56 25.1205-61.421L25.1205 6.94555Q25.1205 10.5597 23.4402 12.4407Q21.7599 14.3217 17.6931 14.9228Q14.4046 15.5179 12.8317 17.18Q11.2588 18.8421 11.2588 21.6783Q11.2588 25.749 14.4858 27.9437Q17.7129 30.1383 23.6254 30.1383Q30.4364 30.1383 35.3394 27.5137Q40.2424 24.8891 42.8345 19.9312Q45.4265 14.9733 45.4265 8.04925L45.4265-61.3764ZM56.9373-9.73065Q58.6582-5.25278 63.0016-1.85639Q67.3449 1.54 74.078 3.44818Q80.8111 5.35636 89.3275 5.35636Q99.0853 5.35636 106.546 2.35316Q114.007-0.650038 118.123-6.15161Q122.24-11.6532 122.24-18.9993Q122.24-24.5595 119.95-28.4161Q117.66-32.2728 112.777-34.8981Q107.895-37.5234 99.949-39.1825L87.6034-41.7407Q81.9552-42.9748 79.5036-44.9244Q77.052-46.874 77.052-49.8555Q77.052-52.2852 78.5277-54.1278Q80.0033-55.9705 82.6862-57.0096Q85.369-58.0488 88.794-58.0488Q93.1011-58.0488 96.0893-56.5428Q99.0775-55.0369 101.963-52.0587Q103.03-50.9645 104.09-49.4975Q105.334-47.9844 107.312-47.2341Q109.291-46.4838 111.265-46.4838Q115.097-46.4838 117.099-48.3764Q119.1-50.2691 119.1-53.4088Q119.1-54.7871 118.546-56.4512Q117.287-60.8133 113.283-64.3763Q109.279-67.9394 102.984-70.0305Q96.6886-72.1216 89.0442-72.1216Q79.4654-72.1216 72.3264-69.2509Q65.1873-66.3802 61.3132-61.0915Q57.4391-55.8028 57.4391-48.7128Q57.4391-40.4463 62.953-35.0193Q68.4669-29.5923 79.3645-27.3195L91.8292-24.7377Q97.4239-23.5184 99.7237-21.7353Q102.023-19.9521 102.023-16.8391Q102.023-14.3913 100.478-12.5589Q98.9318-10.7265 96.143-9.72149Q93.3541-8.71651 89.6907-8.71651Q83.9982-8.71651 80.0462-10.6269Q76.0942-12.5373 73.1614-16.5948Q71.0486-18.9438 68.8838-20.0497Q66.7189-21.1556 64.2398-21.1556Q60.7046-21.1556 58.44-18.9877Q56.1754-16.8198 56.1754-13.4035Q56.1754-11.6594 56.9373-9.73065Z"/>
  </g>
  <g id="Bold-L" transform="matrix(1 0 0 1 2276.43 1556)">
   <path d="M24.4635-90.6715Q24.4635-88.2469 25.6943-86.2213Q26.9251-84.1958 29.0091-83.0013Q31.0931-81.8068 33.6423-81.8068Q36.1623-81.8068 38.2647-83.0013Q40.3672-84.1958 41.598-86.2213Q42.8288-88.2469 42.8288-90.6715Q42.8288-93.1331 41.598-95.1701Q40.3672-97.207 38.2647-98.383Q36.1623-99.559 33.6423-99.559Q31.0931-99.559 29.0091-98.383Q26.9251-97.207 25.6943-95.1701Q24.4635-93.1331 24.4635-90.6715ZM41.8045-63.2489Q41.8045-67.4023 39.5769-69.6341Q37.3493-71.8659 33.6423-71.8659Q29.9203-71.8659 27.671-69.6341Q25.4216-67.4023 25.4216-63.2781L25.4216 7.00481Q25.4216 11.3735 23.4773 13.5636Q21.5329 15.7537 16.8764 16.2975Q14.0085 16.7745 12.6337 18.2078Q11.2588 19.641 11.2588 22.045Q11.2588 25.327 13.8527 27.1298Q16.4466 28.9327 21.1646 28.9327Q27.699 28.9327 32.3272 26.5074Q36.9553 24.082 39.3799 19.386Q41.8045 14.69 41.8045 7.96927L41.8045-63.2489ZM54.2785-10.928Q55.9339-6.29015 60.0759-2.79235Q64.2178 0.70546 70.5396 2.65508Q76.8614 4.60469 84.7095 4.60469Q93.9045 4.60469 100.967 1.73038Q108.029-1.14392 111.931-6.39542Q115.833-11.6469 115.833-18.6027Q115.833-24.0593 113.636-27.8256Q111.439-31.592 106.704-34.1737Q101.97-36.7553 94.1737-38.4597L82.4997-41.0068Q76.308-42.4072 73.5418-44.6926Q70.7756-46.9781 70.7756-50.4717Q70.7756-53.3101 72.4868-55.5023Q74.1981-57.6945 77.2891-58.9343Q80.38-60.1742 84.3071-60.1742Q89.0315-60.1742 92.3386-58.4798Q95.6458-56.7855 98.3711-53.5Q99.423-52.254 100.427-50.5036Q101.474-48.9153 103.101-48.205Q104.728-47.4947 106.532-47.4947Q109.623-47.4947 111.265-49.0701Q112.906-50.6455 112.906-53.2759Q112.906-54.4455 112.46-55.8856Q111.299-60.4259 107.478-64.0817Q103.657-67.7375 97.71-69.8455Q91.7627-71.9535 84.6315-71.9535Q75.6926-71.9535 68.952-69.1849Q62.2115-66.4163 58.5325-61.351Q54.8536-56.2856 54.8536-49.5633Q54.8536-41.6191 60.2031-36.4246Q65.5527-31.23 76.3015-28.8667L88.1234-26.2969Q94.3079-24.8887 96.882-22.7705Q99.4562-20.6523 99.4562-16.948Q99.4562-14.0145 97.6507-11.8084Q95.8451-9.60234 92.6087-8.38849Q89.3722-7.17464 85.1676-7.17464Q78.8232-7.17464 74.5946-9.45265Q70.3661-11.7307 67.5769-16.4276Q65.9151-18.5424 64.1492-19.5307Q62.3833-20.519 60.3182-20.519Q57.3866-20.519 55.5065-18.746Q53.6265-16.973 53.6265-14.1369Q53.6265-12.598 54.2785-10.928Z"/>
  </g>
  <g id="Semibold-L" transform="matrix(1 0 0 1 1981.93 1556)">
   <path d="M24.4529-90.8907Q24.4529-88.7684 25.535-86.9807Q26.6172-85.193 28.442-84.1393Q30.2669-83.0857 32.4869-83.0857Q34.6884-83.0857 36.5342-84.1393Q38.3801-85.193 39.4622-86.9807Q40.5444-88.7684 40.5444-90.8907Q40.5444-93.055 39.4622-94.8538Q38.3801-96.6526 36.5342-97.6853Q34.6884-98.7179 32.4869-98.7179Q30.2669-98.7179 28.442-97.6853Q26.6172-96.6526 25.535-94.8538Q24.4529-93.055 24.4529-90.8907ZM39.3074-64.5397Q39.3074-67.9829 37.4438-69.8824Q35.5801-71.7818 32.4869-71.7818Q29.3951-71.7818 27.5122-69.8824Q25.6292-67.9829 25.6292-64.5583L25.6292 7.04566Q25.6292 11.9345 23.5029 14.3377Q21.3765 16.741 16.3134 17.2452Q13.7355 17.6408 12.4971 18.9163Q11.2588 20.1918 11.2588 22.2978Q11.2588 25.036 13.4162 26.5688Q15.5736 28.1016 19.4682 28.1016Q25.8119 28.1016 30.2505 25.8136Q34.6891 23.5256 36.9983 19.0101Q39.3074 14.4946 39.3074 7.91413L39.3074-64.5397ZM52.4456-11.7534Q54.0558-7.00532 58.0589-3.43759Q62.062 0.130134 68.1003 2.10831Q74.1386 4.0865 81.5259 4.0865Q90.3329 4.0865 97.1204 1.30105Q103.908-1.4844 107.662-6.5635Q111.416-11.6426 111.416-18.3293Q111.416-23.7145 109.283-27.4186Q107.15-31.1226 102.517-33.6742Q97.8848-36.2259 90.1922-37.9615L78.9813-40.5009Q72.4149-42.0159 69.4317-44.5329Q66.4486-47.0498 66.4486-50.8966Q66.4486-54.0166 68.3223-56.4498Q70.196-58.883 73.5683-60.2612Q76.9407-61.6394 81.2139-61.6394Q86.2259-61.6394 89.7529-59.8152Q93.28-57.991 95.8947-54.4935Q96.9366-53.1429 97.9013-51.1973Q98.8139-49.5571 100.198-48.8744Q101.582-48.1916 103.269-48.1916Q105.849-48.1916 107.242-49.5483Q108.636-50.905 108.636-53.1842Q108.636-54.21 108.264-55.4956Q107.172-60.1588 103.477-63.8786Q99.7818-67.5983 94.0743-69.7179Q88.3668-71.8376 81.5894-71.8376Q73.0916-71.8376 66.6258-69.1394Q60.16-66.4412 56.6155-61.5299Q53.0711-56.6185 53.0711-50.1496Q53.0711-42.4276 58.3074-37.3934Q63.5437-32.3591 74.1898-29.9333L85.5686-27.3718Q92.1597-25.8334 94.923-23.4842Q97.6863-21.1349 97.6863-17.0231Q97.6863-13.7547 95.7018-11.291Q93.7172-8.82737 90.1721-7.46952Q86.6271-6.11168 82.0495-6.11168Q75.2556-6.11168 70.8364-8.64313Q66.4172-11.1746 63.7269-16.3123Q62.3761-18.2656 60.8853-19.1729Q59.3944-20.0802 57.6146-20.0802Q55.0993-20.0802 53.4843-18.5794Q51.8693-17.0786 51.8693-14.6424Q51.8693-13.245 52.4456-11.7534Z"/>
  </g>
  <g id="Medium-L" transform="matrix(1 0 0 1 1686.89 1556)">
   <path d="M24.4448-91.057Q24.4448-89.1639 25.4142-87.5565Q26.3837-85.9491 28.0121-85.0022Q29.6405-84.0554 31.6109-84.0554Q33.5708-84.0554 35.2221-85.0022Q36.8734-85.9491 37.8428-87.5565Q38.8123-89.1639 38.8123-91.057Q38.8123-92.9958 37.8428-94.614Q36.8734-96.2322 35.2221-97.1562Q33.5708-98.0802 31.6109-98.0802Q29.6405-98.0802 28.0121-97.1562Q26.3837-96.2322 25.4142-94.614Q24.4448-92.9958 24.4448-91.057ZM37.4141-65.5185Q37.4141-68.4232 35.8263-70.0707Q34.2386-71.7181 31.6109-71.7181Q28.9969-71.7181 27.3918-70.0707Q25.7867-68.4232 25.7867-65.529L25.7867 7.07664Q25.7867 12.3599 23.5222 14.9247Q21.2578 17.4895 15.8865 17.9638Q13.5284 18.2977 12.3936 19.4535Q11.2588 20.6094 11.2588 22.4894Q11.2588 24.8153 13.0853 26.1434Q14.9117 27.4714 18.1819 27.4714Q24.381 27.4714 28.6759 25.2876Q32.9709 23.1038 35.1925 18.7252Q37.4141 14.3465 37.4141 7.87232L37.4141-65.5185ZM51.0558-12.3793Q52.6318-7.54759 56.5296-3.92684Q60.4274-0.306102 66.2507 1.69374Q72.074 3.69358 79.1119 3.69358Q87.6248 3.69358 94.204 0.975503Q100.783-1.74257 104.425-6.69094Q108.067-11.6393 108.067-18.1221Q108.067-23.4531 105.983-27.1099Q103.898-30.7667 99.3429-33.2955Q94.7875-35.8244 87.1732-37.5837L76.3134-40.1173Q69.463-41.7192 66.3153-44.4117Q63.1677-47.1042 63.1677-51.2187Q63.1677-54.5523 65.1646-57.1683Q67.1615-59.7842 70.7471-61.2673Q74.3328-62.7504 78.8684-62.7504Q84.0986-62.7504 87.7924-60.8277Q91.4861-58.905 94.0169-55.2469Q95.0513-53.817 95.9865-51.7232Q96.7967-50.0437 97.9964-49.3819Q99.1962-48.7201 100.795-48.7201Q102.988-48.7201 104.193-49.9109Q105.398-51.1017 105.398-53.1147Q105.398-54.0314 105.083-55.1999Q104.042-59.9563 100.442-63.7246Q96.8432-67.4928 91.3176-69.6212Q85.7919-71.7497 79.2828-71.7497Q71.1195-71.7497 64.8619-69.1049Q58.6044-66.4601 55.162-61.6655Q51.7196-56.8709 51.7196-50.5941Q51.7196-43.0406 56.87-38.1279Q62.0204-33.2152 72.5887-30.7421L83.6315-28.1868Q90.5308-26.5497 93.4376-24.0253Q96.3443-21.5009 96.3443-17.08Q96.3443-13.5577 94.224-10.8987Q92.1037-8.23976 88.3246-6.77273Q84.5456-5.3057 79.6851-5.3057Q72.5505-5.3057 67.9867-8.02932Q63.423-10.7529 60.8078-16.2249Q59.6927-18.0558 58.4104-18.9016Q57.1281-19.7475 55.5646-19.7475Q53.3649-19.7475 51.9509-18.4531Q50.5369-17.1587 50.5369-15.0258Q50.5369-13.7356 51.0558-12.3793Z"/>
  </g>
  <g id="Regular-L" transform="matrix(1 0 0 1 1392.37 1556)">
   <path d="M24.4343-91.2738Q24.4343-89.6796 25.2567-88.3075Q26.0791-86.9353 27.4513-86.1278Q28.8234-85.3202 30.4683-85.3202Q32.1131-85.3202 33.5106-86.1278Q34.9081-86.9353 35.7305-88.3075Q36.553-89.6796 36.553-91.2738Q36.553-92.9186 35.7305-94.3013Q34.9081-95.6839 33.5106-96.4661Q32.1131-97.2483 30.4683-97.2483Q28.8234-97.2483 27.4513-96.4661Q26.0791-95.6839 25.2567-94.3013Q24.4343-92.9186 24.4343-91.2738ZM34.9446-66.7951Q34.9446-68.9975 33.7167-70.3162Q32.4888-71.635 30.4683-71.635Q28.4774-71.635 27.2347-70.3162Q25.992-68.9975 25.992-66.7951L25.992 7.11704Q25.992 12.9148 23.5475 15.6903Q21.1031 18.4659 15.3296 18.9011Q13.2584 19.1545 12.2586 20.1543Q11.2588 21.1541 11.2588 22.7394Q11.2588 24.5275 12.6536 25.5885Q14.0484 26.6495 16.5041 26.6495Q22.5146 26.6495 26.6221 24.6015Q30.7296 22.5535 32.8371 18.3534Q34.9446 14.1534 34.9446 7.81778L34.9446-66.7951ZM49.243-13.1957Q50.7743-8.25489 54.5348-4.565Q58.2952-0.875106 63.8381 1.15298Q69.381 3.18107 75.9633 3.18107Q84.0924 3.18107 90.4 0.550881Q96.7075-2.07931 100.203-6.85718Q103.699-11.635 103.699-17.8517Q103.699-23.1121 101.678-26.7073Q99.6566-30.3025 95.2021-32.8016Q90.7476-35.3007 83.2355-37.0909L72.8336-39.617Q65.6126-41.3322 62.2505-44.2537Q58.8883-47.1752 58.8883-51.6389Q58.8883-55.2511 61.0458-58.1054Q63.2034-60.9597 67.0673-62.5796Q70.9312-64.1995 75.8092-64.1995Q81.3238-64.1995 85.2351-62.1484Q89.1463-60.0973 91.5677-56.2296Q92.5922-54.6961 93.489-52.4092Q94.1654-50.6785 95.125-50.0439Q96.0846-49.4094 97.5686-49.4094Q99.2554-49.4094 100.215-50.3838Q101.175-51.3583 101.175-53.0241Q101.175-53.7985 100.933-54.8143Q99.9595-59.6922 96.4849-63.5237Q93.0103-67.3552 87.7218-69.4951Q82.4334-71.635 76.2741-71.635Q68.5471-71.635 62.5613-69.0599Q56.5754-66.4848 53.2661-61.8424Q49.9567-57.2 49.9567-51.174Q49.9567-43.8403 54.9951-39.0861Q60.0335-34.3319 70.5002-31.797L81.1048-29.2499Q88.4062-27.484 91.5001-24.7311Q94.5939-21.9782 94.5939-17.1543Q94.5939-13.3008 92.2965-10.3871Q89.9991-7.47331 85.9149-5.86387Q81.8306-4.25442 76.6012-4.25442Q69.0221-4.25442 64.2698-7.2287Q59.5174-10.203 57.0001-16.1109Q56.1926-17.7821 55.1823-18.5478Q54.172-19.3135 52.8908-19.3135Q51.1027-19.3135 49.9508-18.2883Q48.799-17.2632 48.799-15.5258Q48.799-14.3756 49.243-13.1957Z"/>
  </g>
  <g id="Light-L" transform="matrix(1 0 0 1 1097.31 1556)">
   <path d="M25.091-91.6842Q25.091-90.3774 25.7595-89.2515Q26.428-88.1256 27.5539-87.4822Q28.6798-86.8388 30.0168-86.8388Q31.3538-86.8388 32.4948-87.4822Q33.6357-88.1256 34.3043-89.2515Q34.9728-90.3774 34.9728-91.6842Q34.9728-93.0212 34.3043-94.1371Q33.6357-95.253 32.4948-95.8812Q31.3538-96.5095 30.0168-96.5095Q28.6798-96.5095 27.5539-95.8812Q26.428-95.253 25.7595-94.1371Q25.091-93.0212 25.091-91.6842ZM33.3644-67.7392Q33.3644-69.4079 32.4546-70.3881Q31.5448-71.3682 30.0168-71.3682Q28.539-71.3682 27.6041-70.3881Q26.6692-69.4079 26.6692-67.7392L26.6692 7.34278Q26.6692 13.7562 23.8143 16.7267Q20.9595 19.6972 14.3651 19.9887Q12.8069 20.1395 12.0329 20.9136Q11.2588 21.6877 11.2588 22.9241Q11.2588 24.2813 12.2842 25.0754Q13.3096 25.8696 15.1291 25.8696Q21.1807 25.8696 25.2369 23.9345Q29.2931 21.9994 31.3287 17.9532Q33.3644 13.9071 33.3644 7.69465L33.3644-67.7392ZM46.9855-14.6117Q48.3527-9.42464 52.0721-5.51927Q55.7916-1.6139 61.3858 0.537325Q66.98 2.68855 73.6649 2.68855Q81.4656 2.68855 87.5474 0.130181Q93.6292-2.42818 97.0119-7.0624Q100.395-11.6966 100.395-17.708Q100.395-22.8247 98.3941-26.3482Q96.3936-29.8716 92.0007-32.3193Q87.6077-34.7671 80.2393-36.5163L70.2068-38.8987Q62.1649-40.7986 58.536-43.9048Q54.9071-47.011 54.9071-51.9468Q54.9071-55.8873 57.2493-59.0186Q59.5915-62.15 63.7633-63.9443Q67.935-65.7387 73.1824-65.7387Q79.3947-65.7387 83.7575-63.2155Q88.1202-60.6924 90.6032-56.209Q91.6687-54.4499 92.4629-51.9167Q92.9957-50.2681 93.7295-49.6951Q94.4634-49.1221 95.6396-49.1221Q96.9364-49.1221 97.6702-49.881Q98.4041-50.64 98.4041-51.9569Q98.4041-52.7109 98.1628-53.7061Q97.1274-58.9534 93.7246-62.9593Q90.3219-66.9652 85.0745-69.1667Q79.8271-71.3682 73.5242-71.3682Q66.1255-71.3682 60.3654-68.8752Q54.6053-66.3822 51.3986-61.8937Q48.1918-57.4053 48.1918-51.605Q48.1918-44.538 53.1276-39.9993Q58.0634-35.4606 68.4275-33.0078L78.5805-30.6454Q86.7029-28.7154 90.1559-25.6444Q93.6089-22.5734 93.6089-17.1953Q93.6089-13.0135 91.0857-9.78167Q88.5626-6.54982 84.1295-4.74542Q79.6963-2.94102 74.077-2.94102Q65.9848-2.94102 60.6169-6.46939Q55.2489-9.99776 52.9368-16.5419Q52.2934-18.09 51.5294-18.7735Q50.7654-19.4571 49.7099-19.4571Q48.3527-19.4571 47.4882-18.668Q46.6237-17.8788 46.6237-16.5519Q46.6237-15.6069 46.9855-14.6117Z"/>
  </g>
  <g id="Thin-L" transform="matrix(1 0 0 1 802.78 1556)">
   <path d="M25.9595-92.2271Q25.9595-91.3002 26.4244-90.5Q26.8894-89.6998 27.6896-89.2736Q28.4898-88.8473 29.4197-88.8473Q30.3495-88.8473 31.1512-89.2736Q31.9529-89.6998 32.4179-90.5Q32.8828-91.3002 32.8828-92.2271Q32.8828-93.157 32.4179-93.92Q31.9529-94.683 31.1512-95.1077Q30.3495-95.5324 29.4197-95.5324Q28.4898-95.5324 27.6896-95.1077Q26.8894-94.683 26.4244-93.92Q25.9595-93.157 25.9595-92.2271ZM31.2744-68.9877Q31.2744-69.9508 30.7854-70.4831Q30.2963-71.0154 29.4197-71.0154Q28.6204-71.0154 28.0927-70.4831Q27.5649-69.9508 27.5649-68.9877L27.5649 7.64134Q27.5649 14.869 24.1672 18.0974Q20.7695 21.3257 13.0894 21.4273Q12.2098 21.4423 11.7343 21.9178Q11.2588 22.3933 11.2588 23.1684Q11.2588 23.9556 11.7956 24.3969Q12.3325 24.8382 13.3106 24.8382Q19.4165 24.8382 23.4048 23.0524Q27.3932 21.2666 29.3338 17.424Q31.2744 13.5814 31.2744 7.5318L31.2744-68.9877ZM43.9999-16.4845Q45.15-10.9717 48.8151-6.78137Q52.4802-2.59101 58.1423-0.276934Q63.8044 2.03714 70.625 2.03714Q77.9915 2.03714 83.7747-0.426229Q89.5579-2.8896 92.7913-7.33382Q96.0247-11.778 96.0247-17.518Q96.0247-22.4448 94.0514-25.8732Q92.0781-29.3016 87.7665-31.6815Q83.455-34.0614 76.2765-35.7563L66.7327-37.9487Q57.6051-40.0929 53.6233-43.4434Q49.6415-46.7939 49.6415-52.3539Q49.6415-56.7287 52.228-60.2264Q54.8145-63.7242 59.3934-65.7492Q63.9723-67.7743 69.7082-67.7743Q76.8434-67.7743 81.8033-64.6269Q86.7631-61.4795 89.3275-56.1819Q90.4474-54.1242 91.1058-51.2653Q91.4486-49.7252 91.8839-49.2336Q92.3192-48.7421 93.0882-48.7421Q93.8693-48.7421 94.3046-49.2161Q94.7399-49.6901 94.7399-50.5456Q94.7399-51.2723 94.4987-52.2404Q93.3818-57.9763 90.0741-62.2129Q86.7663-66.4495 81.5732-68.7325Q76.38-71.0154 69.8871-71.0154Q62.9228-71.0154 57.4612-68.6309Q51.9997-66.2465 48.9286-61.9616Q45.8576-57.6767 45.8576-52.1749Q45.8576-45.4609 50.6577-41.2071Q55.4577-36.9534 65.6862-34.6092L75.2421-32.4911Q84.4501-30.3439 88.3781-26.8522Q92.3061-23.3605 92.3061-17.2496Q92.3061-12.6335 89.4844-8.98098Q86.6626-5.32843 81.7681-3.26618Q76.8736-1.20393 70.7386-1.20393Q61.9678-1.20393 55.7856-5.46514Q49.6034-9.72634 47.5627-17.1119Q47.1364-18.4971 46.6981-19.0721Q46.2598-19.6471 45.5029-19.6471Q44.7157-19.6471 44.2312-19.1701Q43.7466-18.6931 43.7466-17.909Q43.7466-17.2354 43.9999-16.4845Z"/>
  </g>
  <g id="Ultralight-L" transform="matrix(1 0 0 1 507.188 1556)">
   <path d="M26.4044-92.5051Q26.4044-91.7729 26.765-91.1395Q27.1257-90.5061 27.7591-90.1911Q28.3925-89.8761 29.1138-89.8761Q29.8352-89.8761 30.4631-90.1911Q31.091-90.5061 31.4517-91.1395Q31.8124-91.7729 31.8124-92.5051Q31.8124-93.2265 31.4517-93.8087Q31.091-94.391 30.4631-94.7115Q29.8352-95.032 29.1138-95.032Q28.3925-95.032 27.7591-94.7115Q27.1257-94.391 26.765-93.8087Q26.4044-93.2265 26.4044-92.5051ZM30.204-69.6272Q30.204-70.2288 29.9304-70.5317Q29.6568-70.8346 29.1138-70.8346Q28.6621-70.8346 28.3429-70.5317Q28.0236-70.2288 28.0236-69.6272L28.0236 7.79427Q28.0236 15.439 24.3479 18.7994Q20.6721 22.1598 12.436 22.1641Q11.9039 22.1096 11.5814 22.4322Q11.2588 22.7548 11.2588 23.2935Q11.2588 23.7887 11.5454 24.0493Q11.832 24.3099 12.3792 24.3099Q18.5129 24.3099 22.4664 22.6006Q26.42 20.8912 28.312 17.1529Q30.204 13.4146 30.204 7.44839L30.204-69.6272ZM42.4707-17.4437Q43.5095-11.7641 47.1469-7.42781Q50.7842-3.09148 56.481-0.693993Q62.1778 1.70349 69.0679 1.70349Q76.212 1.70349 81.8423-0.711219Q87.4726-3.12593 90.6295-7.47283Q93.7865-11.8197 93.7865-17.4207Q93.7865-22.2501 91.827-25.6299Q89.8676-29.0096 85.5978-31.3548Q81.328-33.7 74.2468-35.367L64.9532-37.4622Q55.2695-39.7315 51.107-43.2071Q46.9445-46.6827 46.9445-52.5624Q46.9445-57.1597 49.6562-60.8451Q52.3678-64.5305 57.1552-66.6737Q61.9426-68.817 67.9287-68.817Q75.5366-68.817 80.8023-65.3498Q86.068-61.8827 88.6741-56.168Q89.8218-53.9573 90.4107-50.9316Q90.6562-49.4472 90.9386-48.9973Q91.2209-48.5474 91.7814-48.5474Q92.2984-48.5474 92.5808-48.8755Q92.8632-49.2035 92.8632-49.8227Q92.8632-50.5355 92.6219-51.4897Q91.4634-57.4759 88.2042-61.8306Q84.9451-66.1854 79.7798-68.51Q74.6145-70.8346 68.0243-70.8346Q61.2823-70.8346 55.9737-68.5058Q50.6651-66.1769 47.6636-61.9963Q44.662-57.8157 44.662-52.4669Q44.662-45.9335 49.3926-41.8258Q54.1231-37.718 64.2821-35.4294L73.5321-33.4364Q83.2962-31.178 87.4675-27.4708Q91.6388-23.7636 91.6388-17.2774Q91.6388-12.4389 88.6641-8.57087Q85.6895-4.70285 80.5586-2.50852Q75.4278-0.314203 69.0286-0.314203Q59.9103-0.314203 53.311-4.95076Q46.7117-9.58732 44.8101-17.4038Q44.4951-18.7056 44.2236-19.225Q43.9521-19.7444 43.348-19.7444Q42.8528-19.7444 42.5629-19.4273Q42.273-19.1102 42.273-18.6041Q42.273-18.0696 42.4707-17.4437Z"/>
  </g>
  <g id="Black-M" transform="matrix(1 0 0 1 2877.57 1126)">
   <path d="M19.211-77.6115Q19.211-74.8506 20.5942-72.5939Q21.9774-70.3371 24.3483-69.0109Q26.7193-67.6846 29.657-67.6846Q32.5376-67.6846 34.9113-69.0109Q37.285-70.3371 38.6682-72.5939Q40.0514-74.8506 40.0514-77.6115Q40.0514-80.3779 38.6682-82.6376Q37.285-84.8972 34.9113-86.2208Q32.5376-87.5443 29.657-87.5443Q26.7193-87.5443 24.3483-86.2208Q21.9774-84.8972 20.5942-82.6376Q19.211-80.3779 19.211-77.6115ZM39.9472-53.0726Q39.9472-58.4118 37.1496-61.1034Q34.352-63.7949 29.657-63.7949Q24.9046-63.7949 22.0785-61.1034Q19.2525-58.4118 19.2525-53.1297L19.2525-2.56445Q19.2525-0.657173 18.1967 0.414935Q17.1409 1.48704 14.5724 1.98761Q11.5848 2.58614 10.1537 4.13138Q8.72266 5.67662 8.72266 8.38655Q8.72266 12.5459 12.022 14.7277Q15.3213 16.9094 21.4304 16.9094Q27.1252 16.9094 31.3079 14.6234Q35.4906 12.3374 37.7189 8.16606Q39.9472 3.99477 39.9472-1.6247L39.9472-53.0726ZM47.2274-14.2073Q48.6006-10.888 52.2458-8.33145Q55.891-5.77495 61.7257-4.31522Q67.5604-2.85549 75.1696-2.85549Q83.4398-2.85549 89.7252-5.34604Q96.0106-7.83659 99.4752-12.4153Q102.94-16.994 102.94-23.1857Q102.94-27.5958 101.037-30.6913Q99.1336-33.7868 95.1557-35.8669Q91.1778-37.9471 84.8519-39.1523L74.4317-41.1015Q70.5703-41.8777 69.0398-42.9604Q67.5093-44.043 67.5093-45.7653Q67.5093-47.1626 68.3712-48.1738Q69.2331-49.185 70.8202-49.7563Q72.4073-50.3275 74.4531-50.3275Q77.4179-50.3275 79.4207-49.2754Q81.4235-48.2232 83.9146-46.1554Q84.7758-45.4526 85.6444-44.6461Q86.8457-43.6115 88.8166-42.9928Q90.7875-42.374 92.4586-42.374Q96.3786-42.374 98.378-44.2305Q100.377-46.0871 100.377-49.1448Q100.377-50.5104 99.7908-52.12Q98.6496-55.3648 95.305-58.0491Q91.9604-60.7334 86.589-62.3498Q81.2176-63.9662 74.4966-63.9662Q66.2525-63.9662 60.2163-61.6209Q54.1801-59.2755 50.9285-54.9043Q47.6769-50.5331 47.6769-44.5799Q47.6769-37.7953 52.1538-33.3245Q56.6308-28.8537 65.2562-27.2532L75.6984-25.2982Q79.4508-24.5736 80.9539-23.5735Q82.457-22.5733 82.457-20.8366Q82.457-19.5379 81.5619-18.5559Q80.6669-17.5738 79.0414-17.034Q77.416-16.4942 75.2355-16.4942Q71.603-16.4942 68.7357-17.6258Q65.8684-18.7574 63.4563-21.1834Q61.2165-23.3034 59.0403-24.304Q56.8641-25.3046 54.4156-25.3046Q50.9414-25.3046 48.723-23.1285Q46.5046-20.9525 46.5046-17.598Q46.5046-16.0167 47.2274-14.2073Z"/>
  </g>
  <g id="Heavy-M" transform="matrix(1 0 0 1 2583.3 1126)">
   <path d="M19.0564-77.8013Q19.0564-75.3618 20.2842-73.3537Q21.5121-71.3455 23.6075-70.1625Q25.7029-68.9795 28.2894-68.9795Q30.8323-68.9795 32.9359-70.1625Q35.0394-71.3455 36.2672-73.3537Q37.4951-75.3618 37.4951-77.8013Q37.4951-80.2569 36.2672-82.272Q35.0394-84.287 32.9359-85.4619Q30.8323-86.6368 28.2894-86.6368Q25.7029-86.6368 23.6075-85.4619Q21.5121-84.287 20.2842-82.272Q19.0564-80.2569 19.0564-77.8013ZM37.1214-54.5061Q37.1214-59.0597 34.7167-61.4027Q32.3121-63.7457 28.2894-63.7457Q24.2256-63.7457 21.7979-61.4027Q19.3702-59.0597 19.3702-54.5497L19.3702-2.56116Q19.3702-0.126734 18.1718 1.17361Q16.9735 2.47396 14.0659 2.95529Q11.3356 3.47269 10.0291 4.86642Q8.72266 6.26015 8.72266 8.66731Q8.72266 12.23 11.548 14.1267Q14.3734 16.0234 19.5753 16.0234Q25.0196 16.0234 28.9731 13.8872Q32.9266 11.7511 35.024 7.77558Q37.1214 3.80008 37.1214-1.66815L37.1214-54.5061ZM45.3889-14.9495Q46.74-11.5432 50.2181-8.94439Q53.6961-6.34554 59.1603-4.87605Q64.6246-3.40656 71.6278-3.40656Q79.4767-3.40656 85.4623-5.7999Q91.448-8.19325 94.7493-12.5843Q98.0505-16.9753 98.0505-22.87Q98.0505-27.2205 96.2243-30.2524Q94.398-33.2844 90.5362-35.3374Q86.6743-37.3905 80.4485-38.6441L70.5359-40.6145Q66.376-41.4963 64.6278-42.8328Q62.8796-44.1693 62.8796-46.2378Q62.8796-47.9216 63.9078-49.1787Q64.9359-50.4359 66.8135-51.1451Q68.6911-51.8543 71.0963-51.8543Q74.2759-51.8543 76.4604-50.7388Q78.645-49.6234 80.9826-47.4193Q81.8224-46.6323 82.6637-45.6311Q83.7246-44.5132 85.4361-43.9162Q87.1477-43.3192 88.7372-43.3192Q92.0929-43.3192 93.8262-44.9447Q95.5596-46.5702 95.5596-49.2578Q95.5596-50.4455 95.0673-51.8637Q94.0257-55.1849 90.8255-57.9129Q87.6252-60.6408 82.549-62.2587Q77.4728-63.8766 71.2311-63.8766Q63.4756-63.8766 57.7392-61.6029Q52.0027-59.3291 48.8996-55.12Q45.7965-50.9109 45.7965-45.2305Q45.7965-38.6704 50.1519-34.3564Q54.5073-30.0425 63.0247-28.3452L73.0022-26.361Q77.0936-25.5067 78.7593-24.282Q80.4251-23.0573 80.4251-20.9229Q80.4251-19.2703 79.3516-18.0301Q78.278-16.7898 76.3364-16.1094Q74.3947-15.4289 71.8251-15.4289Q67.7331-15.4289 64.7564-16.7627Q61.7796-18.0966 59.4489-20.9447Q57.568-22.8865 55.6875-23.802Q53.8071-24.7175 51.6718-24.7175Q48.6326-24.7175 46.6885-22.8358Q44.7444-20.9541 44.7444-18.0184Q44.7444-16.5724 45.3889-14.9495Z"/>
  </g>
  <g id="Bold-M" transform="matrix(1 0 0 1 2289.33 1126)">
   <path d="M18.8835-78.0135Q18.8835-75.9337 19.9375-74.2036Q20.9916-72.4735 22.7787-71.4508Q24.5659-70.428 26.7596-70.428Q28.9248-70.428 30.7261-71.4508Q32.5274-72.4735 33.5814-74.2036Q34.6355-75.9337 34.6355-78.0135Q34.6355-80.1216 33.5814-81.863Q32.5274-83.6044 30.7261-84.6131Q28.9248-85.6217 26.7596-85.6217Q24.5659-85.6217 22.7787-84.6131Q20.9916-83.6044 19.9375-81.863Q18.8835-80.1216 18.8835-78.0135ZM33.9603-56.1097Q33.9603-59.7845 31.9953-61.7376Q30.0302-63.6907 26.7596-63.6907Q23.4661-63.6907 21.484-61.7376Q19.5018-59.7845 19.5018-56.1382L19.5018-2.55747Q19.5018 0.466638 18.144 2.02231Q16.7861 3.57797 13.4993 4.03777Q11.0569 4.46443 9.8898 5.68866Q8.72266 6.9129 8.72266 8.98139Q8.72266 11.8765 11.0179 13.4544Q13.3131 15.0322 17.5002 15.0322Q22.6642 15.0322 26.3613 13.0637Q30.0584 11.0953 32.0094 7.33877Q33.9603 3.58229 33.9603-1.71675L33.9603-56.1097ZM43.3322-15.7797Q44.6587-12.2763 47.9498-9.63004Q51.2408-6.98383 56.2906-5.50342Q61.3405-4.02302 67.6657-4.02302Q75.0433-4.02302 80.6937-6.30762Q86.3441-8.59222 89.4626-12.7733Q92.5811-16.9544 92.5811-22.5169Q92.5811-26.8006 90.8409-29.7615Q89.1006-32.7224 85.3686-34.7451Q81.6365-36.7679 75.5226-38.0757L66.1779-40.0697Q61.6839-41.0696 59.6923-42.69Q57.7006-44.3105 57.7006-46.7662Q57.7006-48.7706 58.9147-50.3029Q60.1288-51.8352 62.3314-52.6987Q64.5341-53.5621 67.3413-53.5621Q70.7611-53.5621 73.1489-52.376Q75.5368-51.1898 77.7028-48.8331Q78.5186-47.952 79.3295-46.733Q80.2331-45.5219 81.6546-44.9492Q83.0761-44.3765 84.5742-44.3765Q87.2987-44.3765 88.7344-45.7436Q90.1702-47.1108 90.1702-49.3843Q90.1702-50.3729 89.7834-51.5771Q88.8531-54.9838 85.8144-57.7604Q82.7757-60.5371 78.0297-62.1567Q73.2837-63.7763 67.5782-63.7763Q60.3694-63.7763 54.9682-61.5827Q49.567-59.3891 46.6301-55.3613Q43.6931-51.3336 43.6931-45.9583Q43.6931-39.6492 47.9125-35.5107Q52.1319-31.3723 60.5284-29.5667L69.9861-27.5499Q74.4567-26.5504 76.3044-25.0745Q78.1521-23.5987 78.1521-21.0195Q78.1521-18.971 76.8789-17.4419Q75.6058-15.9128 73.3103-15.075Q71.0149-14.2372 68.01-14.2372Q63.404-14.2372 60.3049-15.7973Q57.2057-17.3574 54.9661-20.6777Q53.4866-22.4201 51.937-23.2404Q50.3873-24.0607 48.6025-24.0607Q46.0499-24.0607 44.4127-22.5083Q42.7754-20.9559 42.7754-18.4887Q42.7754-17.1941 43.3322-15.7797Z"/>
  </g>
  <g id="Semibold-M" transform="matrix(1 0 0 1 1994.5 1126)">
   <path d="M18.7643-78.1598Q18.7643-76.3279 19.6985-74.7895Q20.6327-73.2511 22.2074-72.3389Q23.7821-71.4267 25.705-71.4267Q27.6098-71.4267 29.2027-72.3389Q30.7956-73.2511 31.7299-74.7895Q32.6641-76.3279 32.6641-78.1598Q32.6641-80.0283 31.7299-81.5811Q30.7956-83.1339 29.2027-84.0279Q27.6098-84.9219 25.705-84.9219Q23.7821-84.9219 22.2074-84.0279Q20.6327-83.1339 19.6985-81.5811Q18.7643-80.0283 18.7643-78.1598ZM31.7811-57.2152Q31.7811-60.2841 30.1191-61.9684Q28.457-63.6527 25.705-63.6527Q22.9425-63.6527 21.2675-61.9684Q19.5926-60.2841 19.5926-57.2333L19.5926-2.55493Q19.5926 0.875706 18.1248 2.60739Q16.657 4.33907 13.1086 4.78402Q10.8648 5.14813 9.79373 6.25552Q8.72266 7.36291 8.72266 9.19791Q8.72266 11.6329 10.6524 12.9909Q12.5821 14.349 16.0696 14.349Q21.0404 14.349 24.5607 12.496Q28.081 10.6431 29.9311 7.03764Q31.7811 3.43215 31.7811-1.75025L31.7811-57.2152ZM41.9143-16.352Q43.2239-12.7816 46.386-10.1027Q49.5481-7.42386 54.3123-5.93593Q59.0765-4.448 64.9343-4.448Q71.987-4.448 77.4062-6.65763Q82.8254-8.86727 85.818-12.9036Q88.8106-16.94 88.8106-22.2734Q88.8106-26.5111 87.1296-29.423Q85.4486-32.3349 81.806-34.3368Q78.1635-36.3387 72.1268-37.6838L63.1736-39.6942Q58.4493-40.7755 56.2898-42.5916Q54.1303-44.4078 54.1303-47.1306Q54.1303-49.3559 55.4726-51.0779Q56.8149-52.7999 59.2415-53.7697Q61.6682-54.7395 64.7526-54.7395Q68.338-54.7395 70.866-53.5046Q73.394-52.2697 75.4417-49.8078Q76.2409-48.8618 77.0309-47.4927Q77.8261-46.2173 79.0476-45.6614Q80.2691-45.1054 81.7043-45.1054Q83.9936-45.1054 85.2242-46.2944Q86.4547-47.4834 86.4547-49.4715Q86.4547-50.3229 86.1407-51.3794Q85.2872-54.8451 82.3598-57.6554Q79.4324-60.4656 74.9141-62.0864Q70.3957-63.7072 65.0599-63.7072Q58.2279-63.7072 53.0579-61.5688Q47.8879-59.4305 45.0654-55.5277Q42.243-51.6249 42.243-46.4601Q42.243-40.324 46.3687-36.3065Q50.4944-32.2891 58.8075-30.4088L67.9067-28.3696Q72.6389-27.2699 74.612-25.6209Q76.5851-23.9719 76.5851-21.0861Q76.5851-18.7647 75.1743-17.0365Q73.7636-15.3082 71.2242-14.362Q68.6849-13.4157 65.38-13.4157Q60.4196-13.4157 57.2361-15.1317Q54.0525-16.8478 51.8757-20.4936Q50.6729-22.0986 49.3514-22.8533Q48.0298-23.6079 46.4865-23.6079Q44.2694-23.6079 42.8437-22.2826Q41.418-20.9572 41.418-18.813Q41.418-17.6226 41.9143-16.352Z"/>
  </g>
  <g id="Medium-M" transform="matrix(1 0 0 1 1699.22 1126)">
   <path d="M18.6739-78.2708Q18.6739-76.6268 19.5173-75.2338Q20.3607-73.8408 21.7742-73.0123Q23.1878-72.1838 24.9054-72.1838Q26.6127-72.1838 28.0476-73.0123Q29.4826-73.8408 30.3259-75.2338Q31.1693-76.6268 31.1693-78.2708Q31.1693-79.9575 30.3259-81.3673Q29.4826-82.7771 28.0476-83.5841Q26.6127-84.3912 24.9054-84.3912Q23.1878-84.3912 21.7742-83.5841Q20.3607-82.7771 19.5173-81.3673Q18.6739-79.9575 18.6739-78.2708ZM30.1288-58.0534Q30.1288-60.6629 28.6965-62.1434Q27.2642-63.6239 24.9054-63.6239Q22.5454-63.6239 21.1034-62.1434Q19.6614-60.6629 19.6614-58.0637L19.6614-2.55301Q19.6614 1.18588 18.1102 3.05102Q16.5591 4.91617 12.8125 5.34987Q10.7191 5.66653 9.72089 6.68533Q8.72266 7.70412 8.72266 9.36209Q8.72266 11.4481 10.3752 12.6395Q12.0278 13.8309 14.9848 13.8309Q19.8091 13.8309 23.1954 12.0656Q26.5817 10.3003 28.3552 6.80931Q30.1288 3.3183 30.1288-1.77566L30.1288-58.0534ZM40.8393-16.786Q42.136-13.1648 45.2003-10.4611Q48.2646-7.75751 52.8122-6.26387Q57.3598-4.77024 62.8632-4.77024Q69.6696-4.77024 74.9135-6.92303Q80.1575-9.07582 83.0545-13.0024Q85.9516-16.9291 85.9516-22.0888Q85.9516-26.2916 84.3155-29.1664Q82.6795-32.0411 79.1048-34.0272Q75.5301-36.0132 69.5519-37.3866L60.8955-39.4094Q55.9966-40.5525 53.7099-42.517Q51.4231-44.4816 51.4231-47.4068Q51.4231-49.7997 52.8626-51.6655Q54.3021-53.5314 56.8986-54.5818Q59.4952-55.6322 62.7897-55.6322Q66.5007-55.6322 69.135-54.3604Q71.7693-53.0885 73.7272-50.5468Q74.5139-49.5517 75.2879-48.0687Q76.001-46.7446 77.0709-46.2013Q78.1408-45.6581 79.5282-45.6581Q81.4875-45.6581 82.5625-46.712Q83.6375-47.7659 83.6375-49.5376Q83.6375-50.285 83.3787-51.2296Q82.5834-54.74 79.7404-57.5757Q76.8974-60.4115 72.5517-62.0331Q68.206-63.6548 63.1504-63.6548Q56.6042-63.6548 51.6094-61.5583Q46.6147-59.4618 43.8791-55.6539Q41.1434-51.8459 41.1434-46.8405Q41.1434-40.8356 45.1981-36.9099Q49.2527-32.9842 57.5026-31.0474L66.3301-28.991Q71.2605-27.8155 73.3287-26.0352Q75.397-24.2549 75.397-21.1366Q75.397-18.6082 73.8818-16.729Q72.3667-14.8498 69.6425-13.8213Q66.9182-12.7928 63.3858-12.7928Q58.1567-12.7928 54.9092-14.6271Q51.6617-16.4614 49.5324-20.354Q48.5395-21.8549 47.3909-22.5597Q46.2422-23.2646 44.8821-23.2646Q42.9194-23.2646 41.6541-22.1114Q40.3887-20.9582 40.3887-19.0588Q40.3887-17.9476 40.8393-16.786Z"/>
  </g>
  <g id="Regular-M" transform="matrix(1 0 0 1 1404.37 1126)">
   <path d="M18.556-78.4155Q18.556-77.0167 19.2809-75.8133Q20.0058-74.6099 21.2092-73.8907Q22.4126-73.1715 23.8623-73.1715Q25.3121-73.1715 26.5409-73.8907Q27.7698-74.6099 28.4947-75.8133Q29.2196-77.0167 29.2196-78.4155Q29.2196-79.8652 28.4947-81.0884Q27.7698-82.3117 26.5409-83.0054Q25.3121-83.6991 23.8623-83.6991Q22.4126-83.6991 21.2092-83.0054Q20.0058-82.3117 19.2809-81.0884Q18.556-79.8652 18.556-78.4155ZM27.9735-59.1468Q27.9735-61.1571 26.8409-62.3717Q25.7084-63.5864 23.8623-63.5864Q22.0276-63.5864 20.8894-62.3717Q19.7512-61.1571 19.7512-59.1468L19.7512-2.55049Q19.7512 1.59045 18.0912 3.62968Q16.4313 5.6689 12.4261 6.08792Q10.5291 6.34272 9.62589 7.24595Q8.72266 8.14918 8.72266 9.57623Q8.72266 11.2071 10.0138 12.1811Q11.3049 13.1551 13.5699 13.1551Q18.2032 13.1551 21.4147 11.5041Q24.6261 9.85315 26.2998 6.51148Q27.9735 3.16981 27.9735-1.80879L27.9735-59.1468ZM39.437-17.3521Q40.7169-13.6646 43.6537-10.9286Q46.5905-8.19271 50.8556-6.69163Q55.1206-5.19055 60.1617-5.19055Q66.6468-5.19055 71.6622-7.2692Q76.6775-9.34785 79.45-13.1313Q82.2224-16.9148 82.2224-21.848Q82.2224-26.0053 80.645-28.8316Q79.0676-31.6579 75.5814-33.6233Q72.0952-35.5887 66.1934-36.999L57.9242-39.038Q52.7975-40.2616 50.3447-42.4197Q47.892-44.5779 47.892-47.7672Q47.892-50.3786 49.4583-52.432Q51.0245-54.4855 53.8426-55.6411Q56.6608-56.7967 60.2294-56.7967Q64.1042-56.7967 66.8772-55.4766Q69.6501-54.1565 71.491-51.5108Q72.2613-50.4515 73.0146-48.82Q73.6205-47.4324 74.4926-46.9057Q75.3647-46.379 76.6898-46.379Q78.2188-46.379 79.0908-47.2567Q79.9629-48.1345 79.9629-49.6238Q79.9629-50.2355 79.776-51.0341Q79.0566-54.6028 76.3238-57.4718Q73.5909-60.3408 69.4703-61.9636Q65.3498-63.5864 60.6598-63.5864Q54.4863-63.5864 49.7201-61.5446Q44.954-59.5027 42.3316-55.8184Q39.7093-52.1341 39.7093-47.3368Q39.7093-41.503 43.6712-37.697Q47.6331-33.8909 55.8006-31.8802L64.2737-29.8017Q69.4626-28.5271 71.6549-26.5756Q73.8472-24.624 73.8472-21.2025Q73.8472-18.4042 72.196-16.328Q70.5447-14.2519 67.5793-13.1161Q64.6138-11.9802 60.7846-11.9802Q55.2051-11.9802 51.8741-13.9688Q48.5431-15.9573 46.4759-20.1719Q45.7567-21.5369 44.8337-22.1768Q43.9106-22.8168 42.7893-22.8168Q41.1584-22.8168 40.1023-21.8881Q39.0462-20.9594 39.0462-19.3795Q39.0462-18.3714 39.437-17.3521Z"/>
  </g>
  <g id="Light-M" transform="matrix(1 0 0 1 1109.14 1126)">
   <path d="M19.1448-78.7835Q19.1448-77.6423 19.7317-76.6596Q20.3185-75.677 21.3012-75.105Q22.2838-74.533 23.4575-74.533Q24.6313-74.533 25.6302-75.105Q26.6291-75.677 27.216-76.6596Q27.8029-77.6423 27.8029-78.7835Q27.8029-79.9572 27.216-80.9412Q26.6291-81.9253 25.6302-82.481Q24.6313-83.0367 23.4575-83.0367Q22.2838-83.0367 21.3012-82.481Q20.3185-81.9253 19.7317-80.9412Q19.1448-79.9572 19.1448-78.7835ZM26.5568-59.9931Q26.5568-61.5251 25.7094-62.4361Q24.862-63.3472 23.4575-63.3472Q22.0828-63.3472 21.2206-62.4361Q20.3583-61.5251 20.3583-59.9931L20.3583-2.34811Q20.3583 2.34481 18.3304 4.55883Q16.3025 6.77284 11.5614 7.06307Q10.1243 7.22587 9.4235 7.92671Q8.72266 8.62755 8.72266 9.74182Q8.72266 10.9863 9.68257 11.7211Q10.6425 12.4559 12.3372 12.4559Q17.0072 12.4559 20.1727 10.9062Q23.3382 9.35638 24.9475 6.1527Q26.5568 2.94903 26.5568-1.91919L26.5568-59.9931ZM37.4131-18.6216Q38.5458-14.7133 41.4458-11.7842Q44.3458-8.85507 48.6569-7.2436Q52.968-5.63212 58.1011-5.63212Q64.2918-5.63212 69.1047-7.64638Q73.9177-9.66063 76.5889-13.3153Q79.2602-16.97 79.2602-21.7192Q79.2602-25.7477 77.7012-28.5097Q76.1421-31.2716 72.7112-33.191Q69.2802-35.1103 63.5071-36.4839L55.5691-38.394Q49.7065-39.7832 47.0145-42.1069Q44.3226-44.4307 44.3226-48.0431Q44.3226-50.9489 46.0544-53.2508Q47.7863-55.5526 50.8804-56.8646Q53.9745-58.1766 57.8744-58.1766Q62.3747-58.1766 65.5525-56.4333Q68.7302-54.69 70.6262-51.4924Q71.4334-50.2307 72.0946-48.3784Q72.5718-47.0644 73.2415-46.5929Q73.9111-46.1214 74.9603-46.1214Q76.1397-46.1214 76.8094-46.8059Q77.4791-47.4905 77.4791-48.6671Q77.4791-49.2604 77.2921-50.0406Q76.5176-53.9404 73.8491-56.9658Q71.1806-59.9912 67.0969-61.6692Q63.0131-63.3472 58.1943-63.3472Q52.3152-63.3472 47.7514-61.379Q43.1877-59.4108 40.6573-55.8644Q38.127-52.318 38.127-47.7232Q38.127-42.1286 41.9969-38.5157Q45.8668-34.9028 53.9423-32.9658L62.0106-31.0528Q67.9355-29.631 70.4498-27.3943Q72.9641-25.1576 72.9641-21.2393Q72.9641-18.1466 71.1104-15.7852Q69.2568-13.4239 65.9786-12.1133Q62.7003-10.8027 58.5215-10.8027Q52.482-10.8027 48.5991-13.288Q44.7161-15.7734 42.8329-20.5583Q42.2609-21.8129 41.5586-22.3792Q40.8564-22.9456 39.9375-22.9456Q38.693-22.9456 37.8945-22.2285Q37.0959-21.5114 37.0959-20.2994Q37.0959-19.4754 37.4131-18.6216Z"/>
  </g>
  <g id="Thin-M" transform="matrix(1 0 0 1 814.39 1126)">
   <path d="M19.9235-79.2701Q19.9235-78.4696 20.3279-77.779Q20.7322-77.0884 21.4228-76.7111Q22.1134-76.3337 22.9222-76.3337Q23.7309-76.3337 24.4257-76.7111Q25.1204-77.0884 25.5248-77.779Q25.9291-78.4696 25.9291-79.2701Q25.9291-80.0789 25.5248-80.7466Q25.1204-81.4143 24.4257-81.7875Q23.7309-82.1607 22.9222-82.1607Q22.1134-82.1607 21.4228-81.7875Q20.7322-81.4143 20.3279-80.7466Q19.9235-80.0789 19.9235-79.2701ZM24.683-61.1125Q24.683-62.0117 24.2128-62.5213Q23.7427-63.0309 22.9222-63.0309Q22.1558-63.0309 21.6586-62.5213Q21.1613-62.0117 21.1613-61.1125L21.1613-2.08043Q21.1613 3.34251 18.6468 5.7877Q16.1322 8.23289 10.4177 8.35278Q9.58898 8.39391 9.15582 8.82707Q8.72266 9.26024 8.72266 9.96083Q8.72266 10.6943 9.24456 11.1128Q9.76646 11.5312 10.7068 11.5312Q15.4255 11.5312 18.5302 10.1153Q21.6348 8.69935 23.1589 5.67818Q24.683 2.65702 24.683-2.06519L24.683-61.1125ZM34.7363-20.3007Q35.6744-16.1003 38.5257-12.9157Q41.377-9.7311 45.749-7.97362Q50.1209-6.21614 55.3756-6.21614Q61.177-6.21614 65.7223-8.14523Q70.2675-10.0743 72.805-13.5587Q75.3424-17.043 75.3424-21.5489Q75.3424-25.4071 73.8077-28.0838Q72.273-30.7605 68.915-32.6191Q65.5571-34.4777 59.9543-35.8025L52.4543-37.5423Q45.6183-39.1505 42.61-41.6933Q39.6017-44.236 39.6017-48.4081Q39.6017-51.7033 41.5526-54.3336Q43.5035-56.964 46.9626-58.4828Q50.4217-60.0017 54.7596-60.0017Q60.0873-60.0017 63.8004-57.6987Q67.5135-55.3957 69.4825-51.4681Q70.3383-49.9387 70.8779-47.7944Q71.1847-46.5777 71.5867-46.1792Q71.9887-45.7807 72.6729-45.7807Q73.3899-45.7807 73.7919-46.2097Q74.1939-46.6388 74.1939-47.4017Q74.1939-47.9707 74.007-48.7265Q73.1594-53.0644 70.5762-56.2966Q67.9929-59.5289 63.9578-61.2799Q59.9227-63.0309 54.9336-63.0309Q49.4437-63.0309 45.1477-61.16Q40.8516-59.2891 38.4429-55.9252Q36.0342-52.5614 36.0342-48.2342Q36.0342-42.956 39.7825-39.5986Q43.5307-36.2412 51.4846-34.4015L59.0175-32.7075Q65.9158-31.0911 68.8559-28.4772Q71.796-25.8633 71.796-21.2879Q71.796-17.8059 69.6747-15.0674Q67.5534-12.3289 63.8615-10.7871Q60.1696-9.24533 55.5284-9.24533Q48.8806-9.24533 44.2676-12.3877Q39.6546-15.53 38.0147-21.0693Q37.6374-22.1779 37.2272-22.6469Q36.8169-23.116 36.1657-23.116Q35.4322-23.116 34.9744-22.6787Q34.5165-22.2414 34.5165-21.5161Q34.5165-20.9354 34.7363-20.3007Z"/>
  </g>
  <g id="Ultralight-M" transform="matrix(1 0 0 1 518.682 1126)">
   <path d="M20.3223-79.5194Q20.3223-78.8934 20.6332-78.3524Q20.9441-77.8113 21.4852-77.5337Q22.0262-77.2561 22.648-77.2561Q23.2698-77.2561 23.8087-77.5337Q24.3476-77.8113 24.6585-78.3524Q24.9694-78.8934 24.9694-79.5194Q24.9694-80.1412 24.6585-80.6469Q24.3476-81.1525 23.8087-81.4323Q23.2698-81.712 22.648-81.712Q22.0262-81.712 21.4852-81.4323Q20.9441-81.1525 20.6332-80.6469Q20.3223-80.1412 20.3223-79.5194ZM23.7233-61.6858Q23.7233-62.261 23.4463-62.5649Q23.1693-62.8688 22.648-62.8688Q22.1932-62.8688 21.8829-62.5649Q21.5727-62.261 21.5727-61.6858L21.5727-1.94333Q21.5727 3.85353 18.8088 6.41712Q16.0449 8.98072 9.83189 9.01336Q9.31478 8.99218 9.01872 9.28824Q8.72266 9.5843 8.72266 10.073Q8.72266 10.5448 9.02021 10.8012Q9.31776 11.0576 9.87174 11.0576Q14.6154 11.0576 17.6889 9.71023Q20.7624 8.36283 22.2428 5.43514Q23.7233 2.50745 23.7233-2.13998L23.7233-61.6858ZM33.3653-21.1607Q34.2037-16.8108 37.0301-13.4953Q39.8564-10.1798 44.2595-8.34754Q48.6626-6.51528 53.9797-6.51528Q59.5816-6.51528 63.9898-8.40074Q68.398-10.2862 70.8668-13.6833Q73.3357-17.0804 73.3357-21.4616Q73.3357-25.2326 71.8135-27.8657Q70.2913-30.4988 66.9707-32.3262Q63.6501-34.1536 58.1346-35.4535L50.859-37.1061Q43.5244-38.8264 40.3541-41.4814Q37.1838-44.1363 37.1838-48.5951Q37.1838-52.0897 39.2468-54.8883Q41.3098-57.6869 44.9559-59.3117Q48.602-60.9365 53.1642-60.9365Q58.9157-60.9365 62.903-58.3468Q66.8903-55.7572 68.8967-51.4556Q69.7775-49.7891 70.2547-47.4953Q70.4743-46.3284 70.7392-45.9673Q71.0041-45.6062 71.5013-45.6062Q71.9815-45.6062 72.2464-45.9044Q72.5113-46.2026 72.5113-46.7536Q72.5113-47.3101 72.3244-48.0535Q71.4394-52.6157 68.8998-55.9539Q66.3601-59.292 62.3499-61.0804Q58.3398-62.8688 53.2634-62.8688Q47.973-62.8688 43.8141-61.0478Q39.6551-59.2268 37.3087-55.9564Q34.9623-52.686 34.9623-48.4959Q34.9623-43.3797 38.6483-40.1532Q42.3342-36.9267 50.2257-35.1368L57.4844-33.5551Q64.8813-31.8389 68.0395-29.0318Q71.1978-26.2247 71.1978-21.3129Q71.1978-17.6314 68.9393-14.6997Q66.6809-11.768 62.7771-10.1078Q58.8734-8.44764 53.9954-8.44764Q47.0359-8.44764 42.049-11.9265Q37.0621-15.4054 35.5469-21.3311Q35.2693-22.3648 35.0086-22.784Q34.7479-23.2032 34.2338-23.2032Q33.762-23.2032 33.4787-22.9093Q33.1953-22.6153 33.1953-22.1393Q33.1953-21.6833 33.3653-21.1607Z"/>
  </g>
  <g id="Black-S" transform="matrix(1 0 0 1 2888.99 696)">
   <path d="M15.1367-68.4082Q15.1367-66.1621 16.2598-64.3311Q17.3828-62.5 19.3115-61.4258Q21.2402-60.3516 23.6328-60.3516Q25.9766-60.3516 27.9053-61.4258Q29.834-62.5 30.957-64.3311Q32.0801-66.1621 32.0801-68.4082Q32.0801-70.6543 30.957-72.4854Q29.834-74.3164 27.9053-75.3906Q25.9766-76.4648 23.6328-76.4648Q21.2402-76.4648 19.3115-75.3906Q17.3828-74.3164 16.2598-72.4854Q15.1367-70.6543 15.1367-68.4082ZM32.0801-48.8281Q32.0801-53.2227 29.7852-55.4199Q27.4902-57.6172 23.6328-57.6172Q19.7266-57.6172 17.4072-55.4199Q15.0879-53.2227 15.0879-48.877L15.0879-9.61914Q15.0879-8.25195 14.2822-7.4707Q13.4766-6.68945 11.5234-6.29883Q9.13086-5.81055 7.9834-4.56543Q6.83594-3.32031 6.83594-1.12305Q6.83594 2.29492 9.5459 4.07715Q12.2559 5.85938 17.2852 5.85938Q21.8262 5.85938 25.1709 4.02832Q28.5156 2.19727 30.2979-1.12305Q32.0801-4.44336 32.0801-8.88672L32.0801-48.8281ZM37.4512-18.6035Q38.5254-16.0156 41.4307-14.0137Q44.3359-12.0117 49.0234-10.8643Q53.7109-9.7168 59.8633-9.7168Q66.4551-9.7168 71.46-11.6943Q76.4648-13.6719 79.2236-17.3096Q81.9824-20.9473 81.9824-25.8789Q81.9824-29.3457 80.4688-31.7871Q78.9551-34.2285 75.8057-35.8643Q72.6562-37.5 67.6758-38.4277L59.375-39.9414Q56.3965-40.5273 55.249-41.3086Q54.1016-42.0898 54.1016-43.3594Q54.1016-44.3848 54.7363-45.1172Q55.3711-45.8496 56.543-46.2646Q57.7148-46.6797 59.2285-46.6797Q61.5234-46.6797 63.0615-45.8496Q64.5996-45.0195 66.6016-43.4082Q67.2852-42.8711 67.9688-42.2852Q68.9453-41.5039 70.5566-41.0156Q72.168-40.5273 73.4863-40.5273Q76.709-40.5273 78.3447-42.041Q79.9805-43.5547 79.9805-46.0449Q79.9805-47.168 79.4922-48.4863Q78.5645-51.0254 75.9033-53.125Q73.2422-55.2246 68.9453-56.4941Q64.6484-57.7637 59.2285-57.7637Q52.6367-57.7637 47.8271-55.9082Q43.0176-54.0527 40.4297-50.5859Q37.8418-47.1191 37.8418-42.3828Q37.8418-37.0117 41.3818-33.4717Q44.9219-29.9316 51.709-28.7109L60.0098-27.1973Q62.8906-26.6602 64.0381-25.9277Q65.1855-25.1953 65.1855-23.9258Q65.1855-22.998 64.5264-22.29Q63.8672-21.582 62.6709-21.1914Q61.4746-20.8008 59.8633-20.8008Q57.1289-20.8008 54.8828-21.6553Q52.6367-22.5098 50.7324-24.3164Q48.877-26.0254 47.0947-26.8311Q45.3125-27.6367 43.3105-27.6367Q40.4785-27.6367 38.6719-25.8545Q36.8652-24.0723 36.8652-21.3379Q36.8652-20.0684 37.4512-18.6035Z"/>
  </g>
  <g id="Heavy-S" transform="matrix(1 0 0 1 2594.18 696)">
   <path d="M14.9293-68.5234Q14.9293-66.5194 15.9371-64.8727Q16.9449-63.226 18.6662-62.2555Q20.3874-61.285 22.5149-61.285Q24.6052-61.285 26.3322-62.2555Q28.0592-63.226 29.067-64.8727Q30.0748-66.5194 30.0748-68.5234Q30.0748-70.5391 29.067-72.1915Q28.0592-73.8439 26.3322-74.8086Q24.6052-75.7734 22.5149-75.7734Q20.3874-75.7734 18.6662-74.8086Q16.9449-73.8439 15.9371-72.1915Q14.9293-70.5391 14.9293-68.5234ZM29.8443-49.946Q29.8443-53.7297 27.849-55.6677Q25.8538-57.6057 22.5149-57.6057Q19.1388-57.6057 17.1249-55.6677Q15.1109-53.7297 15.1109-49.9833L15.1109-9.64219Q15.1109-7.89469 14.2304-6.94058Q13.3498-5.98646 11.2008-5.59584Q8.96952-5.16518 7.90273-4.02378Q6.83594-2.88238 6.83594-0.904082Q6.83594 2.05291 9.18288 3.62193Q11.5298 5.19096 15.8561 5.19096Q20.1782 5.19096 23.3327 3.47515Q26.4873 1.75934 28.1658-1.41116Q29.8443-4.58165 29.8443-8.90977L29.8443-49.946ZM36.1374-19.076Q37.2116-16.442 39.9786-14.4286Q42.7456-12.4151 47.1104-11.2734Q51.4752-10.1317 57.0974-10.1317Q63.3665-10.1317 68.1409-12.0343Q72.9153-13.9369 75.5473-17.4306Q78.1793-20.9242 78.1793-25.6254Q78.1793-29.0576 76.7291-31.4529Q75.2788-33.8482 72.2216-35.4667Q69.1643-37.0851 64.253-38.059L56.3441-39.6072Q53.2042-40.2623 51.9012-41.2394Q50.5981-42.2166 50.5981-43.7282Q50.5981-44.961 51.3539-45.872Q52.1097-46.7831 53.4947-47.2961Q54.8798-47.8091 56.6586-47.8091Q59.0572-47.8091 60.699-46.979Q62.3408-46.1489 64.2045-44.4915Q64.865-43.9083 65.5371-43.1841Q66.4099-42.3221 67.8253-41.8454Q69.2408-41.3686 70.5245-41.3686Q73.3093-41.3686 74.7433-42.7094Q76.1774-44.0502 76.1774-46.2639Q76.1774-47.2371 75.7698-48.3941Q74.9342-50.9562 72.3884-53.0731Q69.8425-55.19 65.7934-56.4538Q61.7443-57.7176 56.7508-57.7176Q50.5393-57.7176 45.9602-55.914Q41.3811-54.1104 38.9085-50.7646Q36.4358-47.4188 36.4358-42.8899Q36.4358-37.6801 39.8837-34.2496Q43.3315-30.819 50.0379-29.5061L57.993-27.9464Q61.0698-27.3171 62.3152-26.429Q63.5606-25.541 63.5606-23.9949Q63.5606-22.8021 62.7746-21.9097Q61.9887-21.0173 60.5619-20.5287Q59.1351-20.0402 57.2357-20.0402Q54.1671-20.0402 51.898-21.0041Q49.6288-21.9681 47.7706-24.0629Q46.2033-25.6336 44.6458-26.3758Q43.0883-27.1181 41.3283-27.1181Q38.819-27.1181 37.214-25.5606Q35.6091-24.0031 35.6091-21.5799Q35.6091-20.4026 36.1374-19.076Z"/>
  </g>
  <g id="Bold-S" transform="matrix(1 0 0 1 2299.6 696)">
   <path d="M14.6973-68.6523Q14.6973-66.9189 15.5762-65.4785Q16.4551-64.0381 17.9443-63.1836Q19.4336-62.3291 21.2646-62.3291Q23.0713-62.3291 24.5728-63.1836Q26.0742-64.0381 26.9531-65.4785Q27.832-66.9189 27.832-68.6523Q27.832-70.4102 26.9531-71.8628Q26.0742-73.3154 24.5728-74.1577Q23.0713-75 21.2646-75Q19.4336-75 17.9443-74.1577Q16.4551-73.3154 15.5762-71.8628Q14.6973-70.4102 14.6973-68.6523ZM27.3438-51.1963Q27.3438-54.2969 25.6836-55.9448Q24.0234-57.5928 21.2646-57.5928Q18.4814-57.5928 16.8091-55.9448Q15.1367-54.2969 15.1367-51.2207L15.1367-9.66797Q15.1367-7.49512 14.1724-6.34766Q13.208-5.2002 10.8398-4.80957Q8.78906-4.44336 7.8125-3.41797Q6.83594-2.39258 6.83594-0.65918Q6.83594 1.78223 8.77686 3.11279Q10.7178 4.44336 14.2578 4.44336Q18.335 4.44336 21.2769 2.85645Q24.2188 1.26953 25.7812-1.7334Q27.3438-4.73633 27.3438-8.93555L27.3438-51.1963ZM34.668-19.6045Q35.7422-16.9189 38.3545-14.8926Q40.9668-12.8662 44.9707-11.731Q48.9746-10.5957 54.0039-10.5957Q59.9121-10.5957 64.4287-12.4146Q68.9453-14.2334 71.4355-17.5659Q73.9258-20.8984 73.9258-25.3418Q73.9258-28.7354 72.5464-31.0791Q71.167-33.4229 68.2129-35.022Q65.2588-36.6211 60.4248-37.6465L52.9541-39.2334Q49.6338-39.9658 48.1567-41.1621Q46.6797-42.3584 46.6797-44.1406Q46.6797-45.6055 47.5708-46.7163Q48.4619-47.8271 50.0854-48.4497Q51.709-49.0723 53.7842-49.0723Q56.2988-49.0723 58.0566-48.2422Q59.8145-47.4121 61.5234-45.7031Q62.1582-45.0684 62.8174-44.1895Q63.5742-43.2373 64.7705-42.7734Q65.9668-42.3096 67.2119-42.3096Q69.5068-42.3096 70.7153-43.457Q71.9238-44.6045 71.9238-46.5088Q71.9238-47.3145 71.6064-48.291Q70.874-50.8789 68.457-53.0151Q66.04-55.1514 62.2681-56.4087Q58.4961-57.666 53.9795-57.666Q48.1934-57.666 43.8721-55.9204Q39.5508-54.1748 37.207-50.9644Q34.8633-47.7539 34.8633-43.457Q34.8633-38.4277 38.208-35.1196Q41.5527-31.8115 48.1689-30.3955L55.7373-28.7842Q59.0332-28.0518 60.3882-26.9897Q61.7432-25.9277 61.7432-24.0723Q61.7432-22.583 60.8154-21.4844Q59.8877-20.3857 58.2031-19.7876Q56.5186-19.1895 54.2969-19.1895Q50.8545-19.1895 48.5596-20.2759Q46.2646-21.3623 44.458-23.7793Q43.2129-25.1953 41.9067-25.8667Q40.6006-26.5381 39.1113-26.5381Q36.9629-26.5381 35.5835-25.2319Q34.2041-23.9258 34.2041-21.8506Q34.2041-20.7764 34.668-19.6045Z"/>
  </g>
  <g id="Semibold-S" transform="matrix(1 0 0 1 2004.35 696)">
   <path d="M14.5373-68.7412Q14.5373-67.1944 15.3273-65.8962Q16.1174-64.5979 17.4467-63.8234Q18.776-63.0489 20.4026-63.0489Q22.0138-63.0489 23.3597-63.8234Q24.7057-64.5979 25.4957-65.8962Q26.2857-67.1944 26.2857-68.7412Q26.2857-70.3213 25.4957-71.6362Q24.7057-72.9511 23.3597-73.7089Q22.0138-74.4668 20.4026-74.4668Q18.776-74.4668 17.4467-73.7089Q16.1174-72.9511 15.3273-71.6362Q14.5373-70.3213 14.5373-68.7412ZM25.6197-52.0583Q25.6197-54.6879 24.1906-56.1359Q22.7615-57.5839 20.4026-57.5839Q18.0282-57.5839 16.5914-56.1359Q15.1545-54.6879 15.1545-52.0738L15.1545-9.68574Q15.1545-7.21963 14.1324-5.93887Q13.1103-4.65811 10.591-4.26748Q8.66465-3.9457 7.75029-3.00029Q6.83594-2.05488 6.83594-0.490332Q6.83594 1.59561 8.49692 2.76177Q10.1579 3.92793 13.1559 3.92793Q17.0642 3.92793 19.8594 2.42988Q22.6547 0.931836 24.1372-1.95557Q25.6197-4.84297 25.6197-8.95332L25.6197-52.0583ZM33.6549-19.9688Q34.7291-17.2478 37.2348-15.2125Q39.7404-13.1772 43.4955-12.0464Q47.2506-10.9156 51.8711-10.9156Q57.5305-10.9156 61.8693-12.6767Q66.2082-14.4378 68.6007-17.6592Q70.9932-20.8807 70.9932-25.1463Q70.9932-28.5132 69.6626-30.8214Q68.3321-33.1296 65.4491-34.7154Q62.5661-36.3012 57.7854-37.3621L50.6169-38.9757Q47.1722-39.7614 45.5751-41.1088Q43.9781-42.4562 43.9781-44.425Q43.9781-46.0498 44.9625-47.2984Q45.947-48.547 47.7349-49.2451Q49.5229-49.9432 51.8024-49.9432Q54.3971-49.9432 56.2349-49.1131Q58.0727-48.283 59.675-46.5385Q60.292-45.8682 60.9423-44.8826Q61.6191-43.8683 62.6644-43.4133Q63.7096-42.9583 64.928-42.9583Q66.8853-42.9583 67.9382-43.9725Q68.9912-44.9866 68.9912-46.6776Q68.9912-47.3678 68.736-48.2199Q68.0747-50.8256 65.7466-52.9751Q63.4185-55.1247 59.8375-56.3776Q56.2566-57.6305 52.0688-57.6305Q46.576-57.6305 42.4324-55.9249Q38.2889-54.2192 36.034-51.1021Q33.7791-47.985 33.7791-43.848Q33.7791-38.9432 37.0527-35.7195Q40.3264-32.4958 46.8804-31.0087L54.1821-29.3618Q57.6291-28.5583 59.0596-27.3763Q60.4901-26.1943 60.4901-24.1256Q60.4901-22.4319 59.4646-21.1911Q58.4392-19.9503 56.5769-19.2766Q54.7146-18.6029 52.2707-18.6029Q48.5706-18.6029 46.2579-19.7738Q43.9452-20.9446 42.1741-23.5838Q41.1512-24.8932 40.0183-25.5157Q38.8854-26.1382 37.5828-26.1382Q35.6832-26.1382 34.4593-25.0053Q33.2354-23.8725 33.2354-22.0372Q33.2354-21.0341 33.6549-19.9688Z"/>
  </g>
  <g id="Medium-S" transform="matrix(1 0 0 1 1708.75 696)">
   <path d="M14.416-68.8086Q14.416-67.4033 15.1387-66.2129Q15.8613-65.0225 17.0693-64.3086Q18.2773-63.5947 19.749-63.5947Q21.2119-63.5947 22.4399-64.3086Q23.668-65.0225 24.3906-66.2129Q25.1133-67.4033 25.1133-68.8086Q25.1133-70.2539 24.3906-71.4644Q23.668-72.6748 22.4399-73.3687Q21.2119-74.0625 19.749-74.0625Q18.2773-74.0625 17.0693-73.3687Q15.8613-72.6748 15.1387-71.4644Q14.416-70.2539 14.416-68.8086ZM24.3125-52.7119Q24.3125-54.9844 23.0586-56.2808Q21.8047-57.5771 19.749-57.5771Q17.6846-57.5771 16.4263-56.2808Q15.168-54.9844 15.168-52.7207L15.168-9.69922Q15.168-7.01074 14.1021-5.62891Q13.0361-4.24707 10.4023-3.85645Q8.57031-3.56836 7.70312-2.68359Q6.83594-1.79883 6.83594-0.362305Q6.83594 1.4541 8.28467 2.49561Q9.7334 3.53711 12.3203 3.53711Q16.1006 3.53711 18.7847 2.10645Q21.4688 0.675781 22.8906-2.12402Q24.3125-4.92383 24.3125-8.9668L24.3125-52.7119ZM32.8867-20.2451Q33.9609-17.4971 36.3857-15.4551Q38.8105-13.4131 42.377-12.2856Q45.9434-11.1582 50.2539-11.1582Q55.7246-11.1582 59.9287-12.8755Q64.1328-14.5928 66.4512-17.73Q68.7695-20.8672 68.7695-24.998Q68.7695-28.3447 67.4761-30.626Q66.1826-32.9072 63.3535-34.4829Q60.5244-36.0586 55.7842-37.1465L48.8447-38.7803Q45.3057-39.6064 43.6177-41.0684Q41.9297-42.5303 41.9297-44.6406Q41.9297-46.3867 42.9849-47.7397Q44.04-49.0928 45.9526-49.8481Q47.8652-50.6035 50.2998-50.6035Q52.9551-50.6035 54.8535-49.7734Q56.752-48.9434 58.2734-47.1719Q58.877-46.4746 59.5205-45.4082Q60.1367-44.3467 61.0674-43.8984Q61.998-43.4502 63.1963-43.4502Q64.8975-43.4502 65.8325-44.3633Q66.7676-45.2764 66.7676-46.8057Q66.7676-47.4082 66.5596-48.166Q65.9521-50.7852 63.6914-52.9448Q61.4307-55.1045 57.9946-56.354Q54.5586-57.6035 50.6201-57.6035Q45.3496-57.6035 41.3408-55.9282Q37.332-54.2529 35.1445-51.2065Q32.957-48.1602 32.957-44.1445Q32.957-39.334 36.1768-36.1743Q39.3965-33.0146 45.9033-31.4736L53.0029-29.7998Q56.5645-28.9424 58.0522-27.6694Q59.54-26.3965 59.54-24.166Q59.54-22.3174 58.4404-20.9688Q57.3408-19.6201 55.3438-18.8892Q53.3467-18.1582 50.7344-18.1582Q46.8389-18.1582 44.5127-19.3931Q42.1865-20.6279 40.4424-23.4355Q39.5879-24.6641 38.5864-25.2495Q37.585-25.835 36.4238-25.835Q34.7129-25.835 33.6069-24.8335Q32.501-23.832 32.501-22.1787Q32.501-21.2295 32.8867-20.2451Z"/>
  </g>
  <g id="Regular-S" transform="matrix(1 0 0 1 1413.49 696)">
   <path d="M14.2578-68.8965Q14.2578-67.6758 14.8926-66.626Q15.5273-65.5762 16.5771-64.9414Q17.627-64.3066 18.8965-64.3066Q20.166-64.3066 21.2402-64.9414Q22.3145-65.5762 22.9492-66.626Q23.584-67.6758 23.584-68.8965Q23.584-70.166 22.9492-71.2402Q22.3145-72.3145 21.2402-72.9248Q20.166-73.5352 18.8965-73.5352Q17.627-73.5352 16.5771-72.9248Q15.5273-72.3145 14.8926-71.2402Q14.2578-70.166 14.2578-68.8965ZM22.6074-53.5645Q22.6074-55.3711 21.582-56.4697Q20.5566-57.5684 18.8965-57.5684Q17.2363-57.5684 16.2109-56.4697Q15.1855-55.3711 15.1855-53.5645L15.1855-9.7168Q15.1855-6.73828 14.0625-5.22461Q12.9395-3.71094 10.1562-3.32031Q8.44727-3.07617 7.6416-2.27051Q6.83594-1.46484 6.83594-0.195312Q6.83594 1.26953 8.00781 2.14844Q9.17969 3.02734 11.2305 3.02734Q14.8438 3.02734 17.3828 1.68457Q19.9219 0.341797 21.2646-2.34375Q22.6074-5.0293 22.6074-8.98438L22.6074-53.5645ZM31.8848-20.6055Q32.959-17.8223 35.2783-15.7715Q37.5977-13.7207 40.918-12.5977Q44.2383-11.4746 48.1445-11.4746Q53.3691-11.4746 57.3975-13.1348Q61.4258-14.7949 63.6475-17.8223Q65.8691-20.8496 65.8691-24.8047Q65.8691-28.125 64.624-30.3711Q63.3789-32.6172 60.6201-34.1797Q57.8613-35.7422 53.1738-36.8652L46.5332-38.5254Q42.8711-39.4043 41.0645-41.0156Q39.2578-42.627 39.2578-44.9219Q39.2578-46.8262 40.4053-48.3154Q41.5527-49.8047 43.6279-50.6348Q45.7031-51.4648 48.3398-51.4648Q51.0742-51.4648 53.0518-50.6348Q55.0293-49.8047 56.4453-47.998Q57.0312-47.2656 57.666-46.0938Q58.2031-44.9707 58.9844-44.5312Q59.7656-44.0918 60.9375-44.0918Q62.3047-44.0918 63.0859-44.873Q63.8672-45.6543 63.8672-46.9727Q63.8672-47.4609 63.7207-48.0957Q63.1836-50.7324 61.0107-52.9053Q58.8379-55.0781 55.5908-56.3232Q52.3438-57.5684 48.7305-57.5684Q43.75-57.5684 39.917-55.9326Q36.084-54.2969 33.9844-51.3428Q31.8848-48.3887 31.8848-44.5312Q31.8848-39.8438 35.0342-36.7676Q38.1836-33.6914 44.6289-32.0801L51.4648-30.3711Q55.1758-29.4434 56.7383-28.0518Q58.3008-26.6602 58.3008-24.2188Q58.3008-22.168 57.1045-20.6787Q55.9082-19.1895 53.7354-18.3838Q51.5625-17.5781 48.7305-17.5781Q44.5801-17.5781 42.2363-18.8965Q39.8926-20.2148 38.1836-23.2422Q37.5488-24.3652 36.7188-24.9023Q35.8887-25.4395 34.9121-25.4395Q33.4473-25.4395 32.4951-24.6094Q31.543-23.7793 31.543-22.3633Q31.543-21.4844 31.8848-20.6055Z"/>
  </g>
  <g id="Light-S" transform="matrix(1 0 0 1 1118.09 696)">
   <path d="M14.7786-69.222Q14.7786-68.2292 15.2913-67.3747Q15.804-66.5202 16.6585-66.0156Q17.513-65.5111 18.5384-65.5111Q19.5638-65.5111 20.4346-66.0156Q21.3053-66.5202 21.818-67.3747Q22.3307-68.2292 22.3307-69.222Q22.3307-70.2474 21.818-71.11Q21.3053-71.9727 20.4346-72.4609Q19.5638-72.9492 18.5384-72.9492Q17.513-72.9492 16.6585-72.4609Q15.804-71.9727 15.2913-71.11Q14.7786-70.2474 14.7786-69.222ZM21.3542-54.3132Q21.3542-55.6966 20.5811-56.5267Q19.8079-57.3568 18.5384-57.3568Q17.2852-57.3568 16.5039-56.5267Q15.7227-55.6966 15.7227-54.3132L15.7227-9.53776Q15.7227-6.07096 14.2741-4.40267Q12.8255-2.73438 9.39128-2.45768Q8.08919-2.29492 7.46257-1.66829Q6.83594-1.04167 6.83594-0.0488281Q6.83594 1.07422 7.71484 1.74154Q8.59375 2.40885 10.14 2.40885Q13.7858 2.40885 16.2842 1.1556Q18.7826-0.0976562 20.0684-2.66113Q21.3542-5.22461 21.3542-9.08203L21.3542-54.3132ZM30.0944-21.7285Q31.0384-18.75 33.3252-16.5283Q35.612-14.3066 38.973-13.0859Q42.334-11.8652 46.3216-11.8652Q51.2858-11.8652 55.1351-13.4684Q58.9844-15.0716 61.1165-17.985Q63.2487-20.8984 63.2487-24.6908Q63.2487-27.8971 62.0199-30.0863Q60.791-32.2754 58.0811-33.7972Q55.3711-35.319 50.7975-36.4095L44.4499-37.9557Q40.1367-38.9811 38.1185-40.7389Q36.1003-42.4967 36.1003-45.166Q36.1003-47.3307 37.3942-49.0397Q38.6882-50.7487 41.0075-51.7171Q43.3268-52.6855 46.2565-52.6855Q49.5443-52.6855 51.8799-51.4811Q54.2155-50.2767 55.6803-47.9818Q56.2988-47.0703 56.8522-45.7031Q57.2754-44.6452 57.8776-44.2546Q58.4798-43.8639 59.4076-43.8639Q60.4655-43.8639 61.0677-44.4743Q61.6699-45.0846 61.6699-46.1263Q61.6699-46.5983 61.5234-47.2168Q60.9375-50.1465 58.8216-52.4577Q56.7057-54.7689 53.4912-56.0628Q50.2767-57.3568 46.5495-57.3568Q41.8294-57.3568 38.1755-55.7861Q34.5215-54.2155 32.5033-51.3835Q30.485-48.5514 30.485-44.873Q30.485-40.3971 33.5531-37.4919Q36.6211-34.5866 42.985-33.0404L49.4629-31.4779Q53.8249-30.4199 55.6722-28.776Q57.5195-27.1322 57.5195-24.2513Q57.5195-21.9401 56.1442-20.1986Q54.7689-18.457 52.3193-17.4967Q49.8698-16.5365 46.7285-16.5365Q42.1712-16.5365 39.3392-18.2943Q36.5072-20.0521 34.9609-23.584Q34.4564-24.6094 33.8216-25.0814Q33.1868-25.5534 32.3893-25.5534Q31.2663-25.5534 30.542-24.9105Q29.8177-24.2676 29.8177-23.1771Q29.8177-22.4609 30.0944-21.7285Z"/>
  </g>
  <g id="Thin-S" transform="matrix(1 0 0 1 823.113 696)">
   <path d="M15.4675-69.6525Q15.4675-68.9611 15.8187-68.3649Q16.17-67.7687 16.7662-67.4364Q17.3623-67.104 18.0648-67.104Q18.7673-67.104 19.369-67.4364Q19.9707-67.7687 20.322-68.3649Q20.6732-68.9611 20.6732-69.6525Q20.6732-70.355 20.322-70.9378Q19.9707-71.5206 19.369-71.8474Q18.7673-72.1743 18.0648-72.1743Q17.3623-72.1743 16.7662-71.8474Q16.17-71.5206 15.8187-70.9378Q15.4675-70.355 15.4675-69.6525ZM19.6966-55.3034Q19.6966-56.1271 19.2572-56.602Q18.8177-57.0769 18.0648-57.0769Q17.3497-57.0769 16.8914-56.602Q16.433-56.1271 16.433-55.3034L16.433-9.30097Q16.433-5.18838 14.5539-3.31559Q12.6748-1.44279 8.37954-1.31678Q7.61561-1.26166 7.22577-0.871818Q6.83594-0.481981 6.83594 0.144909Q6.83594 0.815902 7.32737 1.20338Q7.8188 1.59085 8.69771 1.59085Q12.3866 1.59085 14.8311 0.455992Q17.2757-0.678868 18.4862-3.0809Q19.6966-5.48293 19.6966-9.21119L19.6966-55.3034ZM27.7265-23.2138Q28.4983-19.977 30.742-17.5293Q32.9858-15.0816 36.4006-13.7317Q39.8154-12.3819 43.9107-12.3819Q48.5304-12.3819 52.1429-13.9097Q55.7554-15.4376 57.7692-18.2003Q59.783-20.963 59.783-24.5401Q59.783-27.5958 58.5756-29.7096Q57.3683-31.8233 54.7229-33.2913Q52.0776-34.7593 47.6547-35.8068L41.6945-37.2023Q36.5203-38.4214 34.2222-40.373Q31.9241-42.3245 31.9241-45.4889Q31.9241-47.998 33.4118-49.9976Q34.8995-51.9972 37.5417-53.1486Q40.184-54.3 43.5011-54.3Q47.5208-54.3 50.33-52.6005Q53.1392-50.901 54.6686-47.9602Q55.3301-46.812 55.7759-45.1865Q56.0484-44.2147 56.4138-43.8886Q56.7792-43.5626 57.3841-43.5626Q58.033-43.5626 58.3984-43.9469Q58.7639-44.3312 58.7639-45.0069Q58.7639-45.4574 58.6174-46.0544Q57.9669-49.3715 55.9263-51.8657Q53.8858-54.3599 50.7143-55.7184Q47.5428-57.0769 43.6649-57.0769Q39.2893-57.0769 35.8721-55.5924Q32.455-54.1079 30.5444-51.4373Q28.6338-48.7667 28.6338-45.3251Q28.6338-41.129 31.5942-38.4498Q34.5546-35.7705 40.8109-34.3104L46.8151-32.9417Q52.0382-31.7115 54.2622-29.734Q56.4863-27.7564 56.4863-24.2944Q56.4863-21.6387 54.8741-19.5635Q53.262-17.4883 50.4465-16.3236Q47.631-15.1588 44.0808-15.1588Q38.9853-15.1588 35.5075-17.4978Q32.0297-19.8368 30.6987-24.036Q30.3664-24.9323 29.9899-25.3182Q29.6135-25.7041 29.0527-25.7041Q28.3817-25.7041 27.9588-25.3087Q27.5359-24.9134 27.5359-24.2534Q27.5359-23.7525 27.7265-23.2138Z"/>
  </g>
  <g id="Ultralight-S" transform="matrix(1 0 0 1 527.289 696)">
   <path d="M15.8203-69.873Q15.8203-69.3359 16.0889-68.8721Q16.3574-68.4082 16.8213-68.1641Q17.2852-67.9199 17.8223-67.9199Q18.3594-67.9199 18.8232-68.1641Q19.2871-68.4082 19.5557-68.8721Q19.8242-69.3359 19.8242-69.873Q19.8242-70.4102 19.5557-70.8496Q19.2871-71.2891 18.8232-71.5332Q18.3594-71.7773 17.8223-71.7773Q17.2852-71.7773 16.8213-71.5332Q16.3574-71.2891 16.0889-70.8496Q15.8203-70.4102 15.8203-69.873ZM18.8477-55.8105Q18.8477-56.3477 18.5791-56.6406Q18.3105-56.9336 17.8223-56.9336Q17.3828-56.9336 17.0898-56.6406Q16.7969-56.3477 16.7969-55.8105L16.7969-9.17969Q16.7969-4.73633 14.6973-2.75879Q12.5977-0.78125 7.86133-0.732422Q7.37305-0.732422 7.10449-0.463867Q6.83594-0.195312 6.83594 0.244141Q6.83594 0.683594 7.12891 0.927734Q7.42188 1.17188 7.95898 1.17188Q11.6699 1.17188 14.0869 0.0976562Q16.5039-0.976562 17.6758-3.2959Q18.8477-5.61523 18.8477-9.27734L18.8477-55.8105ZM26.5137-23.9746Q27.1973-20.6055 29.4189-18.042Q31.6406-15.4785 35.083-14.0625Q38.5254-12.6465 42.6758-12.6465Q47.1191-12.6465 50.6104-14.1357Q54.1016-15.625 56.0547-18.3105Q58.0078-20.9961 58.0078-24.4629Q58.0078-27.4414 56.8115-29.5166Q55.6152-31.5918 53.0029-33.0322Q50.3906-34.4727 46.0449-35.498L40.2832-36.8164Q34.668-38.1348 32.2266-40.1855Q29.7852-42.2363 29.7852-45.6543Q29.7852-48.3398 31.3721-50.4883Q32.959-52.6367 35.7666-53.8818Q38.5742-55.127 42.0898-55.127Q46.4844-55.127 49.5361-53.1738Q52.5879-51.2207 54.1504-47.9492Q54.834-46.6797 55.2246-44.9219Q55.4199-43.9941 55.6641-43.7012Q55.9082-43.4082 56.3477-43.4082Q56.7871-43.4082 57.0312-43.6768Q57.2754-43.9453 57.2754-44.4336Q57.2754-44.873 57.1289-45.459Q56.4453-48.9746 54.4434-51.5625Q52.4414-54.1504 49.292-55.542Q46.1426-56.9336 42.1875-56.9336Q37.9883-56.9336 34.6924-55.4932Q31.3965-54.0527 29.541-51.4648Q27.6855-48.877 27.6855-45.5566Q27.6855-41.5039 30.5908-38.9404Q33.4961-36.377 39.6973-34.9609L45.459-33.6914Q51.123-32.373 53.54-30.2246Q55.957-28.0762 55.957-24.3164Q55.957-21.4844 54.2236-19.2383Q52.4902-16.9922 49.4873-15.7227Q46.4844-14.4531 42.7246-14.4531Q37.3535-14.4531 33.5449-17.0898Q29.7363-19.7266 28.5156-24.2676Q28.2715-25.0977 28.0273-25.4395Q27.7832-25.7812 27.3438-25.7812Q26.9043-25.7812 26.6357-25.5127Q26.3672-25.2441 26.3672-24.8047Q26.3672-24.4141 26.5137-23.9746Z"/>
  </g>
 </g>
</svg>
